<?xml version="1.0" encoding="UTF-8"?>
<svg width="52px" height="62px" viewBox="0 0 52 62" version="1.1" xmlns="http://www.w3.org/2000/svg" xmlns:xlink="http://www.w3.org/1999/xlink">
    <!-- Generator: Sketch 50.2 (55047) - http://www.bohemiancoding.com/sketch -->
    <title>files</title>
    <desc>Created with Sketch.</desc>
    <defs></defs>
    <g id="Search-results-2018" stroke="none" stroke-width="1" fill="none" fill-rule="evenodd">
        <g id="Desktop-HD-line2-Copy" transform="translate(-188.000000, -133.000000)" fill="#4A4A4A" fill-rule="nonzero">
            <g id="all-itmes" transform="translate(150.000000, 22.000000)">
                <g id="Results-bars" transform="translate(0.000000, 68.000000)">
                    <g id="Results-Bar-4">
                        <g id="Group-2" transform="translate(28.000000, 29.000000)">
                            <g id="files" transform="translate(10.000000, 14.000000)">
                                <path d="M7.8,0 L7.8,7.75 L0,7.75 L0,62 L44.2,62 L44.2,54.25 L52,54.25 L52,0 L7.8,0 Z M39,56.8333333 L5.2,56.8333333 L5.2,12.9166667 L7.8,12.9166667 L7.8,54.25 L39,54.25 L39,56.8333333 Z M46.8,49.0833333 L13,49.0833333 L13,5.16666667 L46.8,5.16666667 L46.8,49.0833333 Z M33.8,12.9166667 L18.2,12.9166667 L18.2,18.0833333 L33.8,18.0833333 L33.8,12.9166667 Z M41.6,20.6666667 L18.2,20.6666667 L18.2,23.25 L41.6,23.25 L41.6,20.6666667 Z M41.6,25.8333333 L18.2,25.8333333 L18.2,28.4166667 L41.6,28.4166667 L41.6,25.8333333 Z M41.6,31 L18.2,31 L18.2,33.5833333 L41.6,33.5833333 L41.6,31 Z M26,36.1666667 L18.2,36.1666667 L18.2,38.75 L26,38.75 L26,36.1666667 Z" id="Shape"></path>
                            </g>
                        </g>
                    </g>
                </g>
            </g>
        </g>
    </g>
</svg>