<?xml version="1.0" encoding="UTF-8"?>
<svg width="770px" height="708px" viewBox="0 0 770 708" version="1.1" xmlns="http://www.w3.org/2000/svg" xmlns:xlink="http://www.w3.org/1999/xlink">
    <!-- Generator: Sketch 50.2 (55047) - http://www.bohemiancoding.com/sketch -->
    <title>Shape</title>
    <desc>Created with Sketch.</desc>
    <defs></defs>
    <g id="Page-1" stroke="none" stroke-width="1" fill="none" fill-rule="evenodd">
        <g id="chat" fill="#FFFFFF" fill-rule="nonzero">
            <path d="M698.12,0.464 L71.88,0.464 C32.36,0.464 0.328,32.528 0.328,72.016 L0.328,471.632 C0.328,511.12 32.36,543.184 71.88,543.184 L191.208,543.184 L191.24,707.568 L373.768,543.184 L698.152,543.184 C737.704,543.184 769.704,511.12 769.704,471.632 L769.704,72.016 C769.672,32.528 737.672,0.464 698.12,0.464 Z M193,289.008 C175.304,289.008 161,274.672 161,257.008 C161,239.312 175.304,225.008 193,225.008 C210.664,225.008 225,239.312 225,257.008 C225,274.672 210.664,289.008 193,289.008 Z M321,287.664 C303.304,287.664 289,273.328 289,255.664 C289,237.968 303.304,223.664 321,223.664 C338.664,223.664 353,237.968 353,255.664 C353,273.328 338.664,287.664 321,287.664 Z M449.64,288.336 C431.976,288.336 417.64,274.032 417.64,256.336 C417.64,238.672 431.976,224.336 449.64,224.336 C467.336,224.336 481.64,238.672 481.64,256.336 C481.64,274 467.304,288.336 449.64,288.336 Z M577,289.008 C559.304,289.008 545,274.672 545,257.008 C545,239.312 559.304,225.008 577,225.008 C594.664,225.008 609,239.312 609,257.008 C609,274.672 594.664,289.008 577,289.008 Z" id="Shape"></path>
        </g>
    </g>
</svg>