<!-- Generated by IcoMoon.io -->
<svg version="1.1" xmlns="http://www.w3.org/2000/svg" width="128" height="128" viewBox="0 0 128 128">
<title>documents</title>
<path d="M92 108h16.010c4.413 0 7.99-3.564 7.99-7.99v-68.010h-19.976c-4.431 0-8.024-3.547-8.024-7.992v-24.008h-39.966c-4.437 0-8.034 3.593-8.034 8.029v7.971h30l26 30.4v61.6h-4v-56h-19.976c-4.431 0-8.024-3.547-8.024-7.992v-24.008h-39.966c-4.437 0-8.034 3.593-8.034 8.029v91.941c0 4.434 3.564 8.029 7.99 8.029h60.021c4.413 0 7.99-3.564 7.99-7.99v-12.010zM92 0v23.988c0 2.216 1.804 4.012 3.963 4.012h20.037l-24-28zM68 20v23.988c0 2.216 1.804 4.012 3.963 4.012h20.037l-24-28z"></path>
</svg>
