<?xml version="1.0" encoding="UTF-8"?>
<svg width="50px" height="60px" viewBox="0 0 50 60" version="1.1" xmlns="http://www.w3.org/2000/svg" xmlns:xlink="http://www.w3.org/1999/xlink">
    <!-- Generator: Sketch 50.2 (55047) - http://www.bohemiancoding.com/sketch -->
    <title>ebook</title>
    <desc>Created with Sketch.</desc>
    <defs></defs>
    <g id="Search-results-2018" stroke="none" stroke-width="1" fill="none" fill-rule="evenodd">
        <g id="Icons" transform="translate(-104.000000, -289.000000)" fill="#4A4A4A" fill-rule="nonzero">
            <g id="ebook" transform="translate(104.000000, 289.000000)">
                <g id="tablet">
                    <path d="M43.7333333,0 L5.46666667,0 C2.46,0 0,2.45454545 0,5.45454545 L0,54.5454545 C0,57.5454545 2.46,60 5.46666667,60 L43.7333333,60 C46.74,60 49.2,57.5454545 49.2,54.5454545 L49.2,5.45454545 C49.2,2.45454545 46.74,0 43.7333333,0 Z M27.3333333,57.2727273 L21.8666667,57.2727273 L21.8666667,51.8181818 L27.3333333,51.8181818 L27.3333333,57.2727273 Z M43.7333333,49.0909091 L5.46666667,49.0909091 L5.46666667,5.45454545 L43.7333333,5.45454545 L43.7333333,49.0909091 Z" id="Shape"></path>
                </g>
                <g id="read-more" transform="translate(9.000000, 12.000000)">
                    <path d="M31,3.875 L0,3.875 L0,0 L31,0 L31,3.875 Z M19.375,11.625 L0,11.625 L0,7.75 L19.375,7.75 L19.375,11.625 Z M31,19.375 L0,19.375 L0,15.5 L31,15.5 L31,19.375 Z M0,29.0625 C0,27.9920312 0.86703125,27.125 1.9375,27.125 C3.00796875,27.125 3.875,27.9920312 3.875,29.0625 C3.875,30.1329687 3.00796875,31 1.9375,31 C0.86703125,31 0,30.1329687 0,29.0625 Z M15.5,29.0625 C15.5,27.9920312 16.3670313,27.125 17.4375,27.125 C18.5079688,27.125 19.375,27.9920312 19.375,29.0625 C19.375,30.1329687 18.5079688,31 17.4375,31 C16.3670313,31 15.5,30.1329687 15.5,29.0625 Z M7.75,29.0625 C7.75,27.9920312 8.61703125,27.125 9.6875,27.125 C10.7579687,27.125 11.625,27.9920312 11.625,29.0625 C11.625,30.1329687 10.7579687,31 9.6875,31 C8.61703125,31 7.75,30.1329687 7.75,29.0625 Z" id="Shape"></path>
                </g>
            </g>
        </g>
    </g>
</svg>