<?xml version="1.0" encoding="UTF-8"?>
<svg width="17px" height="21px" viewBox="0 0 17 21" version="1.1" xmlns="http://www.w3.org/2000/svg" xmlns:xlink="http://www.w3.org/1999/xlink">
    <!-- Generator: Sketch 46.2 (44496) - http://www.bohemiancoding.com/sketch -->
    <title>book</title>
    <desc>Created with Sketch.</desc>
    <defs></defs>
    <g id="Stacks-Desktop" stroke="none" stroke-width="1" fill="none" fill-rule="evenodd">
        <g id="My-Collection-Full" transform="translate(-74.000000, -413.000000)" fill-rule="nonzero" fill="#000000">
            <g id="Collection-(Inbox)" transform="translate(50.000000, 242.000000)">
                <g id="Item-(Foucault's-Pendulum)" transform="translate(16.000000, 162.000000)">
                    <g id="book" transform="translate(8.000000, 9.000000)">
                        <path d="M2.5451125,21 C1.1417625,21 0,19.87188 0,18.48042 L0,2.1 C0,0.93219 0.9486,0 2.118625,0 L17,0 L17,0.84 L16.5709625,0.84 C15.87545,0.84 15.3,1.40406 15.3,2.1 C15.3,2.80077 15.869075,3.36 16.5709625,3.36 L17,3.36 L17,21 L4.25,21 L4.25,3.36 L14.875,3.36 C14.875,3.36 14.45,2.69682 14.45,2.07774 C14.45,1.45866 14.875,0.84 14.875,0.84 L2.119475,0.84 C1.4184375,0.84 0.85,1.39923 0.85,2.1 C0.85,2.79594 1.4171625,3.36 2.119475,3.36 L3.4,3.36 L3.4,21 L2.5451125,21 L2.5451125,21 Z" id="Shape"></path>
                    </g>
                </g>
            </g>
        </g>
    </g>
</svg>