<?xml version="1.0" encoding="UTF-8"?>
<svg width="38px" height="39px" viewBox="0 0 38 39" version="1.1" xmlns="http://www.w3.org/2000/svg" xmlns:xlink="http://www.w3.org/1999/xlink">
    <!-- Generator: Sketch 46.2 (44496) - http://www.bohemiancoding.com/sketch -->
    <title>zoom27</title>
    <desc>Created with Sketch.</desc>
    <defs></defs>
    <g id="Stacks-Desktop" stroke="none" stroke-width="1" fill="none" fill-rule="evenodd">
        <g id="Opening-page-user-search" transform="translate(-1148.000000, -526.000000)" fill="#000000">
            <g id="Search-bar" transform="translate(148.000000, 507.000000)">
                <g id="search-mag" transform="translate(1000.000000, 19.000000)">
                    <g id="Group" fill="none">
                        <path d="M37.0975,33.6284467 L29.2893382,25.6661765 C31.1711765,22.8961213 32.1125147,19.8086581 32.1125147,16.4037868 C32.1125147,14.1907629 31.6911618,12.074329 30.8487353,10.0547702 C30.0065882,8.03492647 28.8682647,6.29402574 27.4340441,4.83149816 C25.9998235,3.36897059 24.2928971,2.20818015 22.3124265,1.34941176 C20.3313971,0.490358456 18.2559265,0.0609742647 16.0857353,0.0609742647 C13.9155441,0.0609742647 11.8400735,0.490358456 9.85960294,1.34941176 C7.87885294,2.20818015 6.17164706,3.36897059 4.73742647,4.83149816 C3.30320588,6.29402574 2.16488235,8.0352114 1.32273529,10.0547702 C0.480308824,12.074614 0.0592352941,14.1907629 0.0592352941,16.4037868 C0.0592352941,18.6168107 0.480308824,20.7326746 1.32273529,22.7528033 C2.16488235,24.7723621 3.30320588,26.5129779 4.73742647,27.9757904 C6.17164706,29.438318 7.87913235,30.5988235 9.85960294,31.4578768 C11.8403529,32.3169301 13.9155441,32.7463143 16.0857353,32.7463143 C19.4249853,32.7463143 22.4526912,31.7863971 25.1691324,29.8674173 L32.9772941,37.8063235 C33.5235441,38.3944118 34.2058676,38.6884559 35.0259412,38.6884559 C35.8303676,38.6884559 36.5168824,38.3984007 37.0860441,37.8180055 C37.6552059,37.2376103 37.9396471,36.537546 37.9396471,35.7172426 C37.9396471,34.8969393 37.6593971,34.200864 37.0975,33.6284467 L37.0975,33.6284467 Z M23.2909265,23.7506158 C21.2950882,25.7858456 18.8935441,26.803318 16.0857353,26.803318 C13.2782059,26.803318 10.8766618,25.7855607 8.88082353,23.7506158 C6.88498529,21.715386 5.88720588,19.2667279 5.88720588,16.4035018 C5.88720588,13.5405607 6.88526471,11.0913327 8.88082353,9.05638787 C10.8763824,7.02115809 13.2782059,6.00368566 16.0857353,6.00368566 C18.8932647,6.00368566 21.2948088,7.02144301 23.2909265,9.05638787 C25.2867647,11.0913327 26.2848235,13.5405607 26.2848235,16.4035018 C26.2848235,19.2667279 25.2864853,21.715386 23.2909265,23.7506158 L23.2909265,23.7506158 Z" id="mag" fill="#417505"></path>
                    </g>
                </g>
            </g>
        </g>
    </g>
</svg>