<?xml version="1.0" encoding="UTF-8"?>
<svg width="21px" height="21px" viewBox="0 0 21 21" version="1.1" xmlns="http://www.w3.org/2000/svg" xmlns:xlink="http://www.w3.org/1999/xlink">
    <!-- Generator: Sketch 46.2 (44496) - http://www.bohemiancoding.com/sketch -->
    <title>sphere</title>
    <desc>Created with Sketch.</desc>
    <defs></defs>
    <g id="Stacks-Desktop" stroke="none" stroke-width="1" fill="none" fill-rule="evenodd">
        <g id="My-Collection-Full" transform="translate(-73.000000, -567.000000)" fill-rule="nonzero" fill="#000000">
            <g id="Collection-(Inbox)" transform="translate(50.000000, 242.000000)">
                <g id="Item-(Call-of-Cthulhu)-Copy" transform="translate(15.000000, 315.000000)">
                    <g id="sphere" transform="translate(8.000000, 10.000000)">
                        <path d="M10.5,0 C4.701025,0 0,4.701025 0,10.5 C0,16.298975 4.701025,21 10.5,21 C16.298975,21 21,16.298975 21,10.5 C21,4.701025 16.298975,0 10.5,0 Z M16.441075,14 C16.62885,13.115025 16.74715,12.1758 16.785825,11.2 L19.57375,11.2 C19.500775,12.166875 19.275725,13.105575 18.902625,14 L16.441075,14 Z M4.558925,7 C4.37115,7.884975 4.252675,8.8242 4.214175,9.8 L1.42625,9.8 C1.499225,8.8333 1.724275,7.894425 2.097375,7 L4.55875,7 L4.558925,7 Z M15.00695,7 C15.2173,7.896 15.343825,8.83435 15.38495,9.8 L11.199825,9.8 L11.199825,7 L15.006775,7 L15.00695,7 Z M11.2,5.6 L11.2,1.502025 C11.5192,1.59495 11.83525,1.7507 12.145525,1.96945 C12.72705,2.379475 13.283375,3.010875 13.754125,3.79575 C14.079625,4.33825 14.3612,4.94235 14.596225,5.6 L11.199825,5.6 L11.2,5.6 Z M7.2457,3.795575 C7.716625,3.0107 8.27295,2.379125 8.854475,1.969275 C9.16475,1.750525 9.480975,1.594775 9.800175,1.50185 L9.800175,5.6 L6.403775,5.6 C6.6388,4.94235 6.920375,4.33825 7.245875,3.79575 L7.2457,3.795575 Z M9.8,7 L9.8,9.8 L5.61505,9.8 C5.656175,8.83435 5.7827,7.896 5.99305,7 L9.800175,7 L9.8,7 Z M2.09755,14 C1.72445,13.105575 1.4994,12.166875 1.426425,11.2 L4.214175,11.2 C4.252675,12.1758 4.37115,13.115025 4.558925,14 L2.097375,14 L2.09755,14 Z M5.61505,11.2 L9.8,11.2 L9.8,14 L5.992875,14 C5.782525,13.104 5.656,12.16565 5.614875,11.2 L5.61505,11.2 Z M9.8,15.4 L9.8,19.49815 C9.4808,19.405225 9.16475,19.249475 8.8543,19.030725 C8.272775,18.6207 7.71645,17.9893 7.245525,17.204425 C6.920025,16.661925 6.63845,16.057825 6.403425,15.4 L9.799825,15.4 L9.8,15.4 Z M13.7543,17.204425 C13.283375,17.989125 12.72705,18.6207 12.1457,19.030725 C11.835425,19.249475 11.5192,19.4054 11.200175,19.49815 L11.200175,15.4 L14.596575,15.4 C14.36155,16.05765 14.079975,16.66175 13.754475,17.204425 L13.7543,17.204425 Z M11.2,14 L11.2,11.2 L15.38495,11.2 C15.343825,12.16565 15.2173,13.104 15.00695,14 L11.2,14 Z M16.78565,9.8 C16.74715,8.8242 16.628675,7.884975 16.4409,7 L18.90245,7 C19.27555,7.894425 19.5006,8.8333 19.573575,9.8 L16.78565,9.8 Z M18.1706,5.6 L16.072875,5.6 C15.665125,4.314625 15.10215,3.187275 14.42525,2.2876 C15.355725,2.732625 16.19835,3.3292 16.934575,4.065425 C17.40445,4.5353 17.81745,5.0484 18.1706,5.600175 L18.1706,5.6 Z M4.06525,4.06525 C4.801475,3.329025 5.644275,2.732275 6.574575,2.287425 C5.897675,3.187275 5.334875,4.31445 4.92695,5.599825 L2.829225,5.599825 C3.1822,5.048225 3.595375,4.53495 4.06525,4.065075 L4.06525,4.06525 Z M2.8294,15.4 L4.927125,15.4 C5.334875,16.685375 5.89785,17.812725 6.57475,18.712575 C5.644275,18.26755 4.80165,17.670975 4.065425,16.93475 C3.59555,16.464875 3.182375,15.951775 2.8294,15.4 L2.8294,15.4 Z M16.934575,16.934575 C16.19835,17.6708 15.35555,18.26755 14.42525,18.7124 C15.10215,17.81255 15.665125,16.6852 16.072875,15.399825 L18.1706,15.399825 C17.817625,15.951425 17.40445,16.4647 16.934575,16.9344 L16.934575,16.934575 Z" id="Shape"></path>
                    </g>
                </g>
            </g>
        </g>
    </g>
</svg>