<?xml version="1.0" encoding="UTF-8"?>
<svg width="103px" height="13px" viewBox="0 0 103 13" version="1.1" xmlns="http://www.w3.org/2000/svg" xmlns:xlink="http://www.w3.org/1999/xlink">
    <!-- Generator: Sketch 50.2 (55047) - http://www.bohemiancoding.com/sketch -->
    <title>logoByML-sm</title>
    <desc>Created with Sketch.</desc>
    <defs>
        <path d="M4.01953125,6.47265625 C4.86328547,6.47265625 5.51855235,6.76073931 5.98535156,7.33691406 C6.45215077,7.91308882 6.68554688,8.72851035 6.68554688,9.78320312 C6.68554688,10.8378959 6.45019767,11.6572236 5.97949219,12.2412109 C5.50878671,12.8251982 4.85547293,13.1171875 4.01953125,13.1171875 C3.60156041,13.1171875 3.21972829,13.0400398 2.87402344,12.8857422 C2.52831858,12.7314445 2.23828242,12.4941422 2.00390625,12.1738281 L1.93359375,12.1738281 L1.72851562,13 L1.03125,13 L1.03125,3.8828125 L2.00390625,3.8828125 L2.00390625,6.09765625 C2.00390625,6.59375248 1.98828141,7.03906053 1.95703125,7.43359375 L2.00390625,7.43359375 C2.45703352,6.79296555 3.1289018,6.47265625 4.01953125,6.47265625 Z M3.87890625,7.28710938 C3.21484043,7.28710938 2.73632959,7.47753716 2.44335938,7.85839844 C2.15038916,8.23925972 2.00390625,8.88085486 2.00390625,9.78320312 C2.00390625,10.6855514 2.15429537,11.3310527 2.45507812,11.7197266 C2.75586088,12.1084004 3.23827793,12.3027344 3.90234375,12.3027344 C4.50000299,12.3027344 4.94531104,12.0849631 5.23828125,11.6494141 C5.53125146,11.213865 5.67773438,10.5878947 5.67773438,9.77148438 C5.67773438,8.9355427 5.53125146,8.31250205 5.23828125,7.90234375 C4.94531104,7.49218545 4.49219057,7.28710938 3.87890625,7.28710938 Z M7.125,6.578125 L8.16796875,6.578125 L9.57421875,10.2402344 C9.88281404,11.0761761 10.0742184,11.6796856 10.1484375,12.0507812 L10.1953125,12.0507812 C10.246094,11.8515615 10.3525383,11.5107446 10.5146484,11.0283203 C10.6767586,10.545896 11.2070268,9.06251242 12.1054688,6.578125 L13.1484375,6.578125 L10.3886719,13.890625 C10.115233,14.6132849 9.79590026,15.125975 9.43066406,15.4287109 C9.06542786,15.7314468 8.61719016,15.8828125 8.0859375,15.8828125 C7.78906102,15.8828125 7.4960952,15.8496097 7.20703125,15.7832031 L7.20703125,15.0039062 C7.42187607,15.0507815 7.66210805,15.0742188 7.92773438,15.0742188 C8.59570646,15.0742188 9.0722642,14.6992225 9.35742188,13.9492188 L9.71484375,13.0351562 L7.125,6.578125 Z M21.2460938,13 L18.3398438,5.40625 L18.2929688,5.40625 C18.3476565,6.00781551 18.375,6.72265211 18.375,7.55078125 L18.375,13 L17.4550781,13 L17.4550781,4.43359375 L18.9550781,4.43359375 L21.6679688,11.5 L21.7148438,11.5 L24.4511719,4.43359375 L25.9394531,4.43359375 L25.9394531,13 L24.9433594,13 L24.9433594,7.48046875 C24.9433594,6.84765309 24.9707029,6.16015996 25.0253906,5.41796875 L24.9785156,5.41796875 L22.0488281,13 L21.2460938,13 Z M29.0566406,6.578125 L29.0566406,10.7441406 C29.0566406,11.2675807 29.1757801,11.6582018 29.4140625,11.9160156 C29.6523449,12.1738294 30.0253881,12.3027344 30.5332031,12.3027344 C31.2050815,12.3027344 31.6962875,12.1191425 32.0068359,11.7519531 C32.3173844,11.3847638 32.4726562,10.7851604 32.4726562,9.953125 L32.4726562,6.578125 L33.4453125,6.578125 L33.4453125,13 L32.6425781,13 L32.5019531,12.1386719 L32.4492188,12.1386719 C32.249999,12.4550797 31.9736346,12.6972648 31.6201172,12.8652344 C31.2665998,13.033204 30.8632835,13.1171875 30.4101562,13.1171875 C29.6289023,13.1171875 29.0439473,12.9316425 28.6552734,12.5605469 C28.2665996,12.1894513 28.0722656,11.5957072 28.0722656,10.7792969 L28.0722656,6.578125 L29.0566406,6.578125 Z M39.9023438,13 L39.9023438,8.84570312 C39.9023438,8.32226301 39.7832043,7.93164191 39.5449219,7.67382812 C39.3066394,7.41601434 38.9335963,7.28710938 38.4257812,7.28710938 C37.7539029,7.28710938 37.2617203,7.46874818 36.9492188,7.83203125 C36.6367172,8.19531432 36.4804688,8.7949177 36.4804688,9.63085938 L36.4804688,13 L35.5078125,13 L35.5078125,6.578125 L36.2988281,6.578125 L36.4570312,7.45703125 L36.5039062,7.45703125 C36.703126,7.14062342 36.9824201,6.89550868 37.3417969,6.72167969 C37.7011737,6.54785069 38.1015603,6.4609375 38.5429688,6.4609375 C39.3164101,6.4609375 39.8984355,6.64745907 40.2890625,7.02050781 C40.6796895,7.39355655 40.875,7.99023027 40.875,8.81054688 L40.875,13 L39.9023438,13 Z M47.2441406,12.1386719 L47.1914062,12.1386719 C46.7421853,12.7910189 46.070317,13.1171875 45.1757812,13.1171875 C44.3359333,13.1171875 43.6826195,12.830081 43.2158203,12.2558594 C42.7490211,11.6816378 42.515625,10.8652397 42.515625,9.80664062 C42.515625,8.74804158 42.7499977,7.92578418 43.21875,7.33984375 C43.6875023,6.75390332 44.3398396,6.4609375 45.1757812,6.4609375 C46.0468794,6.4609375 46.7148414,6.77734059 47.1796875,7.41015625 L47.2558594,7.41015625 L47.2148438,6.94726562 L47.1914062,6.49609375 L47.1914062,3.8828125 L48.1640625,3.8828125 L48.1640625,13 L47.3730469,13 L47.2441406,12.1386719 Z M45.2988281,12.3027344 C45.9628939,12.3027344 46.4443344,12.1220721 46.7431641,11.7607422 C47.0419937,11.3994123 47.1914062,10.8164103 47.1914062,10.0117188 L47.1914062,9.80664062 C47.1914062,8.89647982 47.0400406,8.24707226 46.7373047,7.85839844 C46.4345688,7.46972462 45.9511752,7.27539062 45.2871094,7.27539062 C44.716794,7.27539062 44.280275,7.4970681 43.9775391,7.94042969 C43.6748032,8.38379128 43.5234375,9.00976158 43.5234375,9.81835938 C43.5234375,10.638676 43.6738266,11.2578104 43.9746094,11.6757812 C44.2753921,12.0937521 44.716794,12.3027344 45.2988281,12.3027344 Z M54.1757812,13 L53.9824219,12.0859375 L53.9355469,12.0859375 C53.6152328,12.4882833 53.2959,12.7607415 52.9775391,12.9033203 C52.6591781,13.0458992 52.2617211,13.1171875 51.7851562,13.1171875 C51.1484343,13.1171875 50.6494159,12.9531266 50.2880859,12.625 C49.926756,12.2968734 49.7460938,11.8300812 49.7460938,11.2246094 C49.7460938,9.92772789 50.7831928,9.24804719 52.8574219,9.18554688 L53.9472656,9.15039062 L53.9472656,8.75195312 C53.9472656,8.24804436 53.8388683,7.87597776 53.6220703,7.63574219 C53.4052724,7.39550661 53.0585961,7.27539062 52.5820312,7.27539062 C52.0468723,7.27539062 51.4414096,7.43945148 50.765625,7.76757812 L50.4667969,7.0234375 C50.7832047,6.85156164 51.1298809,6.71679736 51.5068359,6.61914062 C51.8837909,6.52148389 52.2617169,6.47265625 52.640625,6.47265625 C53.4062538,6.47265625 53.973631,6.64257643 54.3427734,6.98242188 C54.7119159,7.32226732 54.8964844,7.86718375 54.8964844,8.6171875 L54.8964844,13 L54.1757812,13 Z M51.9785156,12.3144531 C52.5839874,12.3144531 53.0595686,12.1484392 53.4052734,11.8164062 C53.7509783,11.4843733 53.9238281,11.0195342 53.9238281,10.421875 L53.9238281,9.84179688 L52.9511719,9.8828125 C52.1777305,9.91015639 51.6201189,10.0302724 51.2783203,10.2431641 C50.9365217,10.4560558 50.765625,10.7871071 50.765625,11.2363281 C50.765625,11.5878924 50.8720692,11.8554678 51.0849609,12.0390625 C51.2978526,12.2226572 51.5957012,12.3144531 51.9785156,12.3144531 Z M55.8808594,6.578125 L56.9238281,6.578125 L58.3300781,10.2402344 C58.6386734,11.0761761 58.8300778,11.6796856 58.9042969,12.0507812 L58.9511719,12.0507812 C59.0019534,11.8515615 59.1083976,11.5107446 59.2705078,11.0283203 C59.432618,10.545896 59.9628861,9.06251242 60.8613281,6.578125 L61.9042969,6.578125 L59.1445312,13.890625 C58.8710924,14.6132849 58.5517596,15.125975 58.1865234,15.4287109 C57.8212872,15.7314468 57.3730495,15.8828125 56.8417969,15.8828125 C56.5449204,15.8828125 56.2519546,15.8496097 55.9628906,15.7832031 L55.9628906,15.0039062 C56.1777354,15.0507815 56.4179674,15.0742188 56.6835938,15.0742188 C57.3515658,15.0742188 57.8281236,14.6992225 58.1132812,13.9492188 L58.4707031,13.0351562 L55.8808594,6.578125 Z M66.2109375,13 L66.2109375,4.43359375 L67.2070312,4.43359375 L67.2070312,12.0976562 L70.9863281,12.0976562 L70.9863281,13 L66.2109375,13 Z M73.265625,13 L72.2929688,13 L72.2929688,6.578125 L73.265625,6.578125 L73.265625,13 Z M72.2109375,4.83789062 C72.2109375,4.61523326 72.2656245,4.45214896 72.375,4.34863281 C72.4843755,4.24511667 72.6210929,4.19335938 72.7851562,4.19335938 C72.941407,4.19335938 73.0761713,4.24609322 73.1894531,4.3515625 C73.3027349,4.45703178 73.359375,4.61913953 73.359375,4.83789062 C73.359375,5.05664172 73.3027349,5.21972603 73.1894531,5.32714844 C73.0761713,5.43457085 72.941407,5.48828125 72.7851562,5.48828125 C72.6210929,5.48828125 72.4843755,5.43457085 72.375,5.32714844 C72.2656245,5.21972603 72.2109375,5.05664172 72.2109375,4.83789062 Z M78.3164062,6.47265625 C79.1601605,6.47265625 79.8154274,6.76073931 80.2822266,7.33691406 C80.7490258,7.91308882 80.9824219,8.72851035 80.9824219,9.78320312 C80.9824219,10.8378959 80.7470727,11.6572236 80.2763672,12.2412109 C79.8056617,12.8251982 79.1523479,13.1171875 78.3164062,13.1171875 C77.8984354,13.1171875 77.5166033,13.0400398 77.1708984,12.8857422 C76.8251936,12.7314445 76.5351574,12.4941422 76.3007812,12.1738281 L76.2304688,12.1738281 L76.0253906,13 L75.328125,13 L75.328125,3.8828125 L76.3007812,3.8828125 L76.3007812,6.09765625 C76.3007812,6.59375248 76.2851564,7.03906053 76.2539062,7.43359375 L76.3007812,7.43359375 C76.7539085,6.79296555 77.4257768,6.47265625 78.3164062,6.47265625 Z M78.1757812,7.28710938 C77.5117154,7.28710938 77.0332046,7.47753716 76.7402344,7.85839844 C76.4472642,8.23925972 76.3007812,8.88085486 76.3007812,9.78320312 C76.3007812,10.6855514 76.4511704,11.3310527 76.7519531,11.7197266 C77.0527359,12.1084004 77.5351529,12.3027344 78.1992188,12.3027344 C78.796878,12.3027344 79.242186,12.0849631 79.5351562,11.6494141 C79.8281265,11.213865 79.9746094,10.5878947 79.9746094,9.77148438 C79.9746094,8.9355427 79.8281265,8.31250205 79.5351562,7.90234375 C79.242186,7.49218545 78.7890656,7.28710938 78.1757812,7.28710938 Z M85.6113281,6.4609375 C85.8964858,6.4609375 86.1523426,6.48437477 86.3789062,6.53125 L86.2441406,7.43359375 C85.9785143,7.37499971 85.7441416,7.34570312 85.5410156,7.34570312 C85.0214818,7.34570312 84.5771503,7.55663852 84.2080078,7.97851562 C83.8388653,8.40039273 83.6542969,8.92577811 83.6542969,9.5546875 L83.6542969,13 L82.6816406,13 L82.6816406,6.578125 L83.484375,6.578125 L83.5957031,7.76757812 L83.6425781,7.76757812 C83.8808606,7.34960729 84.1679671,7.02734488 84.5039062,6.80078125 C84.8398454,6.57421762 85.2089824,6.4609375 85.6113281,6.4609375 Z M91.2890625,13 L91.0957031,12.0859375 L91.0488281,12.0859375 C90.728514,12.4882833 90.4091813,12.7607415 90.0908203,12.9033203 C89.7724593,13.0458992 89.3750024,13.1171875 88.8984375,13.1171875 C88.2617156,13.1171875 87.7626971,12.9531266 87.4013672,12.625 C87.0400373,12.2968734 86.859375,11.8300812 86.859375,11.2246094 C86.859375,9.92772789 87.896474,9.24804719 89.9707031,9.18554688 L91.0605469,9.15039062 L91.0605469,8.75195312 C91.0605469,8.24804436 90.9521495,7.87597776 90.7353516,7.63574219 C90.5185536,7.39550661 90.1718774,7.27539062 89.6953125,7.27539062 C89.1601536,7.27539062 88.5546909,7.43945148 87.8789062,7.76757812 L87.5800781,7.0234375 C87.896486,6.85156164 88.2431622,6.71679736 88.6201172,6.61914062 C88.9970722,6.52148389 89.3749981,6.47265625 89.7539062,6.47265625 C90.5195351,6.47265625 91.0869122,6.64257643 91.4560547,6.98242188 C91.8251972,7.32226732 92.0097656,7.86718375 92.0097656,8.6171875 L92.0097656,13 L91.2890625,13 Z M89.0917969,12.3144531 C89.6972687,12.3144531 90.1728498,12.1484392 90.5185547,11.8164062 C90.8642595,11.4843733 91.0371094,11.0195342 91.0371094,10.421875 L91.0371094,9.84179688 L90.0644531,9.8828125 C89.2910118,9.91015639 88.7334001,10.0302724 88.3916016,10.2431641 C88.049803,10.4560558 87.8789062,10.7871071 87.8789062,11.2363281 C87.8789062,11.5878924 87.9853505,11.8554678 88.1982422,12.0390625 C88.4111339,12.2226572 88.7089825,12.3144531 89.0917969,12.3144531 Z M96.9433594,6.4609375 C97.2285171,6.4609375 97.4843739,6.48437477 97.7109375,6.53125 L97.5761719,7.43359375 C97.3105455,7.37499971 97.0761729,7.34570312 96.8730469,7.34570312 C96.353513,7.34570312 95.9091815,7.55663852 95.5400391,7.97851562 C95.1708966,8.40039273 94.9863281,8.92577811 94.9863281,9.5546875 L94.9863281,13 L94.0136719,13 L94.0136719,6.578125 L94.8164062,6.578125 L94.9277344,7.76757812 L94.9746094,7.76757812 C95.2128918,7.34960729 95.4999983,7.02734488 95.8359375,6.80078125 C96.1718767,6.57421762 96.5410136,6.4609375 96.9433594,6.4609375 Z M97.8925781,6.578125 L98.9355469,6.578125 L100.341797,10.2402344 C100.650392,11.0761761 100.841797,11.6796856 100.916016,12.0507812 L100.962891,12.0507812 C101.013672,11.8515615 101.120116,11.5107446 101.282227,11.0283203 C101.444337,10.545896 101.974605,9.06251242 102.873047,6.578125 L103.916016,6.578125 L101.15625,13.890625 C100.882811,14.6132849 100.563478,15.125975 100.198242,15.4287109 C99.833006,15.7314468 99.3847683,15.8828125 98.8535156,15.8828125 C98.5566391,15.8828125 98.2636733,15.8496097 97.9746094,15.7832031 L97.9746094,15.0039062 C98.1894542,15.0507815 98.4296862,15.0742188 98.6953125,15.0742188 C99.3632846,15.0742188 99.8398423,14.6992225 100.125,13.9492188 L100.482422,13.0351562 L97.8925781,6.578125 Z" id="path-1"></path>
    </defs>
    <g id="Page-1" stroke="none" stroke-width="1" fill="none" fill-rule="evenodd">
        <g id="logoByML-sm" transform="translate(-1.000000, -3.000000)">
            <g id="by-Munday-Library">
                <use fill="#000000" xlink:href="#path-1"></use>
                <use fill="#8AAEBA" xlink:href="#path-1"></use>
            </g>
        </g>
    </g>
</svg>