<?xml version="1.0" encoding="UTF-8"?>
<svg width="139px" height="98px" viewBox="0 0 139 98" version="1.1" xmlns="http://www.w3.org/2000/svg" xmlns:xlink="http://www.w3.org/1999/xlink">
    <!-- Generator: Sketch 50.2 (55047) - http://www.bohemiancoding.com/sketch -->
    <title>tree2000</title>
    <desc>Created with Sketch.</desc>
    <defs>
        <radialGradient cx="50%" cy="100%" fx="50%" fy="100%" r="100%" gradientTransform="translate(0.500000,1.000000),scale(0.705036,1.000000),rotate(90.000000),translate(-0.500000,-1.000000)" id="radialGradient-1">
            <stop stop-color="#94CA31" offset="0%"></stop>
            <stop stop-color="#5B9412" offset="100%"></stop>
        </radialGradient>
    </defs>
    <g id="Page-12" stroke="none" stroke-width="1" fill="none" fill-rule="evenodd">
        <g id="Title-Bar-Copy-3" transform="translate(-24.000000, -1.000000)" fill-rule="nonzero">
            <g id="tree2000" transform="translate(24.000000, 1.000000)">
                <path d="M138.658589,39.4030339 C138.522024,38.8580069 138.495305,38.2685484 138.269677,37.7649909 C137.91639,36.9770715 137.931234,36.3105983 138.741715,35.5582242 C136.924813,34.4948292 136.307304,32.5961212 135.271194,31.0054719 C134.834782,30.3271503 133.991644,29.9243043 133.418667,29.3170732 C133.142569,29.0208629 133.059442,28.5439643 132.881315,28.132232 C132.403339,28.4639875 133.095068,29.6132835 132.044115,29.2193238 C131.646296,29.0712186 131.450356,28.3840108 131.153476,27.9426574 L131.527545,27.6257124 L130.230181,27.1103065 C129.838562,27.2408849 129.431191,27.3185892 129.018913,27.3413505 C128.722034,27.3206158 128.425154,27.0451402 127.988742,26.8289067 L127.988742,25.9847073 L128.202495,25.9847073 L128.267808,26.7726267 L129.010007,25.5670508 L130.23315,27.1043823 L129.977834,26.1653956 C130.473623,26.5919384 130.743783,26.9385045 131.094101,27.0777233 C131.385457,27.1009497 131.667514,26.9692446 131.836299,26.7311573 C131.934269,26.3371976 131.993645,25.7210802 131.770986,25.5048466 C131.041622,24.762384 130.206282,24.1315518 129.292042,23.6327976 C128.947662,23.4580335 128.270777,23.9467805 127.688893,24.1511656 L124.179779,22.3442828 C124.259474,22.0750305 124.299477,21.7956405 124.29853,21.5148939 C124.260419,21.208331 124.13816,20.9182337 123.945244,20.6766188 C123.5118,20.107895 123.030855,19.5747165 122.54991,19.0030306 L121.766149,19.4088387 L119.869089,18.8608496 L119.245642,17.9722188 L118.919075,18.179566 L119.480177,19.2785062 L118.589539,19.6695038 L118.260003,18.7986455 L115.977,18.2358459 C116.273879,17.6848948 115.819654,17.347215 115.347615,17.6019559 C114.397601,18.1173618 113.747435,18.2891638 113.236802,17.0835879 C113.106176,16.7873776 112.521323,16.6718555 112.168037,16.4378494 C111.984329,16.2604814 111.822837,16.0615583 111.687092,15.8454288 L113.468368,14.9775326 C113.073519,14.6813223 112.654919,14.2251585 112.040378,14.8945937 C111.936471,15.0101158 111.473339,14.8945937 111.244741,14.7790717 C110.949418,14.5793254 110.585922,14.5066422 110.23626,14.5774199 C109.886599,14.6481977 109.580232,14.8564736 109.386276,15.1552588 C109.249712,15.332985 108.88455,15.3566818 108.617358,15.4159239 C108.04735,15.5373701 107.471404,15.6351195 106.925146,15.792111 L104.306669,15.9787234 C104.493615,15.6170271 104.629489,15.2312561 104.710425,14.8323896 C104.710425,14.728716 104.116666,14.556914 104.069165,14.5361793 L102.946961,14.8323896 C102.816334,14.3051353 101.863351,13.9437587 101.233967,13.5853442 C100.292835,13.0589635 99.3235615,12.5843186 98.330486,12.1635348 C97.9089172,11.9858086 97.3389087,12.1368759 96.9470278,11.9295287 C96.3948321,11.6333184 95.9465441,11.1475335 95.4626306,10.7446875 L94.2097994,11.710333 L94.2929257,10.5254918 C93.8565129,10.0574796 93.5685398,9.54799786 93.1380646,9.34065065 C92.5443058,9.04444035 91.8436703,8.98816039 91.0302206,8.78673739 C91.2261611,9.1955076 91.4488207,9.49764211 91.3894448,9.57465678 C91.1986569,9.78088577 90.9685336,9.94704705 90.7125596,10.0634038 C90.0713001,9.28437069 89.9347355,10.2529784 89.5695738,10.3773867 C89.7744206,10.7209906 89.985205,11.0586704 90.1781767,11.4081985 C90.2417416,11.5754052 90.29042,11.7478738 90.3236476,11.9236045 L89.4775412,11.4555922 L88.628466,12.7915006 L88.5334646,12.3827304 L86.2949936,12.7885385 L84.6295,13.4757464 L84.9263794,14.441392 L83.5191709,15.1641451 L82.4385298,14.8116549 L84.6295,11.710333 L84.7927837,12.8122353 C85.1995085,12.5397219 85.3865426,11.6096215 86.1138972,12.2938673 L85.5854518,11.2630555 L85.4726376,10.9875799 C84.4573099,11.423009 83.4390135,11.8584382 82.4236858,12.2968294 C82.3375907,12.3353368 82.2158702,12.4093893 82.203995,12.4834419 C82.016961,13.6060789 81.2599184,13.9052514 80.2386531,13.9644934 C79.7725524,13.9941144 79.3242645,14.2607037 78.825507,14.4473162 C78.7839439,12.9929236 77.1956389,13.2180435 76.2901566,12.6493197 C75.1887339,11.9561876 73.6182417,12.0568991 73.0422956,10.9490726 C73.2501112,10.4899466 73.5766786,10.1226458 73.5143339,9.84124605 C73.3183935,8.95261516 72.8136984,8.11434001 72.7394786,7.22867122 C72.6771339,6.50295599 72.6058828,5.88091436 72.0804062,5.36550844 C71.6618062,4.95673823 71.2105495,4.58055115 70.8216374,4.14808411 C70.5955392,3.83701617 70.3968767,3.50698878 70.2278785,3.16170382 L69.9517807,3.84594961 C68.9780161,2.20790666 67.1878331,1.66880391 65.5401522,1.18005692 C63.8449706,0.706120442 61.9538486,0.531356366 60.4219507,2.22271717 L60.2260103,1.36963151 C59.4745686,0.93611194 58.7017013,0.540663054 57.9103507,0.184790316 C57.4287897,0.0439481493 56.9273277,-0.0170923266 56.4259535,0.0041020341 C56.3800899,0.172857116 56.3492921,0.345332543 56.3339209,0.519507954 L53.7124755,1.20079164 L53.949979,1.86726481 L53.0593407,2.44191279 L53.6827875,3.17059013 L54.4457677,2.09830885 L54.6535833,2.19309614 C54.5145756,2.62152131 54.4152005,3.06175247 54.3567039,3.50826987 C54.3567039,3.74523811 54.7040528,4.00886527 54.6773336,4.2339851 C54.6288201,4.66733188 54.4859522,5.08486001 54.2587336,5.45733363 C53.9618542,5.94015642 53.4274712,6.3193056 53.6649748,6.99170298 L54.8109294,6.18008676 L55.1701535,6.45260024 C54.4368613,6.49406968 54.2617024,6.70437899 54.6921776,7.00651349 C54.0984187,7.4123216 53.5046599,7.77369817 52.9940272,8.21208941 C52.7179294,8.44313344 52.6971478,8.50829971 52.3319861,8.29206619 L52.0944825,6.40816869 L52.4448003,6.40816869 L52.4448003,7.47452577 L53.1721549,7.17831547 C52.9494953,5.77131655 52.3379237,5.06929814 51.5125988,5.44252312 L51.7916655,4.87676145 L51.5897875,4.67237634 L50.7199308,5.56100724 L49.5799137,4.21917458 L49.4552244,4.64867952 L46.9851874,5.25887273 C47.092064,5.35958423 47.1395647,5.4277126 47.2019094,5.45733363 C47.3199527,5.49766511 47.441081,5.52837425 47.5641023,5.54915883 L46.9436243,6.3133814 L46.8456541,6.04975423 C46.5131491,6.10899629 46.1806442,6.17416256 45.8451704,6.22451831 C45.6514046,6.27395481 45.4507603,6.29097114 45.2514115,6.27487406 C44.4468683,6.11195839 43.8738909,6.34300243 43.5532612,7.13092182 C43.4998229,7.26421645 43.3009136,7.34123113 43.107942,7.49229838 C43.5027917,8.5023755 42.0926143,8.31280091 41.866986,9.00000881 L41.4246356,8.70379851 L42.9090328,7.6107825 C42.0510512,6.42594131 40.8071264,6.74584843 39.4444498,6.40520659 L41.0119732,8.68602589 L38.9338171,9.76423138 L38.0164597,11.3696912 C37.6839547,11.307487 37.4227008,11.2719418 37.188166,11.2126997 C36.9536313,11.1534577 36.6478455,10.960921 36.4756554,11.0408978 C36.3034653,11.1208745 36.3183093,11.5681521 36.1431504,11.6718257 C35.9679916,11.7754993 35.6117362,11.7192193 35.2525121,11.7310678 L35.1070412,12.4478967 L34.8754752,12.4952903 L34.6795348,11.9443392 L32.7260681,12.0687475 L32.7023178,11.7725372 L33.2248256,11.6185078 C33.1032842,11.4813859 32.959833,11.3652821 32.800288,11.2749039 C32.4914485,11.1809013 32.177166,11.1057227 31.8591802,11.0497841 L32.1560596,11.4289333 L31.5058936,13.9941144 C31.7287494,13.8659259 31.9621496,13.756921 32.2035603,13.6682831 C32.3527823,13.6202146 32.5150034,13.6329926 32.654817,13.7038283 C32.7440385,13.8280579 32.7734007,13.9853884 32.7349745,14.1333333 C32.6251291,14.6013456 32.4796582,15.0604715 32.337156,15.5521806 C32.1026213,15.3596439 32.2302794,14.154068 31.2535461,15.1137894 C31.1437007,13.8400851 30.5083787,14.4798993 30.0036837,14.6250424 C30.0511844,15.6084606 30.1758737,16.6096514 29.306017,17.3738739 L29.6296156,16.6363103 L28.3708468,15.9905719 L28.2342822,16.1890328 L28.655851,16.6777797 L26.577695,15.3833407 L26.6222269,16.7044387 L25.5979928,16.8021881 L25.4733035,16.2453127 L25.2476751,16.2156917 L24.6004779,18.8401149 L24.3035985,18.9378643 L25.1942368,19.4888155 C24.9982964,19.6132238 24.8142311,19.8235331 24.6004779,19.8442678 C24.3128798,19.8513525 24.0438493,19.702983 23.8968737,19.4562323 L22.4896651,19.7850258 L22.6084169,18.46689 L23.6237446,16.9058617 C22.2224736,16.4111905 21.6376212,16.7903397 21.4802751,18.0729303 C21.4327743,18.4609657 20.9963616,18.8016076 20.7321389,19.1629842 L20.4352594,19.1067042 L20.0344722,17.6256527 L18.8885176,17.4686612 L19.6752481,18.3098985 L18.7400779,18.4698521 C18.2947587,17.7885684 18.116631,17.1606025 19.2091474,16.8703164 L18.3125715,15.8128457 C17.9117842,16.224578 17.5406849,16.6333482 16.7331729,16.2393885 C15.9969119,15.880974 15.8425346,17.03027 15.2487757,17.2228067 C15.0943984,17.2702003 15.0053345,17.519017 14.883614,17.6730464 L15.4536225,18.0788545 L14.2957927,19.8353815 C15.3773768,19.9778402 16.475259,19.746843 17.4070892,19.1807568 C17.6269211,19.0492031 17.8815609,18.9872359 18.1374126,19.0030306 C18.6777332,19.0326516 19.2150849,19.1363252 19.7524367,19.2103778 L19.906814,18.9141675 C20.0353139,19.3089652 20.1920739,19.6940424 20.3758835,20.0664256 C20.4768226,20.2441517 20.7232325,20.3359769 20.9132353,20.4633474 C21.3823048,21.4763866 21.2605843,22.3057754 20.6163559,22.9989075 L21.3912112,22.9218928 C21.3684316,23.0913753 21.3857155,23.2638247 21.4416807,23.4254504 C21.5069942,23.558745 21.7593417,23.6002144 21.9315318,23.6831533 L21.81278,23.9349321 C21.610902,23.8727279 21.4119928,23.7986753 21.2190211,23.7542438 C20.9458921,23.6950017 20.5629176,23.529124 20.4174467,23.6476081 C20.2184596,23.8603709 20.1452902,24.1613738 20.224475,24.4414517 C20.7796396,25.2738026 20.1561928,25.7832843 19.7405616,26.4616059 L18.3036651,25.2501058 C18.5678878,24.8916913 18.8142977,24.5155043 19.1141459,24.1867108 C19.2299289,24.0563783 19.4674325,24.0326815 19.7583743,23.9171594 L19.2952424,22.610872 L19.8890013,22.1043524 C18.6094509,22.0895419 17.3595885,22.1843292 16.1512892,22.0095651 C15.5872182,21.9295883 15.100336,21.3223572 14.5154835,20.9076628 L12.6243615,21.4615761 L13.1557756,22.4835016 L10.6115189,21.4112203 L10.5313614,22.5279331 C9.59619121,22.6079099 9.22509191,23.2032926 9.37946922,24.2074455 C9.50712737,25.0457207 8.73820963,25.860299 9.29931177,26.7163468 C9.44775149,26.9444287 9.59619121,27.1784348 9.72978695,27.4065168 L9.98213447,27.296919 L9.78619405,28.3988213 L9.87228908,28.4936086 C10.7866777,29.4177847 12.2324806,28.3514276 13.164682,29.3555805 C13.2626522,29.4622162 13.8356296,29.1274986 14.3997005,28.9231135 C14.6632453,29.241066 14.8847498,29.5914887 15.0587728,29.9657737 C15.0943984,30.060561 14.5243899,30.3804682 14.1354778,30.6677922 L14.7618934,31.2157812 L14.465014,32.0214732 L15.6347189,31.4705221 L15.7000324,31.008434 C16.5906707,31.8970649 16.9291133,30.5522701 17.7069374,30.4752555 C17.6891246,29.6458666 18.1047559,29.0208629 19.0636764,28.7246526 C19.3100864,28.6476379 19.4585261,28.1766635 19.603997,27.8626806 C19.6832139,27.5670969 19.8388196,27.2974434 20.0552538,27.0806854 L20.5005729,28.0226342 L23.1724878,27.3117295 L23.7246836,28.2240572 L22.8756084,28.5735853 L22.9706098,28.8401746 L24.2887545,28.478798 L24.4461006,29.799896 L23.0507673,29.885797 L23.6623389,31.1002592 L23.3832722,31.2365159 L23.0477985,30.6440953 C22.750919,31.0972971 22.5163843,31.5001431 22.2343488,31.8585576 C22.1245034,31.9977764 21.8513743,32.1547679 21.726685,32.1073742 C20.8835474,31.7815429 20.0582225,31.4053558 19.1794594,31.0232445 C19.3546183,32.4213571 19.1794594,33.5825015 17.8939715,34.2815578 C17.8227204,34.3200651 17.7395941,34.4681703 17.7633445,34.5274123 C18.0750679,35.3301423 17.3358381,35.9758807 17.4367771,36.7667622 C17.4783402,37.107404 17.2408367,37.4865532 17.1191161,37.8479298 L16.0265998,37.9160582 C15.9672239,37.5724542 15.7950338,37.2258882 15.8811289,36.9533747 C16.0503502,36.4083477 15.9256608,35.8781313 15.4358097,35.8781313 C15.0587728,35.8781313 14.6787672,36.4142719 14.3076679,36.7223307 C14.1057898,36.8882084 13.9128182,37.0688967 13.713909,37.2436608 L13.7435969,37.2170019 L14.2661047,38.0049213 L13.0103047,37.9901107 L12.0959161,39.5392906 L11.8138806,39.4504275 L11.8791941,38.600304 L9.96135291,39.5985327 L9.69119263,39.3586023 L10.5462054,37.0570483 L11.2973104,37.3739933 L10.7035515,36.3698404 C9.94057135,36.9444884 9.19837276,37.6465068 8.16226353,36.5831118 L7.23303089,38.8106133 L6.34239258,39.7377515 L7.14099827,40.211688 L7.09646635,40.4605046 L6.018794,40.6500792 C6.04551314,41.0588494 6.10488903,41.4794681 6.09598265,41.8941625 C6.07168124,42.227836 6.0240648,42.5594101 5.95348052,42.886467 L5.0153415,42.6761577 C4.59933274,42.8271162 4.17262296,42.9469197 3.73875992,43.0345721 C2.92234147,43.1323215 2.69374431,43.5144328 3.05890601,44.2342238 L2.221706,44.4237984 L2.18608047,44.1601713 L0.0129229947,44.4178742 C-0.147391901,45.6027154 1.22715989,45.0665748 1.73779252,45.6027154 L1.48841379,45.1939452 C2.28405068,44.9806738 3.04999963,44.7733266 3.82188617,44.5719036 C3.88714946,44.5539655 3.95693486,44.5636064 4.0148578,44.5985625 C4.54924078,45.0547264 5.08065498,45.5168144 5.74863371,46.0973866 C6.29489187,45.9700162 6.51458265,45.359823 6.44926918,44.5896762 C6.40104777,44.3191065 6.47722615,44.0412371 6.656761,43.832826 C6.83629584,43.6244149 7.10018523,43.5075203 7.37553302,43.5144328 C8.41757984,43.5144328 8.62836424,42.9368227 8.68180254,42.110396 C8.72988415,41.8101646 8.79731669,41.5133387 8.88368056,41.2217651 L9.08852737,42.9101638 L10.1097926,41.9030488 C10.4452664,42.4628862 10.4749543,43.0138374 9.83072596,43.5233191 C9.64666071,43.6684622 9.62291036,44.0179903 9.4418139,44.4919268 L11.4071558,42.3947579 C11.2880161,41.9763081 11.1948175,41.5509349 11.1280891,41.1210536 C11.1013699,40.8929717 11.2498097,40.4397699 11.3418423,40.4338457 C12.125604,40.3894142 12.9153033,40.4338457 13.7168778,40.4338457 L14.0137572,40.730056 L14.1592281,39.1394067 L14.551109,39.6962821 C15.2992452,39.4741243 16.0355062,38.9853773 16.5105133,39.1808761 C17.077553,39.4208065 17.4011516,40.2294606 17.9414722,40.9403653 L16.6559842,41.0884705 C16.8697374,41.3580218 17.2141175,41.70755 17.1725544,41.7608678 C16.9304198,42.0449042 16.6412164,42.2853638 16.3175416,42.4717726 C16.2433218,42.5191662 15.9880055,42.3947579 15.9019104,42.282198 C15.8158154,42.1696381 15.8633161,41.9859877 15.8484721,41.8408446 L16.3650424,41.8408446 L16.4392622,41.5801796 C16.1986327,41.487173 15.9473129,41.4244846 15.691126,41.3935671 C15.0617416,41.3935671 14.7767374,41.7134742 14.9370523,42.3829095 L15.3853402,42.0866992 L15.6317502,42.2733117 C14.6045473,43.3248582 13.3487473,44.2134891 13.1142125,45.6412228 C12.7074877,45.4723829 12.3779515,45.2146799 12.2235742,45.2916946 C11.0360565,45.9018878 11.0360565,45.9226225 10.3383898,44.8118339 L6.97474578,46.5890957 C7.04005926,46.7283145 7.16474862,46.9682449 7.27162522,47.2140994 C7.39334579,47.5103097 7.48834721,47.80652 7.61897416,48.1027303 C7.67538125,48.2271387 7.82678976,48.3100775 7.87132168,48.4344859 C7.93663516,48.6270226 8.04054296,48.8906497 7.9633543,49.0269065 C7.71937037,49.3558618 7.44396036,49.6604116 7.14099827,49.9362721 C7.03709046,51.7638896 7.03709046,51.7638896 7.95741672,52.5044154 L6.66005358,52.3059545 L6.56802095,52.5399606 L8.14148197,53.1945854 L9.03212028,51.8112833 L9.57540965,50.4339054 L9.82478837,50.5227685 L9.65556709,51.1003786 L11.3062168,50.5612758 L11.4219997,50.7775093 L10.7035515,51.3018016 L11.5615331,52.3444618 C11.9445075,51.5506182 12.4135771,51.4558309 13.396248,51.9741989 C13.1735884,53.5559619 11.9118508,54.0950647 10.5907373,54.7200684 C10.749182,54.8912979 10.9322839,55.0380483 11.1340267,55.1554975 C11.3982494,55.256209 11.8524749,55.4072763 11.9593515,55.2917543 C12.5046588,54.7372253 12.9720521,54.111453 13.3487473,53.4315536 C13.7829027,52.443906 14.1654018,51.4344464 14.4947019,50.4072465 L14.4590764,53.4700609 L14.8301757,53.5381893 C14.565953,51.7994349 15.5011232,50.8041683 16.8341119,50.0547562 L16.6411402,49.645986 C17.7455317,49.5156535 17.8049076,49.3675483 17.1102097,48.3782059 L18.7935161,49.0032096 L19.4585261,48.2241766 C19.9899403,48.5914773 18.6569516,49.2816473 19.8533757,49.3527378 L20.0819729,48.8077108 C20.1621304,48.5944394 20.3640084,48.3367365 20.3016637,48.1767829 C19.9691587,47.3236972 20.687607,47.258531 21.2279275,47.0156385 L21.0468311,47.5517792 L21.9166878,47.3029625 C21.7771545,48.2478734 23.5346808,48.7129235 22.3946637,49.8888784 C22.8073261,50.0073626 23.2229573,50.019211 23.4812425,50.2235961 C24.2768793,50.8485998 23.7306212,51.5832013 23.4129602,52.1430388 C22.9517975,52.8636287 22.4110638,53.530322 21.8009048,54.1306099 C21.3407417,54.6282432 21.3051162,54.5986222 21.207146,55.4665184 L22.9587346,53.8847554 L22.866702,53.5885451 L23.819685,54.1394962 L23.7989034,54.1157994 L24.2887545,52.7088005 L24.4965701,53.3338042 L25.0487659,52.6999142 L25.4020524,53.4848715 C24.9656396,52.2792955 26.5064439,52.5962406 26.6816028,51.7727759 L25.9512794,51.9623505 L26.0937815,51.1655448 L26.5331631,51.2751426 L27.1506723,48.8343698 C27.3792695,48.8551045 27.6048978,48.8788013 27.8305262,48.9024981 C27.8928709,47.8953831 28.6321007,48.3100775 29.1546085,48.2774944 L29.2763291,49.0861485 C29.6661164,48.6381031 30.0814459,48.2128307 30.5202539,47.8124442 C30.8972908,47.4954992 31.2951092,47.2792657 30.980417,46.6868451 C30.9477603,46.627603 31.298078,46.2277191 31.4672993,46.2306812 C32.0382686,46.2692683 32.6063571,46.3424686 33.1684185,46.4498769 C32.6607546,47.3385078 32.7676312,48.3130396 33.521705,49.272761 L33.8957731,48.7869761 C33.4593603,48.5470458 33.088261,47.3059246 33.4712355,47.0334112 C33.8007717,46.7905187 34.6320341,46.6898072 34.8250057,46.9030786 C35.5375164,47.690998 36.4429987,47.4244088 37.1495717,47.3118488 C37.9333334,47.1874405 38.5122483,47.3118488 38.892254,47.8657621 C39.7828923,49.1661253 41.0208796,49.8622195 42.4162129,50.4605643 C43.2801321,50.8308272 44.0371746,51.4469446 44.9693761,52.033441 C42.9476271,51.544694 42.5171519,53.4789473 41.3266654,54.2402077 L39.759142,53.3515768 L39.628515,53.5026441 C39.8908524,53.891864 40.1890248,54.2558061 40.5191533,54.5897359 C40.985254,55.0044303 41.1752569,55.3006406 40.4983718,55.6797898 C40.3439944,55.7656908 40.3321193,56.0796737 40.1866483,56.2188925 C39.9336866,56.4895233 39.6314344,56.7096701 39.29601,56.8675931 C38.8600939,57.0046156 38.4131055,57.1037224 37.9600526,57.1638034 C38.0217843,57.5646518 38.1120663,57.9606016 38.2302129,58.3486446 C38.45881,58.9677241 38.8447533,59.1513745 39.3078852,58.5441434 C39.6374214,58.1146384 39.9224256,57.6555125 40.2252427,57.2023107 C40.9229093,57.8184281 40.8605647,58.3397583 40.0441462,59.0743598 C39.8396313,59.308148 39.6641895,59.5657445 39.5216384,59.8415445 L40.0174271,60.1703379 C39.6107022,60.4665482 39.1000696,60.8368111 38.5775618,61.1981876 C38.055054,61.5595642 37.4820767,61.9416755 36.8259731,62.3830288 C36.5629528,62.8264512 36.265142,63.2483894 35.9353348,63.6448847 C35.7809575,63.8137246 35.2317306,63.9025877 35.1456355,63.7989141 C34.8594255,63.4146268 34.6313614,62.9904654 34.4687504,62.5400203 C34.3932131,62.2725542 34.3493714,61.9971729 34.3381234,61.7195178 L33.9699929,61.7698735 L34.1629646,63.307205 C33.8185844,63.5264006 33.334671,62.2112269 33.0526355,63.1827966 L32.0402766,62.5577929 L31.8443362,62.7384812 L32.1768411,63.3782954 C31.1882326,63.3782954 30.9269787,63.2124177 30.3065007,62.2852794 C30.0244652,61.8646608 28.6380383,61.7994945 27.6672425,62.1608711 C28.0027163,63.6152637 29.6177404,61.8143051 30.0036837,63.0169189 C29.1367957,63.6093395 28.2995957,64.2017601 27.4356765,64.7734459 C26.7528538,65.2177614 26.2244084,65.0193005 25.9037787,64.3083958 L27.1269219,63.1827966 L26.9844198,62.9754494 L25.8622155,63.56787 L25.4287716,61.9239029 C24.4936013,61.9742586 24.267973,62.5163235 24.3451616,63.3457123 C24.4045375,63.9944129 23.531712,64.4772356 23.9770311,65.2296098 C24.0779701,65.3984497 24.0601574,65.63838 24.1462524,66.1034302 L21.4446495,64.2965474 L21.3199602,63.4079165 L20.2036935,63.8640803 L20.4352594,66.3255879 L20.7321389,65.6709631 L21.1715204,66.4233373 L20.1680679,66.8676528 L20.2868197,67.2882714 L19.5060268,67.1727494 C19.5416523,66.7254718 19.7494679,66.1715586 19.5624339,65.9523629 C19.3753998,65.7331673 18.7846098,65.7420536 18.3749161,65.6561526 L17.9652225,66.2159901 L18.7044523,66.9861369 L19.0755516,66.7373202 L18.2769459,67.3297408 C18.7400779,67.5045049 19.4050878,67.5548606 19.5564963,67.8599573 C19.7850935,68.3220453 19.6514977,68.9618596 19.6841545,69.8356799 L18.4966367,69.2432594 C18.1907876,70.0024956 17.6009756,70.6132853 16.8519246,70.9464686 C16.1839459,71.2426789 16.2967601,71.8647205 17.1488041,72.5193453 L16.5312948,73.375393 L17.9741289,72.7829724 L17.9355346,75.9079911 L16.54317,74.8564445 L17.6386551,74.6283626 C17.3417757,74.296607 17.1428665,73.8789505 16.8341119,73.7752769 C16.6322339,73.7071486 16.0651941,74.0714872 16.0325374,74.2788344 C15.9960513,74.7782296 16.1276988,75.2754859 16.4066055,75.6917576 L16.1334764,76.4441317 L16.6292651,76.2397466 C17.2022424,77.2764827 17.9563161,77.6082382 19.0518013,77.3298005 C19.2966109,77.3053711 19.5432526,77.3053711 19.7880623,77.3298005 C20.007753,77.3298005 20.3105701,77.3771942 20.4352594,77.2557479 C21.9404382,75.7924691 24.0690637,75.5199556 25.7790893,74.4417501 C26.2122337,74.1122627 26.6182737,73.7487399 26.9933262,73.3546583 C27.91959,73.7515801 29.1516397,73.3902035 30.2975943,73.9026473 C31.5651001,74.4807983 32.9007532,74.8968137 34.27281,75.1408064 C35.9619015,75.4638706 37.7089433,75.283585 39.29601,74.6224384 C41.0297859,73.8819126 42.6329349,72.6704125 44.7170285,72.9281155 C46.2393949,73.0742476 47.7104787,73.5547368 49.0247492,74.3351144 C50.1439846,75.0341707 51.1236868,75.9968542 52.290423,76.5537295 C53.938804,77.3755178 55.6759411,78.0065934 57.4680003,78.4346649 C59.2997465,78.8315867 61.2294628,78.7575341 63.1087096,78.9589571 C64.6495139,79.1248349 66.1160983,79.4862115 66.9354856,81.0324292 C67.1543753,81.4076469 67.4596766,81.72546 67.8261239,81.9595675 C70.4505381,83.7368293 71.2699254,86.3671767 71.4510218,89.3144692 C71.4862581,90.0124642 71.4604308,90.7121955 71.3738332,91.4057139 C71.0353906,94.3678169 67.6153395,95.5378476 65.22546,96.5508868 C64.4624799,96.873756 62.8830813,97.4395177 62.6337025,97.4395177 C64.7593593,97.4721008 66.178443,97.3299199 66.9889239,97.3180715 C69.1828629,97.2914125 71.3797707,97.2410568 73.5737098,97.2647536 C74.2535637,97.2647536 74.7285708,97.2647536 74.7849779,96.4027816 C74.8057594,96.0739882 75.1471708,95.7629674 75.3787368,95.3927045 C76.1803112,96.1065713 74.5326304,97.1699663 75.8121807,97.6883343 L76.3257822,96.4738721 C77.3737666,97.7771974 81.03429,98.2659444 83.9763652,97.4721008 C84.009022,98.197816 84.9501298,98.0645214 87.7853284,97.7298038 C86.5978107,97.1640421 84.7215326,96.4768342 83.8190191,95.952542 C83.0976021,95.5289613 82.4325922,95.0639111 82.3346219,94.0153266 C82.2304904,92.4732199 81.9688703,90.9457452 81.553829,89.4566501 C80.7819425,86.9240521 81.3460134,84.6017633 82.4444673,82.3831482 C83.1050969,80.9722839 83.9825625,79.6730439 85.0451312,78.5324143 C86.4939029,77.0513628 88.2158036,75.8398627 89.8486405,74.5454237 C90.8966249,73.7130728 91.9832036,72.9281155 93.0846263,72.1757413 C93.378726,71.9569976 93.7361019,71.8395269 94.1029228,71.8410237 C95.2577838,71.9506215 96.409676,72.137234 97.5556307,72.3297707 C98.2236094,72.4423306 99.1409669,71.9002657 99.8861342,71.1804747 C100.375173,70.7176723 100.951348,70.3562349 101.581316,70.1170797 L102.733208,69.663878 C104.800155,68.8530767 107.143343,69.2006032 108.88455,70.5762057 C109.415964,70.9938622 109.941441,71.4174429 110.463949,71.8410237 C111.577246,72.7296546 112.70242,73.5027634 114.201661,73.4227867 C114.633193,73.3960914 115.066371,73.4259671 115.490117,73.5116498 C116.380756,73.748618 116.974515,73.1976668 117.547492,72.741503 C118.277815,72.1490824 119.031889,72.1490824 119.860183,72.2586802 C121.083326,72.4156716 122.312407,72.5548905 123.544457,72.6082083 C123.894711,72.6055882 124.230567,72.4687915 124.482596,72.2260971 C126.406374,70.2237154 128.398435,68.2687275 130.155962,66.127127 C130.951598,65.1555572 132.085678,64.6727344 132.827877,63.7189373 C133.570075,62.7651401 134.217272,61.7787598 135.499791,61.49736 C135.556199,61.49736 135.609637,61.4203454 135.648231,61.3670275 C136.764498,59.885976 137.387945,58.218312 137.260287,56.3936566 C137.091065,53.9736185 136.666528,51.5713529 136.479494,49.1513148 C136.366679,47.7620885 136.521057,46.3847106 137.738262,45.3775956 C138.172165,44.9676721 138.575972,44.5271583 138.946562,44.0594598 L139,39.4682001 C138.866404,39.4178444 138.658589,39.435617 138.658589,39.4030339 Z M15.2072126,28.8460988 C15.9642551,28.3958592 16.5669204,28.0255963 17.1844296,27.6879165 C17.2883374,27.6316366 17.481309,27.7056892 17.611936,27.7204997 C17.582248,27.8804532 17.611936,28.1233457 17.5139658,28.188512 C16.9805718,28.5761212 16.4177728,28.9217546 15.8306594,29.2222859 C15.7119076,29.2933764 15.4150282,28.9912419 15.2072126,28.8460988 Z M16.2492594,29.7525023 L17.4753715,28.6357895 C17.7692821,29.7554644 17.7692821,29.7554644 16.2462906,29.7643507 L16.2492594,29.7525023 Z M18.030536,26.6304458 L17.193336,26.5445448 L17.5317785,25.2915752 L18.2710083,25.2649163 L18.030536,26.6304458 Z M21.6880907,20.5522105 L20.9280793,20.4781579 C21.1477701,19.3347861 21.1596453,19.3258998 22.3204439,18.8578875 L21.6880907,20.5522105 Z M14.5629842,47.6258318 C14.4454772,47.895237 14.2021021,48.0892765 13.9128182,48.1441998 C13.2949797,48.184528 12.6751602,48.184528 12.0573217,48.1441998 C12.3542012,47.7739369 12.6718622,47.5695518 12.7074877,47.3236972 C12.8856154,46.1151592 13.598126,46.5091189 14.1918849,46.8408745 C14.4382697,47.0250382 14.577244,47.3189996 14.5629842,47.6258318 Z M16.5847331,49.6311755 L14.9726778,50.5198064 C14.8123629,49.0772622 14.9726778,48.9795128 16.8845814,49.0387549 L16.5847331,49.6311755 Z M19.8771261,70.7983634 L19.5594651,72.1875897 L19.0755516,72.1490824 C19.1022708,71.9210005 19.1260211,71.6899564 19.1586779,71.4618745 C19.2210225,71.0294075 19.2893048,70.5999025 19.3516495,70.1792839 L20.3788523,70.3570101 L19.9275956,69.0122153 L20.4115091,68.9026175 L20.6816694,71.2574894 L19.8771261,70.7983634 Z M97.6595385,14.9331011 L98.2948605,15.4722038 C98.0870449,15.5432943 97.8228222,15.7002858 97.7545399,15.6410437 C97.4398477,15.362606 96.9796846,15.3448334 96.6679611,15.0486231 L97.6595385,14.9331011 Z M97.4903172,18.1351344 C97.4725044,19.1540978 96.6798363,19.7020869 96.6174916,20.5936799 L96.0949838,20.2293412 L97.4903172,18.1351344 Z M96.2345172,50.1258467 L95.5635696,49.1809358 C96.308737,48.9617402 96.656086,49.3260789 96.9529654,49.7970532 L96.2345172,50.1258467 Z M95.9376377,45.0310295 L96.656086,45.9196604 L96.4304576,46.1566287 L95.1924703,45.7300858 L95.9376377,45.0310295 Z M93.8951072,19.5569439 C93.7941682,19.1067042 93.6932292,18.668313 93.5982278,18.2062249 L93.9277639,18.0818166 C94.2246434,18.7631002 93.8327625,19.962752 95.2043455,19.8590784 C94.301832,20.5522105 94.1058916,20.4840821 93.8921384,19.5480575 L93.8951072,19.5569439 Z M95.082625,17.7026674 L94.4235526,18.1173618 L94.0346405,16.7933018 L94.33152,16.6985145 L95.082625,17.7026674 Z M91.9802348,11.5740763 C92.9094675,12.5693429 92.8114973,10.7328391 93.5151015,10.8424369 L94.1979242,11.7636509 L92.7639966,12.7470691 C91.920859,12.0776338 91.0094391,12.3294126 90.7125596,13.3069065 L89.9080164,12.6937512 L91.9802348,11.5740763 Z M89.7269199,14.7464886 L91.2113171,13.9289482 C91.5081965,14.7346402 89.1895681,14.8175791 90.6888093,15.8395046 L89.6022306,15.993534 L89.7269199,14.7464886 Z M89.667544,18.5794499 C89.884266,18.6357298 89.985205,19.1067042 90.4542745,18.843077 C90.5730263,18.7749487 91.0895965,19.071159 91.1281909,19.2607336 C91.1639917,19.6929707 91.1440367,20.1280051 91.068815,20.5551726 L90.7719355,20.5551726 L90.4750561,19.6665417 L90.8788121,19.79095 L90.9916263,19.6695038 C90.8313114,19.5184365 90.5938079,19.2103778 90.519588,19.245923 C90.1683902,19.4160423 89.8466775,19.6410336 89.566605,19.9123962 C89.5012915,19.9746004 89.6586376,20.2648865 89.7625455,20.6084904 L89.0797227,20.2856212 L89.0945667,18.9200917 L88.8392504,18.9023191 L88.542371,20.1760234 L86.8501582,20.510741 L88.1979908,19.2133399 L87.8595483,18.3780269 C88.5453398,17.4538507 89.1094107,18.4224584 89.6734816,18.5735257 L89.667544,18.5794499 Z M87.2925085,67.6377995 C87.0609426,66.846918 87.8625171,65.8220304 88.8481568,65.7005842 L88.7561242,65.0104142 L89.0530036,64.9245132 L89.4716036,66.213028 C88.4711199,65.8368409 88.0139256,66.4322236 87.6517327,67.2438398 C87.5558202,67.3914291 87.4365024,67.522483 87.2984461,67.6318753 L87.2925085,67.6377995 Z M88.9965965,62.0098039 C89.232864,62.2283974 89.4986851,62.4128562 89.7862958,62.5577929 C89.8634845,62.5874139 90.100988,62.1845679 90.4572433,61.7343283 C90.1455199,62.848079 90.0713001,63.7722551 91.4428831,63.9825644 L91.2053795,64.3380168 L90.2108334,64.0418065 L90.0950504,64.862309 C89.0144093,63.0524641 88.4295568,63.0139568 89.0114405,61.9949933 L88.9965965,62.0098039 Z M91.1578788,53.4463641 L90.0742689,52.6702931 L90.1514575,52.3385376 L88.6165908,53.7040671 L89.0025341,52.2615229 L86.606717,52.8539435 L87.9812688,53.32788 L87.9456433,53.5915072 C87.3348886,53.5598426 86.7263504,53.4945771 86.1228036,53.3960084 C86.0515525,53.3960084 86.087178,52.8480193 86.0723341,52.5547711 L86.3692135,52.5281122 L85.8674872,51.7253823 C86.2059298,51.4854519 86.5918731,51.0085534 86.8590646,51.0648333 C87.6716479,51.2960784 88.465581,51.5881814 89.2341001,51.9386537 C89.884266,52.148963 90.549276,52.3237271 91.1756916,52.5903164 C91.3241313,52.6525205 91.3478816,53.0138971 91.4310079,53.2360548 L91.1578788,53.4463641 Z M86.4760901,22.9752107 C86.3437127,23.0403582 86.1940954,23.0621282 86.0485837,23.0374149 C85.986239,23.0226043 85.9060816,22.7412046 85.9446759,22.7204698 C86.0337397,22.637531 86.2415553,22.6641899 86.3098376,22.5753268 C86.823439,21.8733084 87.7942348,21.8644221 88.325649,21.2275699 C88.3909625,21.1505553 88.2722107,20.913587 88.2306476,20.7092019 L89.8753596,21.1920247 C89.2608192,21.5415529 88.7353426,21.8555358 88.195022,22.1369356 C87.6547015,22.4183353 87.055005,22.7086214 86.4760901,22.9752107 Z M87.0342234,16.0350034 C87.211057,15.7553209 87.4095842,15.4898939 87.6279823,15.2411598 L88.6908107,16.858468 C88.2217412,17.2139204 87.8536107,17.519017 87.4409483,16.858468 C87.3786036,16.7607186 87.1025057,16.799226 86.8204702,16.7607186 C86.8692525,16.512782 86.9408054,16.2698521 87.0342234,16.0350034 Z M86.0782716,16.6037272 C86.2831185,16.6392724 86.4404646,16.9591795 86.6720305,17.2198446 C85.6745156,17.3412908 84.7690333,17.6315769 84.5077794,16.5592956 C85.0316311,16.5326753 85.5567735,16.5475323 86.0782716,16.6037272 Z M84.8076277,52.6228995 L84.7927837,53.9825048 L84.4484035,54.0239742 L83.7982376,52.9842761 L84.8076277,52.6228995 Z M81.0877283,62.8865863 L81.8566461,62.7858748 C81.6814872,63.5649079 82.7205652,65.034111 83.5191709,65.2236856 C83.4568262,66.0027187 83.0946333,66.4914657 82.2633709,66.5329351 L82.2633709,66.5181246 L81.669612,65.724281 L82.0347737,64.9659826 L80.2742787,64.2728505 C80.4524063,63.8611182 82.0525865,64.0951244 81.0877283,62.8836242 L81.0877283,62.8865863 Z M79.5528616,22.898196 L79.057073,23.5824418 L79.8616162,23.8519932 L79.8616162,24.7406241 C78.4187822,23.8549553 78.392063,23.6713049 79.5498928,22.8922718 L79.5528616,22.898196 Z M80.2178716,62.7710643 L80.0575567,63.2686976 L78.7750375,63.0021084 C78.926446,62.8066096 79.0719169,62.4393088 79.2233255,62.445233 C79.5675891,62.5035792 79.9015768,62.6113318 80.2149028,62.7651401 L80.2178716,62.7710643 Z M79.3272333,44.7466677 L77.68549,45.359823 L78.4306574,43.8609989 L79.3272333,44.7466677 Z M77.9764318,22.122125 L76.530629,22.1043524 L77.1243878,23.2891936 L74.6988828,23.2595726 C74.8295098,22.9811349 74.8918545,22.5397816 75.0967013,22.4568427 C75.9182557,22.1464522 76.7580011,21.8862925 77.6112701,21.6778096 C77.7240843,21.6452265 77.8903368,21.8466495 77.973463,22.1162008 L77.9764318,22.122125 Z M76.7621949,28.5380401 L76.3346885,29.8739486 L76.067497,29.915418 L75.6726474,28.1381562 L76.7621949,28.5380401 Z M74.2980956,41.0736599 L74.6751325,40.9818348 C74.7582587,41.6364595 74.8473226,42.2910843 74.8977921,42.945709 C74.8977921,42.945709 74.3723155,43.1056626 74.277314,43.0079132 C74.1046154,42.7676292 73.9731839,42.5003536 73.888402,42.2170317 C74.7315396,42.080775 74.2357509,41.4794681 74.2951268,41.0677357 L74.2980956,41.0736599 Z M76.7978205,16.0409276 C76.8275084,16.0409276 76.8631339,16.2008812 76.9254786,16.2601232 C77.0590744,16.39638 77.2223581,16.5148641 77.3618914,16.6451966 L76.7146942,17.1220952 L76.2040616,16.1446012 C76.3970332,16.109056 76.6107864,16.0675865 76.7948517,16.0350034 L76.7978205,16.0409276 Z M75.6103027,16.2630853 L76.2040616,16.1475633 C76.2218744,17.1487541 76.0140587,17.5219791 75.2332658,17.1872615 C75.1026389,17.1309815 74.7285708,17.4094192 74.6068502,17.6138043 C74.4554417,17.8685451 74.4465353,18.2062249 74.1644999,18.5231699 L74.0576233,16.5859546 L75.6103027,16.2630853 Z M73.3807381,17.5575243 L73.0838587,18.2565806 L72.2080644,17.8626209 C72.4069736,17.6611979 72.7305722,17.6256527 73.3777693,17.5516001 L73.3807381,17.5575243 Z M72.1575949,17.8863178 L72.5079126,18.9260159 L71.7775892,19.3377482 C71.7241509,19.2222262 71.6321183,19.1185526 71.6558686,19.0415379 C71.8607154,18.4165342 71.9705608,18.0818166 72.1575949,17.8863178 Z M70.0942828,24.8650324 C70.4683509,24.7761693 70.8513253,24.7287757 71.231331,24.6636094 L71.2075807,24.3970201 L72.2971282,25.1345838 L72.2525963,24.4118306 L72.4247864,24.3466644 L72.9086998,25.4100594 L73.2055793,24.364437 L72.9710445,24.0682267 L73.8052757,24.1185824 C73.7794852,24.5085453 73.7128182,24.8947392 73.6063665,25.2708405 C73.383502,25.7288091 73.126473,26.1694274 72.8374488,26.5889763 L72.6533835,25.5078088 C72.0299367,25.3893246 71.851809,25.804019 71.7063381,26.263145 L68.4822274,25.3182342 C69.1294246,25.1316217 69.6103693,24.9953649 70.1002204,24.8679945 L70.0942828,24.8650324 Z M72.5969764,31.4853326 L72.5821325,32.8301273 L73.6390233,32.7827337 L72.1546261,33.5232594 C72.6890091,32.993043 71.3174261,31.8881786 72.602914,31.4853326 L72.5969764,31.4853326 Z M70.0675636,48.0731093 C69.8241225,48.2271387 69.4738048,48.3396986 69.3906785,48.55297 C69.0937991,49.4416009 68.5950416,49.1838979 68.069565,48.8936118 L68.4792586,47.7798611 C68.6167725,47.7642036 68.7509941,47.7272259 68.8770771,47.6702633 C69.1412998,47.5369687 69.3877097,47.2111373 69.6252133,47.2259479 C70.1180331,47.2466826 70.293192,47.5932486 70.0794388,48.064223 L70.0675636,48.0731093 Z M69.6103693,58.6567033 C70.1299083,59.1158292 69.9992814,60.0370433 69.3313026,60.1377548 C68.2180047,60.3243673 68.2625367,61.1833771 68.0012828,62.1430985 L67.852843,61.0234236 L67.0512686,61.4025727 L67.6183083,60.4339651 L66.1517239,60.3302915 C66.294226,59.6667804 66.3209451,58.9914209 67.3184601,59.0447388 C67.535182,59.0447388 67.7726856,58.6833622 68.0042515,58.4937876 C68.185348,58.3456825 68.3694133,58.1975773 68.7256686,57.9221017 L68.1111281,56.2959072 C69.1591126,55.1554975 69.6252133,56.9386835 70.4861636,56.7461468 L70.6464785,57.1312202 L69.224426,58.3871519 C69.36133,58.4627282 69.491449,58.5499394 69.6133381,58.647817 L69.6103693,58.6567033 Z M65.6945295,58.5737644 C65.577542,58.819224 65.5254209,59.0904588 65.543121,59.3616838 C65.5500033,59.604382 65.5768122,59.846109 65.6232785,60.0844369 C64.373416,58.7514906 65.7064047,57.8510113 65.9943778,56.5299133 C66.2734444,57.7651103 66.2526629,57.7532619 65.7004671,58.5648781 L65.6945295,58.5737644 Z M65.6945295,62.5459445 L65.3649934,62.5459445 L65.0324884,60.5879944 C65.2640543,60.632426 65.6826544,60.662047 65.6885919,60.718327 C65.7420302,61.322596 65.7153111,61.9298271 65.7064047,62.5370582 L65.6945295,62.5459445 Z M67.4075239,53.7840439 C67.333304,52.5992027 68.4555083,52.5162638 69.0789551,52.0067821 C69.007704,52.7176868 68.1586289,53.6300145 67.4075239,53.7840439 Z M66.8582969,31.6778693 L66.9592359,31.0113961 C66.9858806,30.714653 67.0674148,30.4254068 67.1997083,30.1583104 C67.7459664,32.0362837 67.7400288,32.0481321 66.712826,32.2317825 L66.8790785,31.6837935 L66.8582969,31.6778693 Z M69.1116118,34.5333366 C70.177409,33.9942338 70.9908587,34.2608231 71.1244544,34.8295469 C70.8711872,34.9404279 70.5992573,35.0027303 70.3228799,35.0131972 C69.9033654,34.893291 69.4966677,34.732566 69.1086431,34.5333366 L69.1116118,34.5333366 Z M64.9107678,16.0498139 C65.3285205,16.2509083 65.7313248,16.4815533 66.1160983,16.7399839 C66.4847916,17.0511215 66.828262,17.3908463 67.1433012,17.7559852 C67.4401806,18.0699682 67.7103409,18.4076479 68.0755026,18.8341907 L66.2021934,19.0474621 L66.6059494,17.6671221 L65.7479678,18.2862017 L64.6613891,17.1902236 L65.1007707,17.0095353 L64.9107678,16.0498139 Z M65.9943778,30.3271503 L65.2195224,30.6233606 C65.5104643,30.1849694 65.6262473,30.2234767 65.9943778,30.3271503 Z M65.0681139,30.8662531 C65.6024969,31.3194548 66.6000118,30.77739 66.8493905,31.6719451 C66.7012598,31.6061217 66.5471744,31.554545 66.3892274,31.5179157 C66.0339785,31.5021971 65.6890459,31.3939465 65.3887437,31.2039328 L64.4832614,31.9533448 C64.735609,31.4705221 64.9167054,31.1209939 65.0681139,30.8662531 Z M61.8440032,45.5079281 L63.031521,47.4925371 L63.031521,46.6749967 C63.3475895,46.7978838 63.6468369,46.9601084 63.9221593,47.1578195 C64.1444958,47.418432 64.3376241,47.7025052 64.4981054,48.0049809 C64.1210685,48.2123281 63.5718416,48.6921888 63.3937139,48.5796289 C62.2061962,47.8420653 62.5743267,48.9883991 62.3219791,49.4682598 C62.0963508,49.2194432 61.7282203,48.8758392 61.7519706,48.8343698 C62.4882316,47.8183684 60.9503961,46.829026 61.8440032,45.5079281 Z M63.0582401,44.6637288 L63.1294912,44.2786554 C63.6430926,44.2549586 64.1566941,44.2194133 64.6732643,44.2194133 C64.7979536,44.2194133 65.0117068,44.3112385 65.0324884,44.3941774 C65.0532699,44.4771163 64.9434246,44.7970234 64.8988926,44.7970234 C64.2784146,44.7733266 63.6698118,44.7140845 63.0552713,44.6637288 L63.0582401,44.6637288 Z M62.3783862,15.7624899 L63.7945011,16.4674704 L63.7945011,16.7814534 L62.2596345,16.7636807 L62.3783862,15.7624899 Z M60.4932018,33.798735 C60.5496089,33.5528805 60.9593025,33.3870027 61.357121,33.0670956 C61.3897777,33.7009856 61.7638458,34.142339 61.1047734,34.4444735 C61.0335224,34.4770566 61.0839919,34.7791911 61.0780543,34.9539552 L61.6718132,34.9539552 L61.6154061,35.7596472 L60.4278883,35.5315653 C60.4457011,34.8532437 60.37445,34.3022925 60.490233,33.798735 L60.4932018,33.798735 Z M60.4694514,37.6790899 L60.8643011,37.8449677 C61.1077422,37.6257721 60.6238288,36.3639162 61.7311891,37.3117892 C62.0280685,37.5546816 62.9187068,37.0866693 63.5955919,36.9296779 L63.001833,38.0286181 L63.4263706,38.4225778 C63.3907451,38.4699714 63.3432444,38.5588345 63.319494,38.5529103 C62.9751139,38.4758956 62.6307337,38.3840704 62.1824458,38.2567 L62.0666628,39.4415412 L62.8890189,39.5896463 L60.9919593,42.1577896 C60.6357039,40.6560034 61.0721167,39.7288652 61.5857181,38.8194996 C61.4254032,38.2981694 60.0597578,38.917249 60.4664827,37.6761278 L60.4694514,37.6790899 Z M62.3160415,54.3409192 L61.8172841,54.8592872 L60.187416,53.5204167 C61.3333706,53.2686379 61.7519706,53.9588079 62.3130728,54.3409192 L62.3160415,54.3409192 Z M59.9231933,56.4143913 C60.2070929,56.0636044 60.635684,55.8609515 61.0875675,55.8638342 C61.5394509,55.866717 61.9654098,56.0748215 62.2447905,56.4292018 C62.2893224,56.2751725 62.2922912,56.0796737 62.3932302,55.973038 C62.5673188,55.8189828 62.7574117,55.6839338 62.9602699,55.570192 L62.4912004,54.9985061 L64.5218558,54.4297823 L63.2512118,53.8758691 C64.2131011,53.7810818 65.0324884,52.9161477 66.0210969,53.5056062 L67.3897111,53.8195891 L67.8409679,54.6637884 L66.8939225,54.3675782 C67.3600232,54.9363019 66.8018898,54.9599987 66.510948,54.9748093 C65.9171891,55.0222029 65.4659324,55.0429376 65.6203097,55.8841749 C65.6499976,56.0559769 64.7682657,56.6395111 64.5931068,56.5387996 C63.5005905,55.9078717 62.945426,56.6187764 62.1230699,57.2526665 L62.2210401,56.5032544 L61.4372784,56.7994647 C61.7341578,57.2763633 61.7341578,58.0524343 62.6663593,57.5370283 L62.6515153,58.8255431 L61.992443,58.5530297 L61.9746302,59.9333697 L61.6777508,59.9333697 L61.4699352,59.0595493 L61.2710259,59.024004 L60.7039862,60.4102682 L60.6178912,60.3924956 L60.7010174,59.8445066 L59.638189,59.0388146 C60.5080458,58.0583585 60.6624231,56.8409341 59.9202245,56.4173534 L59.9231933,56.4143913 Z M58.0112897,46.5031947 C57.6015961,46.8704955 57.1948713,47.2437205 56.7762713,47.5991728 C56.7168954,47.6495286 56.5298613,47.6524907 56.506111,47.6139833 C56.4378287,47.5014234 56.3547025,47.2644552 56.3962656,47.2377963 C56.8801791,46.8823439 57.3848741,46.5535505 57.8806628,46.2188328 L58.0112897,46.5031947 Z M54.8257734,2.7499715 L56.1854812,1.22152636 L56.7198642,1.87318902 L54.8257734,2.7499715 Z M54.4427989,18.2595427 C54.5912386,18.4046858 54.4427989,18.8667739 54.4101421,19.1837189 L54.0212301,19.1037421 L54.1637322,18.6001846 L53.1662173,18.8963949 L53.0890287,18.6209193 C53.4927847,18.3365574 53.7926329,17.6226906 54.4427989,18.2595427 Z M54.0123237,46.0085235 C53.6412244,46.7283145 54.4190485,48.0553367 52.8990258,48.1145787 C53.6026301,47.5784381 52.8752755,46.2721507 54.0093549,46.0114856 L54.0123237,46.0085235 Z M52.290423,8.31576302 C52.4240187,8.73934374 52.5724584,9.15700026 52.6704287,9.5865052 C52.6847876,9.7855622 52.6667412,9.98562568 52.6169904,10.1789258 C52.406206,10.0426691 52.0232315,9.90048811 52.0232315,9.77607979 C52.0727043,9.28313572 52.1610522,8.79485057 52.2874542,8.31576302 L52.290423,8.31576302 Z M52.4507379,18.3158227 L52.2132343,18.9082433 L52.6704287,18.8045697 L52.5576145,20.7299366 L51.842135,20.7714061 C51.7441648,21.1416689 51.7530712,21.6422644 51.5215052,21.8111042 C51.2899393,21.9799441 50.8297761,21.775559 50.4438329,21.5148939 L51.0227478,21.1683279 L50.0400768,19.1244768 L52.4507379,18.3158227 Z M51.7946343,17.0184216 C51.5482244,17.2405793 51.3107208,17.4716233 51.0554045,17.6848948 C50.8475889,17.8566967 50.6249293,18.0107261 50.4052386,18.1677175 C50.1855478,18.324709 49.8886683,18.526132 49.6303832,18.7068203 L49.4611619,18.5113215 L51.0079038,16.1801464 L51.7946343,17.0184216 Z M50.4022698,9.2962191 L50.9425903,10.0278585 L48.8644343,10.415894 L48.6922442,10.270751 L50.4022698,9.2962191 Z M47.8402002,25.1286596 L49.24444,25.9935936 L49.315691,26.2453724 L47.8312938,26.4290228 L47.8402002,25.1286596 Z M48.3330201,40.9255548 L49.3958485,42.513242 C48.9891236,42.4717726 48.7545889,42.4362273 48.5052102,42.4243789 C48.2558314,42.4125305 47.9767648,42.4243789 47.7511364,42.4243789 L48.3330201,40.9255548 Z M47.7600428,48.9024981 L47.424569,50.0221731 C46.3172087,48.7632793 46.3884598,47.6939601 47.656135,46.6572241 L48.362708,47.344432 L48.6298995,46.9504723 C48.8061991,47.1741416 48.9501094,47.4214285 49.0574059,47.6850738 C49.1019378,47.8687242 49.0188116,48.2271387 48.8941222,48.2774944 C48.4399502,48.4478192 47.9747709,48.5873553 47.5017577,48.6951509 L47.7600428,48.9024981 Z M45.735325,46.1595908 L45.8125137,44.8799623 L47.1098768,45.5819807 L46.4834612,46.5268915 C46.5250243,46.0262961 46.4062725,45.7478585 45.735325,46.1595908 Z M46.4537733,46.6039062 L46.1420498,49.0387549 L45.8748583,49.0950348 C45.7166267,48.4497023 45.6172615,47.7914047 45.5779789,47.1281985 C45.5987605,46.9475102 46.1450186,46.7757082 46.4626796,46.6009441 L46.4537733,46.6039062 Z M46.5606498,44.0505734 C46.8372492,44.0536291 47.1129574,44.0187449 47.3800371,43.9468998 C47.6531662,43.9113546 47.9292641,43.8846957 48.2023931,43.8550747 L48.2202059,44.3852911 C47.5670711,44.3852911 46.9109676,44.326049 46.2637704,44.3852911 C46.1034555,44.3852911 45.966891,44.6637288 45.8095449,44.8384928 C45.6462612,44.1749818 45.8837647,43.9350514 46.572525,44.0505734 L46.5606498,44.0505734 Z M43.8887349,20.6084904 L44.1173321,20.6588462 C44.1737392,20.9076628 44.247959,21.1535174 44.2806158,21.402334 C44.3132725,21.6511507 44.3073349,21.9147778 44.3162413,22.1724808 C44.1648328,22.1724808 43.9124853,22.2139502 43.8768597,22.1458219 C43.7153907,21.8741827 43.6141568,21.5711654 43.5799803,21.257191 C43.5621675,21.0409574 43.7788895,20.8217618 43.8946725,20.6084904 L43.8887349,20.6084904 Z M42.9713775,32.1784647 L43.1970058,32.1488436 L43.5443548,33.653592 L41.3058838,33.1589208 L41.2880711,32.7827337 L42.8140314,32.5576139 L42.9713775,32.1784647 Z M41.8135477,43.4936981 C42.3924626,43.1974878 42.6626228,43.2774646 42.689342,43.9735588 C42.7426132,44.2204831 42.8369391,44.4567674 42.9684087,44.6726151 L41.4008852,44.6548425 C41.0772867,44.0920429 41.2969774,43.7662116 41.822454,43.4936981 L41.8135477,43.4936981 Z M41.3919789,39.3467539 L41.8105789,38.9379837 C42.1460526,39.3052845 42.4815264,39.6696231 42.7962186,40.0517344 C42.6830098,40.171301 42.5609447,40.2821992 42.4310569,40.38349 C42.0777704,40.0576586 41.7393278,39.7051684 41.3979164,39.3526781 L41.3919789,39.3467539 Z M42.0154257,18.9734096 L42.4666824,20.3833706 L41.9026115,20.0871603 L41.2257264,21.1031616 C40.7477505,19.9301688 41.3979164,19.5273228 42.0243321,18.9793338 L42.0154257,18.9734096 Z M40.5013405,18.2032628 C40.6438427,18.1084755 41.0446299,18.4017237 41.3266654,18.5172457 C41.1811945,18.7334792 41.086193,19.0445 40.8813462,19.1511357 C40.4489582,19.3472887 40.0023757,19.5106666 39.5453888,19.6398827 L39.3286668,19.3170135 C39.6848494,18.9096698 40.0806467,18.5385779 40.5102469,18.209187 L40.5013405,18.2032628 Z M39.9580512,43.3130098 C39.7670166,42.8458422 39.6372944,42.3560004 39.5721079,41.8556551 C39.5721079,41.6394216 40.0233647,41.4143018 40.2727434,41.1921441 C40.4615575,41.4464445 40.6321904,41.7136947 40.783376,41.9919119 C40.364776,42.3532884 41.187132,43.5292433 39.9639888,43.318934 L39.9580512,43.3130098 Z M35.861115,23.2773452 L36.2529958,24.9538955 L35.7987703,25.0634933 L35.3207944,23.4136019 L35.861115,23.2773452 Z M36.1104937,37.9308687 C35.6765768,37.2713119 35.7818759,36.3957975 36.3598724,35.8573966 L37.3989504,37.3739933 C36.481593,37.7798014 36.0867433,38.976491 34.9378199,38.9261353 L34.7507859,38.5321756 L36.1104937,37.9308687 Z M33.6463944,23.8282964 C33.5662369,22.8804234 34.3024979,22.7412046 34.9051632,22.3857522 C35.498922,23.2980799 34.676566,23.6298355 34.1807773,24.163014 C34.7478171,24.8798429 34.4776568,25.3182342 33.5127986,25.5285435 C33.6064456,24.9667057 33.6511446,24.3978308 33.6463944,23.8282964 Z M24.3035985,22.55163 L24.5796964,21.7607485 C23.7365588,21.2838499 23.6890581,21.0054122 24.4164127,20.6321872 C24.6954793,20.4870442 24.9864212,20.3596738 25.4525219,20.137516 L26.5301943,22.637531 L26.1650326,22.8478403 L25.6573687,22.2791165 L24.3035985,22.55163 Z M21.6880907,34.5718439 L23.6118694,34.5955407 L23.6504637,34.3822693 L22.7895134,33.7098719 L23.4663985,33.7098719 L23.3713971,33.1174513 C24.0631261,33.0463609 24.7221985,32.9426872 25.3842396,32.9278767 C25.7623372,32.9560984 26.1364515,33.0236049 26.5005063,33.1292997 L24.8528254,34.9954246 L21.9523134,35.9877291 C21.8454368,35.5908073 21.7237162,35.1998097 21.6554339,34.8028879 C21.6049644,34.6784796 21.6880907,34.5244502 21.6880907,34.5718439 Z M23.9859375,40.1494838 C24.2590666,39.6636989 24.8765758,39.3734128 25.3367389,39.0001879 C26.2778467,39.69332 26.0878439,40.1850291 24.1492212,42.0274571 L23.3981162,41.621649 C24.1878155,41.3787566 23.7246836,40.5937993 23.9740623,40.1494838 L23.9859375,40.1494838 Z M22.1245034,41.4646575 C21.3674609,40.3805278 21.2665219,39.7110926 22.2729431,39.1245962 C22.5698226,38.9439079 22.7212311,38.4196157 22.866702,38.025656 C23.285302,36.8141559 23.4070226,36.7371412 24.5945403,37.0866693 C24.9040836,37.1516525 25.2174142,37.1971611 25.5326794,37.2229261 L22.1245034,41.4646575 Z M24.656885,36.5475666 L24.8647006,35.0428183 L25.6722127,34.9509931 L26.013624,36.1062132 L24.656885,36.5475666 Z M19.2121162,35.4989821 C20.5391672,36.5831118 20.5332296,36.5742255 19.1052396,37.3562207 C18.9063303,37.4658185 18.8083601,37.7353699 18.6302325,37.9486413 L19.2121162,35.4989821 Z M17.1873984,37.8953234 C17.6920934,38.0108455 18.2056949,38.0997085 18.6955459,38.2626242 C18.9960818,38.334893 19.2605573,38.5125648 19.4407133,38.7632196 C19.5149332,38.9202111 19.2774296,39.3822991 19.0755516,39.4711622 C18.7994537,39.5926085 18.2650708,39.6251916 18.1225686,39.4711622 C17.7564873,38.9740144 17.4383969,38.4434058 17.1725544,37.8864371 L17.1873984,37.8953234 Z M18.3006963,48.2241766 C17.7366254,47.0926532 18.0424112,46.6216788 19.4585261,46.2603023 C20.1413488,47.6939601 17.8613147,47.0037901 18.2858523,48.2152902 L18.3006963,48.2241766 Z M20.325414,41.4291123 C19.2625857,41.2217651 19.0636764,42.2466527 18.5946069,42.9101638 C18.4788239,43.0701174 18.6391388,43.4255697 18.6836708,43.7987947 L17.1992736,43.6299548 C17.525841,43.3337445 17.7930324,43.1886015 17.8880339,42.9753301 C18.0869431,42.456962 18.1849133,41.9000867 18.3392906,41.363946 C18.5263247,40.7330181 19.5268084,40.0132271 20.0879105,40.1791048 C20.2571318,40.2324227 20.340258,40.6471171 20.4085403,40.9077822 C20.4050942,41.0828883 20.3719697,41.2561497 20.3105701,41.420226 L20.325414,41.4291123 Z M19.7494679,38.4670093 C20.2660382,37.9130961 20.6193247,37.4865532 21.0290183,37.1251767 C21.1477701,37.0215031 21.4298055,37.1044419 21.6376212,37.1044419 C21.6376212,37.3058649 21.6999658,37.5872647 21.5930892,37.6968625 C21.2426927,38.0699339 20.8490319,38.4000625 20.4204155,38.6802807 C20.2897885,38.7484091 19.9988467,38.5499482 19.734624,38.4610851 L19.7494679,38.4670093 Z M22.1245034,44.5185857 C21.81278,45.1110063 21.2724594,45.4634966 20.5094793,44.8858865 L22.261068,43.4463044 C23.0151417,43.7869463 22.246224,44.2490343 22.1066907,44.5096994 L22.1245034,44.5185857 Z M22.664824,46.3699001 L23.7246836,45.1376652 L23.8107786,46.2780749 L24.4223503,46.0618414 L23.602963,47.2644552 L22.664824,46.3699001 Z M24.903295,48.4433722 C24.466976,48.316887 24.0419618,48.1543982 23.632651,47.9575873 C23.5406183,47.9042694 23.632651,47.5310445 23.632651,47.3029625 C24.0631261,47.3918256 24.167034,48.4878037 24.98939,47.4629161 L24.903295,48.4433722 Z M25.0873602,44.2371859 C24.858763,44.5333962 24.858763,44.5333962 25.2120496,44.7940613 L24.4431318,46.0707277 C24.1948991,45.6839999 23.9784594,45.277852 23.7959347,44.8562655 C23.7484339,44.7200087 23.9681247,44.3645564 24.1343772,44.3053143 C24.446017,44.2364453 24.7659422,44.212505 25.0843914,44.2342238 C25.2833006,43.8965441 25.4762723,43.5559022 25.6781503,43.2182225 L25.9394042,43.1560183 C26.0551872,43.6714243 26.1531574,44.1897923 26.2986283,44.699274 C26.4293472,45.0362145 26.5830964,45.3638034 26.7587914,45.6797301 L25.2743942,46.0351824 L25.5475233,44.9984464 L26.0314368,44.7437055 L25.0873602,44.2371859 Z M26.3253475,50.1169604 C25.9394042,49.7674322 25.0398595,49.8207501 25.3486141,48.9617402 C25.5356482,48.4492964 26.0759687,48.0731093 26.6519148,47.7176569 L26.1858141,48.7395825 C26.4826936,48.7662414 26.8151985,48.7929003 27.1358283,48.8165972 L26.3253475,50.1169604 Z M28.9319489,46.9534344 L27.2634865,46.5565126 L28.3292837,46.0559172 L28.3470964,44.6252214 C29.306017,45.1939452 29.4603943,45.8959636 28.9141361,46.9563965 L28.9319489,46.9534344 Z M33.7710837,42.0985476 L33.8928043,43.3100477 L32.5360653,42.8716565 L33.1298241,41.5890659 C32.583566,40.8307675 31.9868383,41.3550597 31.4791745,41.5890659 C30.5677546,42.0215329 29.8819631,41.8852762 29.3149234,41.0233042 C28.7478837,40.1613322 28.1422496,39.2904739 27.5336468,38.4403504 C27.3703631,38.2152306 27.0586397,38.0878601 26.9250439,37.8479298 C26.7587914,37.5517195 26.5420694,37.1399872 26.6281645,36.8793221 C26.9332904,36.1547856 27.2843174,35.4503565 27.6791177,34.7703048 L28.0145914,35.7685335 L28.5608496,34.9687657 C28.8310099,35.2205444 29.5197702,35.2057339 28.9824184,35.8573966 C29.4039872,35.9906912 29.205078,37.2910544 30.1699362,36.4764761 C30.2679064,36.3935372 30.5707234,36.5475666 30.6419745,36.559415 C30.9121347,36.2454321 31.0754184,35.9284871 31.3307348,35.8040787 C31.4702681,35.7359504 31.7671475,35.9995775 31.9957447,36.100289 C32.0940884,36.1503331 32.1990375,36.1862345 32.3074681,36.2069247 C32.5271589,36.2395079 32.7498185,36.2543184 33.1981064,36.2957878 L33.7918653,35.9462597 C33.8405595,36.2463755 33.8722768,36.548989 33.8868667,36.8526632 C33.8868667,38.1204433 33.8631163,39.3882233 33.8453036,40.7478286 C34.2233139,40.9463265 34.621386,41.1042035 35.0328213,41.218803 C35.196105,41.2543482 35.4454837,40.9048201 35.644393,40.7419044 C35.3059504,42.255539 35.1486043,42.3592126 33.753271,42.1015097 L33.7710837,42.0985476 Z M41.101037,46.5831715 C40.4093079,45.8604184 39.8155491,45.0576885 38.5953746,45.1406273 C37.6712682,45.164043 36.747172,45.0935769 35.8373646,44.930318 C35.498922,44.8829244 35.1871986,44.6341077 34.8636,44.4711921 L34.9437575,44.1749818 C35.3801703,44.210527 35.8343958,44.3438216 36.2440894,44.2579207 C36.6537831,44.1720197 37.2564483,43.9083925 37.3009802,43.6418032 C37.4909831,42.5310146 38.4113093,42.4036442 38.9367859,42.0659644 L39.9639888,43.3100477 C40.6616554,44.1749818 41.4157292,44.9688254 41.3385406,46.2425297 C41.3147902,46.6216788 41.6888583,47.0245248 41.9501122,47.4273709 C41.6413576,47.1518953 41.3593221,46.8734576 41.0832242,46.5890957 L41.101037,46.5831715 Z M42.0837079,47.5606655 L42.7635619,47.0600701 C41.3563533,46.971207 41.822454,46.1714392 41.9412058,45.4990418 L43.5324796,45.2028315 L43.2831009,46.310658 L43.0307533,46.2603023 L43.6245122,48.6566436 L42.0837079,47.5606655 Z M43.9392044,33.3040638 L43.6601378,33.108565 L44.0193619,30.519687 C44.7259349,30.8158973 45.129691,31.4290526 45.013908,32.0629427 C44.9100002,32.5309549 44.2984285,32.8982557 43.9213917,33.309988 L43.9392044,33.3040638 Z M44.2034271,41.449847 L45.4146952,41.2099167 L45.9490782,42.658385 L44.2034271,41.449847 Z M24.4757886,72.8481387 L24.0245318,71.3493146 L24.4787574,70.7983634 L25.1140794,71.4085566 L24.4757886,72.8481387 Z M27.8127134,71.5418513 C27.4663353,71.9085484 27.0877915,72.2436126 26.6816028,72.5430421 L26.4292553,72.3327328 L26.2926907,73.3546583 L25.494085,73.3546583 L25.9750297,72.1046508 L26.2184709,72.1490824 L25.7969021,70.9079612 L26.0522184,70.7894771 L26.5687886,71.8321374 L27.4594269,70.5821299 C27.6434922,71.0649527 27.8839645,71.447064 27.7949007,71.5536997 L27.8127134,71.5418513 Z M26.8330113,68.8552239 C26.5513197,69.0973831 26.1952277,69.2363639 25.8236212,69.2491836 C25.6217432,69.2491836 25.3189262,68.9796322 25.2298623,68.7604366 C25.1793928,68.6419524 25.4614283,68.3664769 25.6217432,68.168016 C25.841434,67.9162372 26.0848751,67.6851932 26.3194099,67.4452628 L25.0517347,67.276423 L25.8087772,66.0056808 L26.058156,66.127127 L25.9186226,66.5921772 C26.3550354,66.9150464 27.5425531,66.1212028 27.2427049,67.4808081 L27.9106836,67.3415892 C27.5880699,67.880131 27.221677,68.3913305 26.8151985,68.8700344 L26.8330113,68.8552239 Z M29.9057135,70.1940944 C29.7874251,69.8222336 29.688335,69.4445628 29.608834,69.0625711 C29.6098104,68.8616297 29.6408294,68.6619581 29.7008666,68.4701505 C29.9027447,68.5945588 30.1847801,68.6715735 30.2946255,68.8492997 C30.4490047,69.2148662 30.5663611,69.5949185 30.6449433,69.9837851 L29.9057135,70.1940944 Z M30.5944738,71.5003818 C30.4490028,70.4814184 31.1882326,70.4192142 31.8769929,70.3155406 L32.0402766,70.5880541 L30.5944738,71.5003818 Z M34.1778086,71.4174429 L31.9571504,69.4269097 L33.9135859,68.7397018 C33.7592085,68.0465697 31.6335518,68.6093693 33.0229475,67.0127958 L33.521705,68.1028497 L33.7354582,68.1354328 L33.8423348,66.9505916 C34.2134341,67.1401662 34.1184327,68.3042727 35.0120398,67.2853093 L35.3653263,70.0933829 L34.1778086,71.4174429 Z M45.9134527,68.9322385 C45.0763518,68.8494775 44.2312406,68.9505814 43.4374782,69.2284488 C41.7155774,69.9689746 40.0025831,70.2533365 38.2272441,69.7171958 L38.6399065,69.3706298 C37.6631731,69.6016738 37.5384838,69.0744195 37.6750483,68.3546285 C36.3687788,68.1383949 36.3450284,68.0021382 36.3598724,66.7906381 C36.3598724,66.3433605 35.8789277,65.9020072 35.5553291,65.3362455 L37.2534795,64.3024716 L37.4969207,65.0755804 L36.2619022,65.4636159 L38.1084923,67.1105452 L39.0822568,67.2319914 C39.1060072,67.0246442 39.2455405,66.6840024 39.1297576,66.5210867 C39.0139746,66.358171 38.6458441,66.3670574 38.3756838,66.2959669 L38.4350597,65.668001 L37.9986469,65.8427651 L38.0283348,63.4168028 C39.1178824,63.538249 39.8096115,62.848079 40.4241519,62.0571975 C40.4878562,61.9859585 40.5670712,61.9302277 40.6557179,61.8942818 C41.5463562,61.4884737 42.47262,61.1270972 43.3276328,60.6531607 C43.5295108,60.5406008 43.6066995,60.0607401 43.6245122,59.7645298 C43.642325,58.8758989 43.5681051,57.987268 43.5888867,57.0986371 C43.5888867,56.864631 43.8056087,56.636549 43.9777988,56.2959072 C43.5829491,55.6472066 43.7729519,55.3006406 44.8179676,54.8770599 C45.2972277,55.0646043 45.7857294,55.2277303 46.2815832,55.3658069 C47.1098768,55.5464951 47.6383222,56.5506481 47.193003,57.1904623 L48.0836414,57.4333547 L48.2202059,57.7739966 L45.2721931,59.6697425 L47.6828541,59.6993635 L49.7610102,57.987268 C50.4319577,58.5115602 51.9401052,58.1531458 51.9311989,59.7645298 C52.7416797,59.109905 53.3710641,59.6075383 54.0479492,59.9392939 C54.4345801,60.0811461 54.8315955,60.1930502 55.235467,60.2740115 C55.3660939,60.3154809 55.5709407,60.4073061 55.5798471,60.4961692 C55.5807506,60.6427347 55.5514456,60.7879208 55.4937521,60.9227121 L56.2359507,61.8439261 C55.4610954,61.811343 54.4546741,62.6792391 54.3893606,61.4292317 L52.1954216,62.1519848 C52.7030854,62.6081487 53.1929365,63.0109947 53.6293492,63.4671585 C53.7407652,63.6436588 53.7710283,63.8593369 53.7124755,64.0595791 C53.0890287,64.3765241 52.9554329,65.2681171 52.0855762,65.3362455 C51.7382272,65.3629044 51.4502542,65.8457272 51.0850925,65.9967945 C49.763979,66.5388593 49.7550726,66.5181246 48.6239619,65.5258201 C48.8139648,64.5720229 48.9534981,63.6211879 49.2177208,62.7058981 C49.400068,62.4397773 49.7085725,62.2881195 50.0311705,62.3060142 C50.626467,62.5325229 51.2023293,62.8069269 51.7530712,63.1265167 C51.0286854,61.8676229 50.2033605,61.5121706 48.190518,61.5773368 C48.0866102,62.4333846 47.9797336,63.2864702 47.8936385,64.142518 C47.8936385,64.2698884 47.9322328,64.4061452 47.9322328,64.5364777 C47.9322328,64.9304374 47.9173889,65.3273592 47.9084825,65.7213189 L46.7209647,65.5495169 C46.0975179,66.7669413 44.8179676,66.3344742 43.5770115,66.4381478 L44.1707704,67.1697873 C44.610152,67.1312799 45.3256314,66.1182407 45.3582881,67.5045049 C45.9787662,66.8439559 46.501274,65.9849461 47.5641023,66.4411099 L47.9025449,67.362324 L48.1845804,66.2396869 C49.0514683,66.2870806 48.9772485,67.0513031 48.8703719,67.6141027 C48.7634953,68.1769023 48.362708,68.1591297 48.0687974,67.6437237 C47.7362924,68.7663608 46.9792499,68.9885185 45.9253279,68.9381627 L45.9134527,68.9322385 Z M69.0937991,74.640211 C69.0255168,74.9749286 68.9453594,75.3096463 68.8681707,75.6443639 C67.7756544,75.1911621 66.5554799,74.6017037 65.2788983,74.1929334 C64.647048,74.0379286 63.9869699,74.0379286 63.3551196,74.1929334 C62.5171378,74.396681 61.6914657,74.6478791 60.8821139,74.9453076 C58.7623947,75.617705 57.0226812,74.9956634 55.2414046,73.7160349 C53.5254414,72.4749137 51.8540102,71.0353317 49.633352,70.6561825 C49.3403913,70.5968044 49.0554202,70.5033537 48.7842768,70.3777448 C47.5967591,69.8712252 47.4483194,69.1247752 48.508179,68.3516664 C49.5680385,67.5785575 50.7050868,67.0364926 51.8243223,66.414451 C53.01184,65.7509399 54.2171705,65.0874289 55.4432826,64.4831599 C55.8425581,64.3320112 56.266097,64.2547214 56.693145,64.2550779 C57.1147138,64.2224948 57.5392514,64.2550779 58.079572,64.2550779 L57.8390996,63.2272282 L58.1062911,63.0731988 C58.3103645,63.4639848 58.5415015,63.8400968 58.7980202,64.198798 C59.1097436,64.5838714 59.4392798,65.0874289 59.8667862,65.2266477 C62.0072869,65.9849461 63.6074671,67.4245281 65.1067082,69.0447985 C65.7004671,69.7023853 66.5703239,70.1437387 67.1195508,70.8220602 C67.8699184,71.8376518 68.5541489,72.900271 69.1680189,74.0033589 C69.2719267,74.1662745 69.1472374,74.4417501 69.1056743,74.6461352 L69.0937991,74.640211 Z M68.9987977,66.4648067 C68.8658742,66.2318187 68.7602814,65.9843343 68.6841055,65.7272431 L69.4322416,65.5850622 L70.1714714,66.1597101 L69.5777126,66.9535537 C69.3653091,66.8150404 69.1708655,66.650882 68.9987977,66.4648067 Z M70.8008558,65.8723862 C70.7711679,65.9938324 70.4713197,66.0501123 70.2516289,66.127127 C70.3377239,66.0175292 70.4327253,65.9020072 70.5633523,65.7450157 L69.3283338,65.0163384 L69.1412998,65.2473824 L69.0848927,64.687545 L70.4297565,64.228419 L70.177409,62.8066096 L69.9250615,64.2047222 L69.5628686,64.1751011 L69.7172459,62.2408479 C70.9700771,62.3237868 70.8186686,63.4019923 71.0175778,64.0892002 C71.1749239,64.6134924 70.943358,65.2799656 70.797887,65.8723862 L70.8008558,65.8723862 Z M71.3530516,49.0446791 L69.7825594,49.4978808 L70.0794388,48.0908819 L71.3916459,48.6092499 L71.3530516,49.0446791 Z M71.7033693,26.292766 L72.2674403,25.8662232 L72.0625934,26.6037869 L72.8760431,27.4924178 L72.8760431,27.8064007 C72.0150927,27.2139801 71.9854048,27.7530828 71.9854048,28.4254802 C71.5460232,27.6020156 71.059141,26.9918223 71.7033693,26.2838797 L71.7033693,26.292766 Z M72.1219693,38.5558724 L73.7132431,36.615695 C73.9240275,36.8882084 74.3752843,37.2732818 74.5474743,37.7561046 C74.6543509,38.0523149 74.3485651,38.5055167 74.2209069,38.9024385 C73.7458999,38.8431964 73.3837069,38.8076512 73.0333892,38.7484091 C72.7246346,38.6921291 72.4277552,38.6210387 72.1190005,38.5469861 L72.1219693,38.5558724 Z M74.0398105,93.1237336 L73.9359027,91.9388924 L73.8349637,91.9388924 L73.7073055,92.4631847 L73.5291779,92.4217152 L73.8646516,90.804407 L74.321846,90.7599754 L74.9838871,92.1669744 L75.5984275,92.0929218 C75.6192091,93.1237336 74.8681041,93.0970747 74.0398105,93.1237336 Z M75.4826446,32.3532288 L75.4292063,31.956307 C75.8188503,31.6706132 76.2253151,31.4084903 76.6464119,31.1713497 C76.6968815,31.1446907 76.9432914,31.5297641 77.2550148,31.8852165 L76.3643765,31.6630588 L76.9106346,32.6672117 L75.4826446,32.3532288 Z M87.0015667,71.3019209 C86.3652886,71.7812744 85.7900362,72.3363305 85.2885723,72.9547744 C84.3338195,74.1419269 83.4514845,75.3852924 82.6463454,76.6781378 C81.8091453,78.0673641 80.2713099,78.0110842 79.2173879,78.7516099 C79.1045737,77.6674802 79.0719169,76.6781378 78.8819141,75.7391512 C78.7364432,75.0223223 78.4128446,74.3558491 78.8819141,73.6360581 C78.94129,73.5412708 78.840351,73.2657952 78.7305056,73.1532353 C78.0654957,72.4749137 77.4064233,71.7847437 76.6820375,71.1686263 C76.1535921,70.7183866 75.981402,70.3362754 76.3465637,69.663878 C76.8690715,68.7071187 77.367829,68.0613803 78.6711297,68.3664769 C79.1758247,68.484961 79.8586474,67.8955025 80.4524063,67.6377995 C80.7657577,67.4765301 81.1235243,67.4224137 81.4707028,67.4837702 L82.2871212,66.5388593 C82.6136886,67.075 82.7680659,67.5844817 81.785395,67.996214 C83.2706018,68.5034818 84.8582082,68.6377732 86.4078078,68.3872116 C86.7432816,68.3279695 87.0015667,67.9221614 87.2984461,67.6703827 L88.6759667,68.917428 L89.2519128,68.0584182 L89.6319185,69.4476445 C88.8184688,70.0193303 87.8714234,70.6117509 87.0015667,71.3019209 Z M89.6081681,67.6022543 L89.5369171,66.2515353 C90.4067738,66.4085268 91.0213143,66.3315121 91.1370972,65.1733298 C91.1964731,64.6431134 91.8407015,64.1751011 92.2563327,63.6271121 C92.5858689,64.4920462 90.6680277,67.2231051 89.6022306,67.6022543 L89.6081681,67.6022543 Z M92.7461838,63.2064935 C92.5829001,62.8421548 92.5829001,62.8421548 93.5240079,61.5269811 L94.2187058,61.8616987 L92.7461838,63.2064935 Z M95.9079498,68.3753632 L95.7832604,68.0791529 C96.3770193,67.1757115 96.84312,67.0424168 97.5496931,67.8096015 L95.9079498,68.3753632 Z M98.0632945,52.1933946 C97.7787108,52.2614722 97.4982078,52.3455323 97.2231257,52.4451733 C97.0408127,52.5485008 96.8705502,52.6716877 96.7154619,52.8124741 L95.9495129,51.3877025 C95.7298221,51.7905486 95.5635696,52.0541757 95.4359115,52.3355755 C95.038093,53.2242064 94.7560576,52.264485 94.5719923,52.2852198 C94.7323072,52.063062 95.0974689,51.7816622 95.0974689,51.5002625 C95.1012687,51.0935938 94.9292573,50.7050119 94.6254306,50.4339054 C94.2929257,50.2235961 93.9247952,50.4694506 93.4972888,50.7301157 C92.6066505,51.2958774 93.2004093,52.1163799 92.8204036,52.6880658 C92.73693,52.8565882 92.6779509,53.0361189 92.6452448,53.2212443 L92.3483653,53.1649643 C92.3869597,52.8480193 92.4196164,52.5281122 92.4611795,52.2111672 C92.5621185,51.4410204 92.3186774,50.8752587 91.4547582,51.0766817 C90.0891128,51.399551 89.0797227,50.4339054 87.8684546,50.2147098 C87.7497029,50.193975 87.5715752,49.8562953 87.6131383,49.6933796 C87.6932958,49.1809358 87.8565795,48.6833025 87.9901752,48.1708587 L88.7115922,48.5411216 L88.0376759,47.3859014 L89.3409767,48.093844 L89.697232,46.6868451 C89.9673923,47.7857853 92.4166476,46.8467987 91.4785086,48.8610287 L91.7308561,48.9735886 L93.3310363,47.9694357 C93.3185273,48.5118578 93.3643102,49.0540558 93.4676008,49.5867439 C93.5358831,49.8237122 93.9752647,50.0458699 94.2721441,50.0873393 C94.4235526,50.1080741 94.6432434,49.7200386 94.8124647,49.4949187 C94.9004586,49.3717383 94.9788662,49.2420137 95.0469994,49.1068832 L96.2345172,50.105112 C96.5581158,50.8308272 97.1815626,51.2247869 97.8614165,51.5565424 L96.9707782,50.4250191 L97.0004661,50.336156 C97.3537526,50.4753748 97.810947,50.5257306 98.0365753,50.7775093 C98.3067356,51.0737196 98.3868931,51.5476561 98.5145512,51.9623505 C98.3690481,52.052255 98.2160903,52.1295525 98.0573569,52.1933946 L98.0632945,52.1933946 Z M99.0756534,20.2945075 L98.8322122,20.4574232 C98.1968902,20.0368045 97.7456335,19.5302849 98.2711101,18.7808729 C98.3987683,18.5972225 98.7520548,18.5705636 99.0786222,18.6327677 L98.3720491,19.2903546 L99.0756534,20.2945075 Z M102.638207,49.7111523 L104.499641,49.8977647 L104.449171,50.2354445 L103.78713,50.019211 C103.755779,50.1970576 103.711122,50.3723118 103.653534,50.5435032 C103.567584,50.7054775 103.468282,50.8600395 103.356655,51.0055913 L102.638207,49.7111523 Z M104.835114,63.8107625 C104.505578,63.8107625 104.179011,63.4197649 103.858381,63.9262845 C103.81088,64.0003371 103.4665,63.884815 103.264622,63.8581561 L103.421968,62.9695252 C104.392764,63.1117062 105.203245,63.7663309 105.906849,62.7236707 L106.185916,63.1857587 C105.740597,63.4108786 105.298246,63.7989141 104.844021,63.7989141 L104.835114,63.8107625 Z M106.500608,57.7769587 C106.220881,57.2882023 106.02048,56.7583372 105.906849,56.2070441 C105.874192,56.0678253 106.138415,55.857516 106.328418,55.5938888 C106.654985,56.1389157 106.922177,56.5506481 107.153743,56.980153 C107.269431,57.2351994 107.368594,57.4973907 107.450622,57.7651103 C107.141868,57.7739966 106.59561,57.9161775 106.509514,57.7739966 L106.500608,57.7769587 Z M107.943442,61.6573136 L107.486248,59.2639344 L109.160648,60.5376387 L107.943442,61.6573136 Z M112.761795,64.2432295 C111.940472,63.7985274 111.147301,63.3039124 110.38676,62.762178 C110.137381,62.5666792 110.181913,62.0009175 110.08988,61.6069579 L111.20021,61.4529285 L111.339743,62.6851633 L112.919142,63.970716 L112.761795,64.2432295 Z M116.621228,66.0204913 L116.639041,64.4387283 L117.740464,64.5868335 C117.802808,65.8723862 117.621712,66.1241649 116.624197,66.0204913 L116.621228,66.0204913 Z M124.871508,25.0309102 C124.574628,24.8739187 124.02837,24.6487989 124.049152,24.5717842 C124.116194,24.3321323 124.216098,24.1028704 124.346031,23.8905005 L125.008072,24.7406241 L124.871508,25.0309102 Z M125.299014,24.0178709 L124.357906,23.8816142 C124.444146,23.7365971 124.543521,23.5997685 124.654786,23.472844 C124.726037,23.3899051 125.141668,23.6061386 125.399953,23.6861154 L125.299014,24.0178709 Z M135.671982,52.1578493 L135.654169,53.5678103 C135.333539,53.2952969 135.33057,52.6999142 135.493854,51.4676793 L136.369648,52.00382 L135.671982,52.1578493 Z" id="Shape" fill="url(#radialGradient-1)"></path>
                <path d="M40,97.5 C46.0833333,97.3066667 52.1666667,97.1766667 58.25,97.11 C61.2916667,97.0633333 64.3333333,97.0533333 67.375,97.0266667 L76.5,97 L85.625,97.0266667 C88.6666667,97.0533333 91.7083333,97.0633333 94.75,97.11 C100.833333,97.1744444 106.916667,97.3044444 113,97.5 C106.916667,97.6933333 100.833333,97.8233333 94.75,97.89 C91.7083333,97.9366667 88.6666667,97.9466667 85.625,97.9733333 L76.5,98 L67.375,97.9733333 C64.3333333,97.9466667 61.2916667,97.9366667 58.25,97.89 C52.1666667,97.8233333 46.0833333,97.6933333 40,97.5 Z" id="Shape" fill="#000000"></path>
            </g>
        </g>
    </g>
</svg>