<?xml version="1.0" encoding="UTF-8"?>
<svg width="102px" height="34px" viewBox="0 0 102 34" version="1.1" xmlns="http://www.w3.org/2000/svg" xmlns:xlink="http://www.w3.org/1999/xlink">
    <!-- Generator: Sketch 50.2 (55047) - http://www.bohemiancoding.com/sketch -->
    <title>by Munday Library</title>
    <desc>Created with Sketch.</desc>
    <defs></defs>
    <g id="Page-12" stroke="none" stroke-width="1" fill="none" fill-rule="evenodd">
        <g id="Title-Bar-Copy-3" transform="translate(-320.000000, -38.000000)" fill="#8AAEBA">
            <path d="M323.689453,41.3847656 C324.673833,41.3847656 325.438311,41.7208625 325.98291,42.3930664 C326.527509,43.0652703 326.799805,44.0165954 326.799805,45.2470703 C326.799805,46.4775452 326.525231,47.4334276 325.976074,48.1147461 C325.426918,48.7960646 324.664718,49.1367188 323.689453,49.1367188 C323.20182,49.1367188 322.75635,49.0467131 322.353027,48.8666992 C321.949705,48.6866853 321.611329,48.4098326 321.337891,48.0361328 L321.255859,48.0361328 L321.016602,49 L320.203125,49 L320.203125,38.3632812 L321.337891,38.3632812 L321.337891,40.9472656 C321.337891,41.5260446 321.319662,42.0455706 321.283203,42.5058594 L321.337891,42.5058594 C321.866539,41.7584598 322.650385,41.3847656 323.689453,41.3847656 Z M323.525391,42.3349609 C322.750647,42.3349609 322.192385,42.5571267 321.850586,43.0014648 C321.508787,43.445803 321.337891,44.1943307 321.337891,45.2470703 C321.337891,46.29981 321.513345,47.0528949 321.864258,47.5063477 C322.215171,47.9598004 322.777991,48.1865234 323.552734,48.1865234 C324.250003,48.1865234 324.76953,47.932457 325.111328,47.4243164 C325.453127,46.9161758 325.624023,46.1858772 325.624023,45.2333984 C325.624023,44.2581331 325.453127,43.5312524 325.111328,43.0527344 C324.76953,42.5742164 324.240889,42.3349609 323.525391,42.3349609 Z M327.592773,41.5078125 L328.80957,41.5078125 L330.450195,45.7802734 C330.810223,46.7555387 331.033528,47.4596333 331.120117,47.8925781 L331.174805,47.8925781 C331.23405,47.6601551 331.358235,47.2625354 331.547363,46.699707 C331.736492,46.1368787 332.355138,44.4062645 333.40332,41.5078125 L334.620117,41.5078125 L331.400391,50.0390625 C331.081379,50.8821657 330.708824,51.4803042 330.282715,51.8334961 C329.856606,52.186688 329.333662,52.3632812 328.713867,52.3632812 C328.367511,52.3632812 328.025718,52.3245447 327.688477,52.2470703 L327.688477,51.3378906 C327.939129,51.3925784 328.219399,51.4199219 328.529297,51.4199219 C329.308598,51.4199219 329.864582,50.9824263 330.197266,50.1074219 L330.614258,49.0410156 L327.592773,41.5078125 Z M324.796875,68 L321.40625,59.140625 L321.351562,59.140625 C321.415365,59.8424514 321.447266,60.6764275 321.447266,61.6425781 L321.447266,68 L320.374023,68 L320.374023,58.0058594 L322.124023,58.0058594 L325.289062,66.25 L325.34375,66.25 L328.536133,58.0058594 L330.272461,58.0058594 L330.272461,68 L329.110352,68 L329.110352,61.5605469 C329.110352,60.8222619 329.142252,60.0201866 329.206055,59.1542969 L329.151367,59.1542969 L325.733398,68 L324.796875,68 Z M333.90918,60.5078125 L333.90918,65.3681641 C333.90918,65.9788442 334.048176,66.4345688 334.326172,66.7353516 C334.604168,67.0361343 335.039385,67.1865234 335.631836,67.1865234 C336.415694,67.1865234 336.988768,66.9723329 337.351074,66.5439453 C337.713381,66.1155578 337.894531,65.4160205 337.894531,64.4453125 L337.894531,60.5078125 L339.029297,60.5078125 L339.029297,68 L338.092773,68 L337.928711,66.9951172 L337.867188,66.9951172 C337.634764,67.3642597 337.312339,67.6468089 336.899902,67.8427734 C336.487465,68.038738 336.01693,68.1367188 335.488281,68.1367188 C334.576818,68.1367188 333.894371,67.9202496 333.440918,67.4873047 C332.987465,67.0543598 332.760742,66.3616584 332.760742,65.4091797 L332.760742,60.5078125 L333.90918,60.5078125 Z M346.5625,68 L346.5625,63.1533203 C346.5625,62.5426402 346.423504,62.0869156 346.145508,61.7861328 C345.867512,61.4853501 345.432295,61.3349609 344.839844,61.3349609 C344.055986,61.3349609 343.481773,61.5468729 343.117188,61.9707031 C342.752602,62.3945334 342.570312,63.0940706 342.570312,64.0693359 L342.570312,68 L341.435547,68 L341.435547,60.5078125 L342.358398,60.5078125 L342.542969,61.5332031 L342.597656,61.5332031 C342.830079,61.1640607 343.155922,60.8780935 343.575195,60.675293 C343.994468,60.4724925 344.461586,60.3710938 344.976562,60.3710938 C345.878911,60.3710938 346.55794,60.5887023 347.013672,61.0239258 C347.469403,61.4591493 347.697266,62.1552687 347.697266,63.1123047 L347.697266,68 L346.5625,68 Z M355.12793,66.9951172 L355.066406,66.9951172 C354.542315,67.7561887 353.758469,68.1367188 352.714844,68.1367188 C351.735021,68.1367188 350.972822,67.8017612 350.428223,67.1318359 C349.883624,66.4619107 349.611328,65.5094463 349.611328,64.2744141 C349.611328,63.0393818 349.884763,62.0800815 350.431641,61.3964844 C350.978518,60.7128872 351.739578,60.3710938 352.714844,60.3710938 C353.731125,60.3710938 354.510414,60.7402307 355.052734,61.4785156 L355.141602,61.4785156 L355.09375,60.9384766 L355.066406,60.4121094 L355.066406,57.3632812 L356.201172,57.3632812 L356.201172,68 L355.27832,68 L355.12793,66.9951172 Z M352.858398,67.1865234 C353.633142,67.1865234 354.194822,66.9757508 354.543457,66.5541992 C354.892092,66.1326476 355.066406,65.4524787 355.066406,64.5136719 L355.066406,64.2744141 C355.066406,63.2125598 354.889813,62.4549176 354.536621,62.0014648 C354.183429,61.5480121 353.61947,61.3212891 352.844727,61.3212891 C352.179359,61.3212891 351.670086,61.5799128 351.316895,62.097168 C350.963703,62.6144232 350.787109,63.3447218 350.787109,64.2880859 C350.787109,65.245122 350.962563,65.9674455 351.313477,66.4550781 C351.66439,66.9427108 352.179359,67.1865234 352.858398,67.1865234 Z M363.214844,68 L362.989258,66.9335938 L362.93457,66.9335938 C362.560871,67.4029971 362.188316,67.7208651 361.816895,67.887207 C361.445473,68.053549 360.981774,68.1367188 360.425781,68.1367188 C359.682939,68.1367188 359.100751,67.9453144 358.679199,67.5625 C358.257648,67.1796856 358.046875,66.6350947 358.046875,65.9287109 C358.046875,64.4156825 359.256824,63.6227217 361.676758,63.5498047 L362.948242,63.5087891 L362.948242,63.0439453 C362.948242,62.4560517 362.821779,62.0219741 362.568848,61.7416992 C362.315917,61.4614244 361.911461,61.3212891 361.355469,61.3212891 C360.731117,61.3212891 360.024744,61.5126934 359.236328,61.8955078 L358.887695,61.0273438 C359.256838,60.8268219 359.661293,60.6695969 360.101074,60.5556641 C360.540855,60.4417312 360.981769,60.3847656 361.423828,60.3847656 C362.317062,60.3847656 362.979002,60.5830058 363.409668,60.9794922 C363.840334,61.3759785 364.055664,62.0117144 364.055664,62.8867188 L364.055664,68 L363.214844,68 Z M360.651367,67.2001953 C361.357751,67.2001953 361.912596,67.0065124 362.315918,66.6191406 C362.71924,66.2317689 362.920898,65.6894566 362.920898,64.9921875 L362.920898,64.3154297 L361.786133,64.3632812 C360.883785,64.3951825 360.233238,64.5353178 359.834473,64.7836914 C359.435708,65.032065 359.236328,65.4182917 359.236328,65.9423828 C359.236328,66.3525411 359.360513,66.6647125 359.608887,66.8789062 C359.85726,67.0931 360.20475,67.2001953 360.651367,67.2001953 Z M365.204102,60.5078125 L366.420898,60.5078125 L368.061523,64.7802734 C368.421551,65.7555387 368.644856,66.4596333 368.731445,66.8925781 L368.786133,66.8925781 C368.845378,66.6601551 368.969563,66.2625354 369.158691,65.699707 C369.34782,65.1368787 369.966466,63.4062645 371.014648,60.5078125 L372.231445,60.5078125 L369.011719,69.0390625 C368.692707,69.8821657 368.320152,70.4803042 367.894043,70.8334961 C367.467934,71.186688 366.94499,71.3632812 366.325195,71.3632812 C365.978839,71.3632812 365.637046,71.3245447 365.299805,71.2470703 L365.299805,70.3378906 C365.550457,70.3925784 365.830728,70.4199219 366.140625,70.4199219 C366.919926,70.4199219 367.47591,69.9824263 367.808594,69.1074219 L368.225586,68.0410156 L365.204102,60.5078125 Z M377.255859,68 L377.255859,58.0058594 L378.417969,58.0058594 L378.417969,66.9472656 L382.827148,66.9472656 L382.827148,68 L377.255859,68 Z M385.486328,68 L384.351562,68 L384.351562,60.5078125 L385.486328,60.5078125 L385.486328,68 Z M384.255859,58.4775391 C384.255859,58.2177721 384.319661,58.0275071 384.447266,57.9067383 C384.57487,57.7859694 384.734374,57.7255859 384.925781,57.7255859 C385.108074,57.7255859 385.265299,57.7871088 385.397461,57.9101562 C385.529623,58.0332037 385.595703,58.2223295 385.595703,58.4775391 C385.595703,58.7327487 385.529623,58.9230137 385.397461,59.0483398 C385.265299,59.173666 385.108074,59.2363281 384.925781,59.2363281 C384.734374,59.2363281 384.57487,59.173666 384.447266,59.0483398 C384.319661,58.9230137 384.255859,58.7327487 384.255859,58.4775391 Z M391.378906,60.3847656 C392.363286,60.3847656 393.127764,60.7208625 393.672363,61.3930664 C394.216962,62.0652703 394.489258,63.0165954 394.489258,64.2470703 C394.489258,65.4775452 394.214684,66.4334276 393.665527,67.1147461 C393.116371,67.7960646 392.354172,68.1367188 391.378906,68.1367188 C390.891274,68.1367188 390.445803,68.0467131 390.04248,67.8666992 C389.639158,67.6866853 389.300783,67.4098326 389.027344,67.0361328 L388.945312,67.0361328 L388.706055,68 L387.892578,68 L387.892578,57.3632812 L389.027344,57.3632812 L389.027344,59.9472656 C389.027344,60.5260446 389.009115,61.0455706 388.972656,61.5058594 L389.027344,61.5058594 C389.555992,60.7584598 390.339839,60.3847656 391.378906,60.3847656 Z M391.214844,61.3349609 C390.4401,61.3349609 389.881838,61.5571267 389.540039,62.0014648 C389.19824,62.445803 389.027344,63.1943307 389.027344,64.2470703 C389.027344,65.29981 389.202798,66.0528949 389.553711,66.5063477 C389.904624,66.9598004 390.467444,67.1865234 391.242188,67.1865234 C391.939457,67.1865234 392.458983,66.932457 392.800781,66.4243164 C393.14258,65.9161758 393.313477,65.1858772 393.313477,64.2333984 C393.313477,63.2581331 393.14258,62.5312524 392.800781,62.0527344 C392.458983,61.5742164 391.930342,61.3349609 391.214844,61.3349609 Z M399.889648,60.3710938 C400.222332,60.3710938 400.520832,60.3984372 400.785156,60.453125 L400.62793,61.5058594 C400.318032,61.4374997 400.044598,61.4033203 399.807617,61.4033203 C399.201494,61.4033203 398.683108,61.6494116 398.252441,62.1416016 C397.821775,62.6337915 397.606445,63.2467411 397.606445,63.9804688 L397.606445,68 L396.47168,68 L396.47168,60.5078125 L397.408203,60.5078125 L397.538086,61.8955078 L397.592773,61.8955078 C397.87077,61.4078752 398.205727,61.0319024 398.597656,60.7675781 C398.989585,60.5032539 399.420245,60.3710938 399.889648,60.3710938 Z M406.793945,68 L406.568359,66.9335938 L406.513672,66.9335938 C406.139972,67.4029971 405.767417,67.7208651 405.395996,67.887207 C405.024575,68.053549 404.560875,68.1367188 404.004883,68.1367188 C403.262041,68.1367188 402.679852,67.9453144 402.258301,67.5625 C401.836749,67.1796856 401.625977,66.6350947 401.625977,65.9287109 C401.625977,64.4156825 402.835925,63.6227217 405.255859,63.5498047 L406.527344,63.5087891 L406.527344,63.0439453 C406.527344,62.4560517 406.40088,62.0219741 406.147949,61.7416992 C405.895018,61.4614244 405.490563,61.3212891 404.93457,61.3212891 C404.310218,61.3212891 403.603845,61.5126934 402.81543,61.8955078 L402.466797,61.0273438 C402.835939,60.8268219 403.240395,60.6695969 403.680176,60.5556641 C404.119957,60.4417312 404.56087,60.3847656 405.00293,60.3847656 C405.896163,60.3847656 406.558103,60.5830058 406.98877,60.9794922 C407.419436,61.3759785 407.634766,62.0117144 407.634766,62.8867188 L407.634766,68 L406.793945,68 Z M404.230469,67.2001953 C404.936852,67.2001953 405.491697,67.0065124 405.89502,66.6191406 C406.298342,66.2317689 406.5,65.6894566 406.5,64.9921875 L406.5,64.3154297 L405.365234,64.3632812 C404.462886,64.3951825 403.812339,64.5353178 403.413574,64.7836914 C403.014809,65.032065 402.81543,65.4182917 402.81543,65.9423828 C402.81543,66.3525411 402.939615,66.6647125 403.187988,66.8789062 C403.436362,67.0931 403.783852,67.2001953 404.230469,67.2001953 Z M413.390625,60.3710938 C413.723309,60.3710938 414.021809,60.3984372 414.286133,60.453125 L414.128906,61.5058594 C413.819009,61.4374997 413.545574,61.4033203 413.308594,61.4033203 C412.702471,61.4033203 412.184084,61.6494116 411.753418,62.1416016 C411.322752,62.6337915 411.107422,63.2467411 411.107422,63.9804688 L411.107422,68 L409.972656,68 L409.972656,60.5078125 L410.90918,60.5078125 L411.039062,61.8955078 L411.09375,61.8955078 C411.371746,61.4078752 411.706704,61.0319024 412.098633,60.7675781 C412.490562,60.5032539 412.921222,60.3710938 413.390625,60.3710938 Z M414.498047,60.5078125 L415.714844,60.5078125 L417.355469,64.7802734 C417.715497,65.7555387 417.938802,66.4596333 418.025391,66.8925781 L418.080078,66.8925781 C418.139323,66.6601551 418.263508,66.2625354 418.452637,65.699707 C418.641765,65.1368787 419.260411,63.4062645 420.308594,60.5078125 L421.525391,60.5078125 L418.305664,69.0390625 C417.986652,69.8821657 417.614097,70.4803042 417.187988,70.8334961 C416.761879,71.186688 416.238935,71.3632812 415.619141,71.3632812 C415.272785,71.3632812 414.930991,71.3245447 414.59375,71.2470703 L414.59375,70.3378906 C414.844402,70.3925784 415.124673,70.4199219 415.43457,70.4199219 C416.213871,70.4199219 416.769855,69.9824263 417.102539,69.1074219 L417.519531,68.0410156 L414.498047,60.5078125 Z" id="by-Munday-Library"></path>
        </g>
    </g>
</svg>