<?xml version="1.0" encoding="UTF-8"?>
<svg width="129px" height="36px" viewBox="0 0 129 36" version="1.1" xmlns="http://www.w3.org/2000/svg" xmlns:xlink="http://www.w3.org/1999/xlink">
    <!-- Generator: Sketch 50.2 (55047) - http://www.bohemiancoding.com/sketch -->
    <title>SORIN</title>
    <desc>Created with Sketch.</desc>
    <defs></defs>
    <g id="Page-12" stroke="none" stroke-width="1" fill="none" fill-rule="evenodd">
        <path d="M16.234375,26.046875 C16.234375,24.656243 15.8789098,23.6054723 15.1679688,22.8945312 C14.4570277,22.1835902 13.1640719,21.4453163 11.2890625,20.6796875 C7.86717039,19.382806 5.4062575,17.86329 3.90625,16.1210938 C2.4062425,14.3788975 1.65625,12.3203244 1.65625,9.9453125 C1.65625,7.07029812 2.67577105,4.76172746 4.71484375,3.01953125 C6.75391645,1.27733504 9.3437343,0.40625 12.484375,0.40625 C14.5781355,0.40625 16.4453043,0.847651836 18.0859375,1.73046875 C19.7265707,2.61328566 20.9882768,3.85936695 21.8710938,5.46875 C22.7539107,7.07813305 23.1953125,8.90623977 23.1953125,10.953125 L16.328125,10.953125 C16.328125,9.35936703 15.9882846,8.14453543 15.3085938,7.30859375 C14.6289029,6.47265207 13.6484439,6.0546875 12.3671875,6.0546875 C11.1640565,6.0546875 10.2265659,6.4101527 9.5546875,7.12109375 C8.88280914,7.8320348 8.546875,8.78905648 8.546875,9.9921875 C8.546875,10.9296922 8.92187125,11.77734 9.671875,12.5351562 C10.4218788,13.2929725 11.7499905,14.0781209 13.65625,14.890625 C16.9843916,16.093756 19.4023362,17.5703037 20.9101562,19.3203125 C22.4179763,21.0703213 23.171875,23.2968615 23.171875,26 C23.171875,28.9687648 22.226572,31.2890541 20.3359375,32.9609375 C18.445303,34.6328209 15.8750162,35.46875 12.625,35.46875 C10.421864,35.46875 8.41407156,35.0156295 6.6015625,34.109375 C4.78905344,33.2031205 3.37109887,31.9062584 2.34765625,30.21875 C1.32421363,28.5312416 0.8125,26.539074 0.8125,24.2421875 L7.7265625,24.2421875 C7.7265625,26.2109473 8.10937117,27.6406205 8.875,28.53125 C9.64062883,29.4218795 10.8906163,29.8671875 12.625,29.8671875 C15.031262,29.8671875 16.234375,28.5937627 16.234375,26.046875 Z M53.765625,21.0078125 C53.765625,25.5859604 52.6836046,29.1406123 50.5195312,31.671875 C48.3554579,34.2031377 45.3515817,35.46875 41.5078125,35.46875 C37.6796684,35.46875 34.6718859,34.2148563 32.484375,31.7070312 C30.2968641,29.1992062 29.1875002,25.6875226 29.15625,21.171875 L29.15625,15.3359375 C29.15625,10.6484141 30.2421766,6.98829441 32.4140625,4.35546875 C34.5859484,1.72264309 37.6015432,0.40625 41.4609375,0.40625 C45.2578315,0.40625 48.2499891,1.69920582 50.4375,4.28515625 C52.6250109,6.87110668 53.7343748,10.4999766 53.765625,15.171875 L53.765625,21.0078125 Z M46.8515625,15.2890625 C46.8515625,12.2109221 46.4140669,9.9218825 45.5390625,8.421875 C44.6640581,6.9218675 43.3046967,6.171875 41.4609375,6.171875 C39.6328034,6.171875 38.2812544,6.89452402 37.40625,8.33984375 C36.5312456,9.78516348 36.0781252,11.9843602 36.046875,14.9375 L36.046875,21.0078125 C36.046875,23.9922024 36.492183,26.1913992 37.3828125,27.6054688 C38.273442,29.0195383 39.6484282,29.7265625 41.5078125,29.7265625 C43.3046965,29.7265625 44.6406206,29.0351632 45.515625,27.6523438 C46.3906294,26.2695243 46.8359374,24.1250145 46.8515625,21.21875 L46.8515625,15.2890625 Z M71.046875,22.53125 L67.625,22.53125 L67.625,35 L60.734375,35 L60.734375,0.875 L71.7265625,0.875 C75.1797048,0.875 77.8476468,1.7695223 79.7304688,3.55859375 C81.6132907,5.3476652 82.5546875,7.89060852 82.5546875,11.1875 C82.5546875,15.7187727 80.9062665,18.8906159 77.609375,20.703125 L83.5859375,34.671875 L83.5859375,35 L76.1796875,35 L71.046875,22.53125 Z M67.625,16.7890625 L71.5390625,16.7890625 C72.9140694,16.7890625 73.9453091,16.3320358 74.6328125,15.4179688 C75.3203159,14.5039017 75.6640625,13.2812577 75.6640625,11.75 C75.6640625,8.32810789 74.3281384,6.6171875 71.65625,6.6171875 L67.625,6.6171875 L67.625,16.7890625 Z M96.484375,35 L89.59375,35 L89.59375,0.875 L96.484375,0.875 L96.484375,35 Z M128.132812,35 L121.242188,35 L111.164062,12.6171875 L111.164062,35 L104.273438,35 L104.273438,0.875 L111.164062,0.875 L121.265625,23.28125 L121.265625,0.875 L128.132812,0.875 L128.132812,35 Z" id="SORIN" fill="#FFFFFF"></path>
    </g>
</svg>