<!-- Generated by IcoMoon.io -->
<svg version="1.1" xmlns="http://www.w3.org/2000/svg" width="768" height="768" viewBox="0 0 768 768">
<title></title>
<g id="icomoon-ignore">
</g>
<path d="M677.408 150.624l-90.496-90.496c-62.4-62.368-163.904-62.368-226.272 0l-316.8 316.768 45.248 45.248 316.8-316.768c37.44-37.44 98.336-37.44 135.744 0l90.528 90.528c37.44 37.408 37.44 98.304 0 135.744l-316.768 316.768c-40.8 40.8-86.176 49.568-98.336 37.44l-14.816-14.784-72.128-72.128c-5.632-5.632-1.024-35.808 15.552-52.384l316.704-316.704c3.712-3.68 33.984 11.328 56.576 33.952v0c-9.888 9.888-7.584 7.616-11.296 11.328l-229.824 229.792 45.248 45.248 229.824-229.792c27.36-27.328 61.376-51.776 11.328-101.824v0c-50.016-50.048-100.384-80.64-147.072-33.952l-316.8 316.704c-37.376 37.44-51.936 106.432-15.488 142.88l49.44 49.504 37.504 37.44c42.432 42.432 125.376 25.984 188.8-37.44l316.768-316.768c62.4-62.4 62.4-163.904 0.032-226.304z"></path>
</svg>
