<?xml version="1.0" encoding="UTF-8"?>
<svg width="87px" height="60px" viewBox="0 0 87 60" version="1.1" xmlns="http://www.w3.org/2000/svg" xmlns:xlink="http://www.w3.org/1999/xlink">
    <!-- Generator: Sketch 50.2 (55047) - http://www.bohemiancoding.com/sketch -->
    <title>books</title>
    <desc>Created with Sketch.</desc>
    <defs></defs>
    <g id="Search-results-2018" stroke="none" stroke-width="1" fill="none" fill-rule="evenodd">
        <g id="Icons" transform="translate(-104.000000, -820.000000)" fill="#4A4A4A" fill-rule="nonzero">
            <g id="books" transform="translate(104.000000, 820.000000)">
                <path d="M17.5,0 L2.5,0 C1.125,0 0,1.125 0,2.5 L0,57.5 C0,58.875 1.125,60 2.5,60 L17.5,60 C18.875,60 20,58.875 20,57.5 L20,2.5 C20,1.125 18.875,0 17.5,0 Z M15,15 L5,15 L5,10 L15,10 L15,15 Z" id="Shape"></path>
                <path d="M42.1153846,0 L27.1153846,0 C25.7403846,0 24.6153846,1.125 24.6153846,2.5 L24.6153846,57.5 C24.6153846,58.875 25.7403846,60 27.1153846,60 L42.1153846,60 C43.4903846,60 44.6153846,58.875 44.6153846,57.5 L44.6153846,2.5 C44.6153846,1.125 43.4903846,0 42.1153846,0 Z M39.6153846,15 L29.6153846,15 L29.6153846,10 L39.6153846,10 L39.6153846,15 Z" id="Shape"></path>
                <path d="M59.6183914,3.3457977 L46.0110677,10.1583625 C44.7641106,10.781586 44.2561851,12.3081051 44.8860127,13.5469826 L67.7401198,58.6133601 C68.3674078,59.8522376 69.9038824,60.3568721 71.1508394,59.7311254 L84.7581631,52.9185606 C86.0051201,52.2953371 86.5130456,50.768818 85.883218,49.5299404 L63.029111,4.46356295 C62.401823,3.22468543 60.8653484,2.72005101 59.6183914,3.3457977 Z" id="Shape"></path>
            </g>
        </g>
    </g>
</svg>