<?xml version="1.0" encoding="UTF-8"?>
<svg width="231px" height="163px" viewBox="0 0 231 163" version="1.1" xmlns="http://www.w3.org/2000/svg" xmlns:xlink="http://www.w3.org/1999/xlink">
    <!-- Generator: Sketch 50.2 (55047) - http://www.bohemiancoding.com/sketch -->
    <title>sorinTree</title>
    <desc>Created with Sketch.</desc>
    <defs>
        <radialGradient cx="50%" cy="100%" fx="50%" fy="100%" r="100%" gradientTransform="translate(0.500000,1.000000),scale(0.705628,1.000000),rotate(90.000000),translate(-0.500000,-1.000000)" id="radialGradient-1">
            <stop stop-color="#94CA31" offset="0%"></stop>
            <stop stop-color="#5B9412" offset="100%"></stop>
        </radialGradient>
    </defs>
    <g id="Page-1" stroke="none" stroke-width="1" fill="none" fill-rule="evenodd">
        <g id="sorinTree" fill="url(#radialGradient-1)" fill-rule="nonzero">
            <path d="M230.432619,65.5376992 C230.205666,64.6311748 230.161262,63.6507489 229.786297,62.8131992 C229.199181,61.5026802 229.223849,60.3941585 230.570764,59.1427606 C227.551308,57.3740527 226.525087,54.2159975 224.803208,51.5703257 C224.077946,50.4420969 222.676761,49.7720572 221.724547,48.7620707 C221.265708,48.2693944 221.127563,47.4761855 220.831538,46.7913655 C220.037204,47.3431629 221.186768,49.254747 219.44022,48.5994875 C218.779097,48.3531494 218.453469,47.2101403 217.960094,46.4760526 L218.581747,45.948889 L216.425697,45.0916322 C215.774877,45.3088188 215.097879,45.4380616 214.412726,45.4759197 C213.919351,45.4414324 213.425976,44.9832434 212.700715,44.6235897 L212.700715,43.2194622 L213.055945,43.2194622 L213.164487,44.5299812 L214.397925,42.5247886 L216.430631,45.0817787 L216.006328,43.5199947 C216.830265,44.2294486 217.279236,44.8058799 217.861419,45.0374378 C218.345616,45.0760694 218.814358,44.8570089 219.094857,44.4610065 C219.257671,43.805747 219.356346,42.7809803 218.986314,42.4213266 C217.774207,41.1864141 216.38598,40.1371729 214.866632,39.3076123 C214.294316,39.0169332 213.169421,39.8298492 212.202406,40.1697958 L206.370711,37.1644703 C206.503154,36.7166324 206.569634,36.2519326 206.568061,35.7849766 C206.504726,35.2750812 206.301546,34.7925724 205.980945,34.3907027 C205.260617,33.4447641 204.461349,32.5579468 203.662081,31.6070815 L202.359571,32.282048 L199.206903,31.3705969 L198.170816,29.8925679 L197.628103,30.2374413 L198.560582,32.0652705 L197.080456,32.7156032 L196.53281,31.2671348 L192.738755,30.3310498 C193.23213,29.4146719 192.477266,28.8530209 191.6928,29.2767225 C190.113999,30.1339793 189.033507,30.4197316 188.184902,28.414539 C187.967817,27.9218627 186.995868,27.7297189 186.408751,27.3405046 C186.103453,27.0454946 185.835075,26.7146327 185.609484,26.355152 L188.569735,24.9116104 C187.913546,24.4189341 187.217887,23.6602126 186.1966,24.773661 C186.023919,24.9658048 185.254253,24.773661 184.874355,24.5815173 C184.383565,24.2492862 183.779481,24.1283947 183.19839,24.2461168 C182.617298,24.363839 182.108155,24.7102571 181.785826,25.2072162 C181.558873,25.502822 180.952022,25.5422361 180.507984,25.6407713 C179.560704,25.8427686 178.603556,26.0053518 177.695746,26.2664703 L173.344177,26.5768563 C173.654856,25.9752594 173.880662,25.3336198 174.015167,24.670199 C174.015167,24.4977623 173.028417,24.21201 172.949476,24.1775227 L171.084518,24.670199 C170.867433,23.7932352 169.283699,23.1921701 168.237744,22.5960317 C166.673704,21.7205209 165.062897,20.9310605 163.412534,20.2311854 C162.711942,19.9355796 161.764661,20.1868446 161.113406,19.8419711 C160.195728,19.3492948 159.450732,18.5413057 158.64653,17.8712659 L156.564487,19.4773907 L156.702632,17.5066854 C155.97737,16.7282568 155.498796,15.8808536 154.783402,15.5359802 C153.796652,15.0433038 152.632287,14.9496953 151.280439,14.6146755 C151.606066,15.2945688 151.976098,15.7970986 151.877423,15.9251944 C151.560358,16.268208 151.177923,16.5445782 150.752527,16.7381104 C149.686837,15.4423717 149.459884,17.0534232 148.853033,17.2603473 C149.193462,17.8318518 149.543758,18.3935028 149.864452,18.9748608 C149.970089,19.2529698 150.050986,19.5398309 150.106206,19.8321176 L148.700086,19.053689 L147.289033,21.2756592 L147.131153,20.5957659 L143.411105,21.2707324 L140.64327,22.4137415 L141.136645,24.0198663 L138.798047,25.2219965 L137.002161,24.6357117 L140.64327,19.4773907 L140.914626,21.3101466 C141.59055,20.8568843 141.901376,19.3098807 143.110146,20.447963 L142.231938,18.7334494 L142.044455,18.2752605 C140.357112,18.9994946 138.664835,19.7237288 136.977492,20.4528898 C136.834413,20.5169377 136.63213,20.6401068 136.612395,20.7632758 C136.301568,22.6305191 135.043461,23.1281221 133.346251,23.2266574 C132.571652,23.275925 131.826655,23.7193337 130.997785,24.0297198 C130.928713,21.6106791 128.289155,21.9851131 126.784361,21.0391746 C124.953939,19.886312 122.343984,20.053822 121.386837,18.2112125 C121.732199,17.4475643 122.274912,16.8366456 122.171303,16.3686031 C121.845675,14.8905742 121.006938,13.4963002 120.883594,12.023198 C120.779985,10.8161411 120.661575,9.78152082 119.788301,8.92426404 C119.092642,8.24437073 118.342712,7.61867181 117.69639,6.89936439 C117.320644,6.38197587 116.990493,5.83305277 116.70964,5.25875227 L116.250801,6.39683455 C114.63253,3.67233454 111.657478,2.77566365 108.919246,1.96274773 C106.102074,1.17446563 102.959274,0.883786608 100.413458,3.69696836 L100.08783,2.27806057 C98.8390312,1.55700251 97.5546259,0.8992661 96.2395037,0.307355322 C95.4392116,0.0730974319 94.6058467,-0.0284290738 93.7726278,0.00682277101 C93.6964083,0.287507244 93.6452264,0.574379639 93.6196815,0.864079556 L89.2631787,1.99723508 L89.6578788,3.10575678 L88.1777533,4.06154883 L89.2138411,5.27353256 L90.4818154,3.4900443 L90.827178,3.64770072 C90.5961653,4.36028544 90.4310167,5.09250665 90.3338028,5.83518356 C90.3338028,6.22932461 90.9110518,6.66780652 90.866648,7.04224052 C90.7860248,7.76301118 90.5485968,8.45747124 90.170989,9.0769937 C89.6776138,9.88005609 88.7895385,10.5106818 89.1842386,11.629057 L91.0886668,10.2791239 L91.6856508,10.7323861 C90.4670141,10.8013608 90.1759227,11.151161 90.8913168,11.6536908 C89.9045664,12.3286574 88.917816,12.9297225 88.0692107,13.6588834 C87.6103718,14.0431709 87.5758356,14.1515597 86.9689841,13.791906 L86.5742839,10.6584847 L87.1564667,10.6584847 L87.1564667,12.4321194 L88.3652358,11.9394431 C87.9952045,9.59923059 86.9788516,8.43158773 85.6072686,9.05235988 L86.0710413,8.11134812 L85.7355461,7.77140147 L84.2899569,9.24943041 L82.3953962,7.01760671 L82.1881786,7.73198736 L78.0832971,8.74690057 C78.2609122,8.91441051 78.3398522,9.02772606 78.443461,9.0769937 C78.6396336,9.14407564 78.8409332,9.19515309 79.0453787,9.22972335 L78.0142246,10.5008282 L77.8514108,10.0623463 C77.2988306,10.1608816 76.7462504,10.2692704 76.1887364,10.3530253 C75.8667227,10.4352514 75.5332779,10.463554 75.2019861,10.4367803 C73.8649393,10.1658083 72.9127252,10.5500959 72.3798801,11.8606149 C72.2910725,12.0823192 71.9605111,12.210415 71.6398173,12.46168 C72.2960063,14.1417062 69.9524742,13.8263934 69.577509,14.9694024 L68.84238,14.4767261 L71.3092559,12.6587505 C69.8834016,10.6880452 67.8161596,11.2201357 65.5515676,10.6535579 L68.1565885,14.4471655 L64.7029623,16.2405073 L63.178433,18.9108129 C62.6258528,18.8073509 62.1916826,18.7482297 61.8019162,18.6496945 C61.4121498,18.5511592 60.9039734,18.2309196 60.6178158,18.3639422 C60.3316582,18.4969648 60.3563269,19.240906 60.0652356,19.4133427 C59.7741442,19.5857795 59.182094,19.492171 58.5851101,19.511878 L58.3433562,20.7041547 L57.9585236,20.7829829 L57.632896,19.866605 L54.3864873,20.073529 L54.3470173,19.5808527 L55.2153576,19.324661 C55.0133716,19.0965908 54.7749742,18.9034794 54.5098311,18.7531565 C53.9965799,18.5968053 53.474283,18.4717632 52.9458318,18.3787225 L53.4392069,19.0093482 L52.3587153,23.275925 C52.7290728,23.0627135 53.1169537,22.8814095 53.518147,22.7339811 C53.7661346,22.6540304 54.0357251,22.6752837 54.2680772,22.7931023 C54.4163518,22.999729 54.4651479,23.2614113 54.4012885,23.5074829 C54.2187397,24.2859115 53.9769859,25.0495598 53.7401658,25.8674024 C53.3503994,25.5471628 53.5625507,23.5419702 51.9393464,25.1382415 C51.7567976,23.0197334 50.7009747,24.0839142 49.8622369,24.3253256 C49.9411769,25.9610109 50.1483945,27.6262569 48.7028052,28.8973618 L49.2405842,27.6705978 L47.1486734,26.5965634 L46.9217208,26.9266565 L47.6223136,27.7395724 L44.1686873,25.5865769 L44.2426936,27.7839133 L42.5405492,27.9464965 L42.3333317,27.020265 L41.9583665,26.9709974 L40.8828086,31.3361095 L40.3894335,31.4986927 L41.869559,32.4150706 C41.5439314,32.6219947 41.2380388,32.9717949 40.8828086,33.0062822 C40.4048579,33.0180658 39.9577639,32.771288 39.7135095,32.3608763 L37.3749111,32.907747 L37.5722612,30.7153374 L39.2596043,28.1189332 C36.9308735,27.2961638 35.9589244,27.9267894 35.6974355,30.0600779 C35.6184955,30.7054838 34.893234,31.2720616 34.4541301,31.8731267 L33.9607549,31.7795182 L33.2946984,29.3161366 L31.3902702,29.0550182 L32.6977144,30.4542189 L31.1435826,30.7202641 C30.4035198,29.5871086 30.1074947,28.5426348 31.9231154,28.059812 L30.4331224,26.3009576 C29.7670659,26.9857777 29.1503469,27.665671 27.8083664,27.0104115 C26.584796,26.4142732 26.3282409,28.3258572 25.3414905,28.6460969 C25.0849354,28.7249251 24.9369229,29.1387732 24.734639,29.3949648 L25.6819194,30.0699314 L23.7577562,32.9915019 C25.555209,33.2284485 27.379747,32.8442388 28.9283281,31.9026873 C29.2936602,31.6838787 29.7168386,31.5808107 30.142031,31.6070815 C31.0399738,31.6563491 31.9329829,31.8287858 32.825992,31.9519549 L33.0825471,31.4592786 C33.2960972,32.1159319 33.556612,32.7564174 33.8620799,33.3757895 C34.0298274,33.6713952 34.4393288,33.8241249 34.7550889,34.0359757 C35.5346217,35.7209287 35.3323379,37.1004224 34.2617137,38.253285 L35.549423,38.1251891 C35.5115662,38.4070833 35.5402898,38.6939125 35.6332967,38.9627388 C35.7418393,39.1844432 36.1612082,39.2534179 36.4473658,39.3913672 L36.2500157,39.8101421 C35.9145206,39.7066801 35.5839592,39.583511 35.2632654,39.5096096 C34.8093602,39.4110743 34.1729062,39.1351756 33.9311524,39.3322461 C33.6004616,39.6861271 33.4788636,40.1867749 33.6104585,40.6526186 C34.5330701,42.037039 33.4969822,42.8844423 32.806257,44.0126711 L30.4183211,41.9976249 C30.857425,41.4014866 31.2669264,40.7757877 31.7652353,40.228917 C31.9576517,40.0121394 32.3523518,39.9727253 32.8358595,39.7805815 L32.0661942,37.607879 L33.0529446,36.7654025 C30.9264975,36.7407687 28.849388,36.8984251 26.8413511,36.6077461 C25.9039382,36.4747235 25.0948029,35.464737 24.1228538,34.7749902 L20.9800539,35.6962949 L21.8631955,37.3960282 L17.6349702,35.6125399 L17.5017589,37.4699296 C15.9476271,37.6029522 15.3309081,38.5932316 15.5874632,40.2634043 C15.7996146,41.6576783 14.5217728,43.0125381 15.4542519,44.4363727 C15.7009395,44.8157334 15.9476271,45.2049477 16.1696459,45.5843085 L16.5890148,45.4020183 L16.2633872,47.2347741 L16.406466,47.3924306 C17.9260616,48.9295807 20.3287987,47.1559459 21.8779968,48.8261186 C22.0408106,49.0034821 22.9930247,48.4467579 23.9304375,48.1068112 C24.3684149,48.6356505 24.7365267,49.2184966 25.0257304,49.8410318 C25.0849354,49.9986883 24.1376551,50.5307787 23.4913336,51.0086747 L24.5323552,51.9201259 L24.03898,53.2602055 L25.9828782,52.3438275 L26.0914208,51.5752525 C27.5715463,53.0532814 28.133994,50.8165309 29.426637,50.6884351 C29.3970345,49.3089414 30.0877597,48.2693944 31.6813616,47.7767181 C32.090863,47.6486222 32.3375505,46.8652669 32.5793044,46.34303 C32.7109525,45.8513958 32.9695492,45.4028905 33.3292347,45.0423646 L34.0692974,46.6090752 L38.509674,45.4266521 L39.4273519,46.9440951 L38.0162989,47.5254532 L38.1741789,47.9688619 L40.3647647,47.3677968 L40.6262535,49.5651331 L38.3073902,49.7080092 L39.3237431,51.7279821 L38.8599704,51.9546132 L38.3024565,50.9692606 C37.8090813,51.7230554 37.4193149,52.3930951 36.9506085,52.9892335 C36.7680597,53.2207914 36.3141545,53.4819098 36.1069369,53.4030816 C34.7057514,52.8611376 33.3341684,52.2354387 31.8737779,51.5998863 C32.1648692,53.9253185 31.8737779,55.8566096 29.7374634,57.0193257 C29.6190533,57.0833736 29.4809083,57.3297118 29.5203783,57.4282471 C30.0384222,58.7633999 28.809918,59.8374342 28.9776656,61.15288 C29.0467381,61.7194578 28.652038,62.3500834 28.4497541,62.9511485 L26.6341335,63.0644641 C26.5354584,62.4929596 26.2493008,61.9165283 26.3923796,61.4632661 C26.6736035,60.5567417 26.4663859,59.6748511 25.6523169,59.6748511 C25.0257304,59.6748511 24.3942102,60.5665952 23.7774912,61.0789785 C23.4419961,61.3548773 23.1213022,61.6554098 22.7907408,61.9460889 L22.8400784,61.901748 L23.7084187,63.212267 L21.6214417,63.1876332 L20.1018461,65.7643303 L19.6331397,65.6165274 L19.7416822,64.2025464 L16.5544786,65.8628655 L16.1055072,65.4637977 L17.5264277,61.6357028 L18.7746669,62.1628664 L17.7879165,60.4926937 C16.5199423,61.4484858 15.2865044,62.6161286 13.564625,60.8474207 L12.0203607,64.5523466 L10.5402352,66.0944234 L11.8674144,66.8827055 L11.7934081,67.2965536 L10.0024562,67.6118665 C10.04686,68.2917598 10.145535,68.9913601 10.1307338,69.681107 C10.090348,70.2360946 10.0112156,70.7875902 9.89391367,71.3315726 L8.3348481,70.9817724 C7.64349541,71.2328565 6.93435902,71.4321215 6.21333484,71.5779108 C4.85655309,71.740494 4.47665421,72.3760464 5.08350568,73.5732498 L3.69218767,73.8885627 L3.63298265,73.4500808 L0.0214763436,73.8787092 C-0.244946253,75.8494144 2.03938082,74.9576703 2.88798613,75.8494144 L2.47355098,75.1695211 C3.79579646,74.8147942 5.06870442,74.4699207 6.35147989,74.1349008 C6.45993903,74.1050651 6.57591332,74.1211004 6.67217375,74.1792417 C7.56024907,74.9379632 8.44339064,75.7065383 9.5534848,76.6721839 C10.4612951,76.460333 10.8263928,75.4454198 10.7178502,74.1644614 C10.6377125,73.7144322 10.7643111,73.2522617 11.0626748,72.9056188 C11.3610384,72.5589758 11.7995884,72.3645491 12.2571808,72.3760464 C13.9889277,72.3760464 14.339224,71.4153276 14.4280316,70.0407607 C14.507937,69.5413963 14.6200011,69.047696 14.7635267,68.5627317 L15.1039556,71.3709867 L16.8011662,69.6958873 C17.3586801,70.6270455 17.4080176,71.5434234 16.3373935,72.3908267 C16.0315009,72.6322381 15.9920309,73.2135961 15.691072,74.0018782 L18.9572157,70.5137299 C18.759221,69.8177369 18.6043369,69.1102285 18.493443,68.3952218 C18.4490393,68.015861 18.6957269,67.2620663 18.8486732,67.2522127 C20.1511836,67.1783113 21.4635616,67.2522127 22.7956746,67.2522127 L23.2890498,67.7448891 L23.5308036,65.0992173 L24.1820588,66.0254487 C25.4253643,65.6559415 26.6489347,64.8430256 27.438335,65.1681919 C28.3806816,65.5672598 28.9184606,66.9122661 29.8164034,68.0946892 L27.6800889,68.3410274 C28.035319,68.7893628 28.6076342,69.3707209 28.5385617,69.4594026 C28.1361653,69.9318304 27.6555466,70.3317786 27.1176412,70.6418258 C26.9942974,70.720654 26.5699947,70.5137299 26.4269159,70.3265129 C26.2838371,70.1392959 26.3627771,69.8338366 26.3381084,69.5924252 L27.1965812,69.5924252 L27.319925,69.1588701 C26.9200299,69.0041754 26.5023689,68.8999081 26.0766195,68.848484 C25.0306642,68.848484 24.557024,69.3805744 24.8234466,70.4940229 L25.5684431,70.0013466 L25.9779445,70.3117327 C24.2708664,72.0607336 22.1838894,73.5387625 21.794123,75.9134623 C21.118199,75.6326368 20.5705525,75.2040084 20.3139974,75.3321043 C18.3404967,76.3470175 18.3404967,76.3815048 17.1810651,74.5339687 L11.5911243,77.4900265 C11.6996668,77.7215844 11.9068844,78.1206522 12.0844995,78.5295736 C12.2867833,79.0222499 12.4446633,79.5149262 12.6617484,80.0076025 C12.7554897,80.2145265 13.007111,80.3524759 13.0811173,80.5594 C13.1896599,80.8796396 13.3623412,81.3181215 13.2340636,81.5447526 C12.8285939,82.0918926 12.3708982,82.5984398 11.8674144,83.0572689 C11.6947331,86.0970817 11.6947331,86.0970817 13.2241961,87.3287725 L11.0681466,86.9986794 L10.9152003,87.3878937 L13.5300887,88.4767083 L15.0102143,86.1759099 L15.9130908,83.8849651 L16.327526,84.032768 L16.0463021,84.9934868 L18.7894681,84.0968159 L18.9818845,84.4564696 L17.7879165,85.3285067 L19.2137708,87.0627273 C19.8502248,85.7423548 20.6297576,85.5846984 22.2628294,86.4468819 C21.892798,89.0777734 19.7959535,89.9744443 17.600434,91.0139913 C17.8637485,91.2987915 18.1680401,91.5428762 18.5033105,91.7382255 C18.9424144,91.9057355 19.6972785,92.1570004 19.8748935,91.9648566 C20.7811236,91.0425278 21.5578708,90.0017024 22.1838894,88.8708494 C22.9053994,87.2281293 23.5410634,85.5491303 24.0883176,83.8406242 L24.0291125,88.9348973 L24.6458315,89.0482128 C24.2067276,86.1562029 25.7608594,84.5008105 27.976114,83.2543394 L27.6554201,82.5744461 C29.4907758,82.3576685 29.5894508,82.1113304 28.4349529,80.4657915 L31.2323901,81.5053385 L32.3375505,80.2095998 C33.2206921,80.8205184 31.0054376,81.9684542 32.9937395,82.0866965 L33.3736384,81.1801721 C33.5068497,80.8254452 33.8423448,80.3968168 33.7387361,80.1307716 C33.1861559,78.7118638 34.3801238,78.603475 35.2780666,78.1994804 L34.9771078,79.0912246 L36.422697,78.6773764 C36.1908107,80.2490139 39.1115918,81.0225157 37.2170311,82.9784407 C37.9028226,83.1755112 38.5935478,83.1952182 39.0227842,83.5351649 C40.3450297,84.5747119 39.4372194,85.7965492 38.9093079,86.7277074 C38.1429152,87.9262395 37.2442859,89.0351275 36.2302807,90.0335655 C35.4655492,90.8612617 35.4063442,90.811994 35.2435304,92.2555356 L38.1544439,89.6246441 L38.0014976,89.1319678 L39.5852319,90.0483458 L39.5506957,90.0089317 L40.3647647,87.6687192 L40.7101273,88.7082662 L41.6278052,87.6539389 L42.2149216,88.9595311 C41.4896601,86.9543385 44.0502773,87.4815022 44.3413686,86.111862 L43.1276657,86.4271749 L43.3644858,85.1018756 L44.0946811,85.2841658 L45.1209014,81.224513 C45.5008003,81.2590003 45.8757655,81.2984144 46.2507306,81.3378285 C46.3543394,79.6627291 47.5828436,80.3524759 48.4511839,80.2982815 L48.6534677,81.6432879 C49.3012438,80.8980694 49.9914676,80.1907286 50.7207097,79.5247797 C51.3472962,78.9976161 52.0084189,78.6379623 51.4854412,77.6526097 C51.43117,77.5540745 52.0133527,76.8889614 52.2945765,76.8938882 C53.2434536,76.9580687 54.1875432,77.0798203 55.1216163,77.2584687 C54.2779447,78.7364976 54.4555598,80.3574027 55.7087328,81.9536739 L56.3303855,81.1456848 C55.605124,80.746617 54.988405,78.6823032 55.624859,78.229041 C56.1725054,77.8250464 57.5539559,77.6575365 57.8746498,78.0122634 C59.0587502,79.3227824 60.5635445,78.8793737 61.7377774,78.6921567 C63.0402879,78.4852327 64.0023695,78.6921567 64.6338897,79.6134614 C66.1140153,81.7763105 68.1713898,82.9340998 70.4902531,83.9293059 C71.9259749,84.5451513 73.1840816,85.5699181 74.7332797,86.5454172 C71.3733947,85.7325013 70.6580007,88.9496776 68.6795662,90.2158557 L66.0745453,88.7378268 L65.8574602,88.9890917 C66.293431,89.6364677 66.7889549,90.2418 67.3375857,90.7972138 C68.1121848,91.4869606 68.4279449,91.9796369 67.3030495,92.6102626 C67.0464944,92.7531387 67.0267594,93.2753756 66.7850055,93.5069335 C66.3646159,93.9570643 65.8623118,94.3232268 65.30488,94.5858946 C64.5804438,94.8137994 63.8376069,94.9786404 63.0846917,95.0785709 C63.1872817,95.7452882 63.3373189,96.4038578 63.5336631,97.0492762 C63.913562,98.0789697 64.5549497,98.384429 65.324615,97.3744425 C65.8722614,96.6600619 66.3459016,95.8964136 66.8491443,95.1426188 C68.008576,96.1673856 67.9049672,97.0344959 66.5481854,98.2563331 C66.2083081,98.6451849 65.9167467,99.0736363 65.6798451,99.5323648 L66.5037817,100.079235 C65.8278577,100.571912 64.9792524,101.187757 64.1109121,101.788822 C63.2425717,102.389887 62.2903576,103.02544 61.1999985,103.759528 C60.7628928,104.497057 60.2679698,105.198852 59.719873,105.858329 C59.4633179,106.139154 58.5505738,106.286957 58.407495,106.11452 C57.931851,105.475349 57.552838,104.769856 57.2825996,104.020646 C57.1570664,103.575779 57.0842072,103.117747 57.0655145,102.655933 L56.4537293,102.739688 L56.7744231,105.296678 C56.2021079,105.661258 55.3979064,103.473775 54.9292,105.089754 L53.2467906,104.050207 L52.921163,104.350739 L53.4737432,105.41492 C51.8308039,105.41492 51.3966337,105.139021 50.3654796,103.596944 C49.8967732,102.897344 47.5927111,102.788955 45.9793742,103.39002 C46.5368882,105.809061 49.2208492,102.813589 49.8622369,104.813855 C48.4215814,105.799207 47.0302634,106.78456 45.5945416,107.735425 C44.4597787,108.47444 43.5815709,108.144347 43.0487257,106.961924 L45.0814314,105.089754 L44.8446113,104.74488 L42.9796532,105.730233 L42.2593254,102.995879 C40.7051936,103.079634 40.3302284,103.981232 40.458506,105.360726 C40.557181,106.439687 39.106658,107.242749 39.8467208,108.494147 C40.0144683,108.774972 39.9848658,109.17404 40.1279446,109.947542 L35.6382305,106.942217 L35.4310129,105.464188 L33.5759222,106.222909 L33.9607549,110.317049 L34.4541301,109.228235 L35.1843253,110.479632 L33.5167172,111.218647 L33.7140673,111.918247 L32.4164906,111.726104 C32.4756956,110.982162 32.8210582,110.060858 32.5102319,109.696277 C32.1994055,109.331697 31.2175889,109.346477 30.5367311,109.203601 L29.8558734,110.134759 L31.0843776,111.415717 L31.7010966,111.001869 L30.3739173,111.987222 C31.1435826,112.277901 32.248743,112.361656 32.5003644,112.869113 C32.8802632,113.637688 32.6582444,114.701868 32.7125157,116.155264 L30.739015,115.169911 C30.2307334,116.432722 29.2505422,117.448628 28.0057165,118.0028 C26.8956223,118.495476 27.0831049,119.530096 28.4990917,120.618911 L27.4728713,122.042746 L29.8706747,121.057393 L29.8065359,126.255128 L27.4926063,124.506127 L29.3131607,124.126766 C28.8197855,123.574969 28.4892242,122.880295 27.976114,122.707859 C27.6406188,122.594543 26.6982723,123.200535 26.644001,123.545408 C26.5833659,124.376035 26.8021469,125.203104 27.2656537,125.895474 L26.8117485,127.146872 L27.6356851,126.806925 C28.5878992,128.531293 29.8410721,129.08309 31.6616266,128.619974 C32.0684685,128.579342 32.4783551,128.579342 32.885197,128.619974 C33.2502946,128.619974 33.7535373,128.698803 33.9607549,128.496805 C36.462167,126.062984 39.9996671,125.609722 42.8415081,123.81638 C43.561338,123.268355 44.236124,122.66372 44.8594126,122.008258 C46.3987431,122.668444 48.4462501,122.067379 50.3506783,122.919709 C52.4571088,123.881328 54.6767913,124.573272 56.956972,124.979096 C59.7640233,125.516438 62.6673807,125.216575 65.30488,124.116913 C68.186191,122.885222 70.850417,120.870176 74.3139108,121.298804 C76.8438865,121.541861 79.2886373,122.341042 81.4727846,123.639017 C83.332809,124.801733 84.9609471,126.402931 86.8999116,127.329162 C89.6393073,128.696014 92.5262043,129.74566 95.5043747,130.457657 C98.5484995,131.117843 101.755438,130.994674 104.878503,131.329694 C107.43912,131.605593 109.876394,132.206658 111.238109,134.778428 C111.601876,135.402515 112.109247,135.931122 112.718235,136.320505 C117.079671,139.276563 118.441387,143.651529 118.742346,148.553658 C118.800904,149.714609 118.757982,150.878448 118.614068,152.031953 C118.05162,156.958716 112.367938,158.904787 108.396268,160.58974 C107.128294,161.126757 104.503538,162.067769 104.089103,162.067769 C107.621669,162.121964 109.980002,161.885479 111.326917,161.865772 C114.972959,161.821431 118.623936,161.737676 122.269978,161.77709 C123.399807,161.77709 124.189208,161.77709 124.282949,160.343402 C124.317485,159.796531 124.884867,159.279221 125.269699,158.663376 C126.601812,159.850726 123.86358,161.619434 125.990027,162.481617 L126.843566,160.461644 C128.58518,162.62942 134.668496,163.442336 139.557844,162.121964 C139.612116,163.329021 141.176115,163.107316 145.887848,162.550592 C143.914347,161.60958 140.796216,160.466571 139.296356,159.594534 C138.097454,158.890007 136.992293,158.116505 136.82948,156.372431 C136.656427,153.807498 136.221648,151.266903 135.531903,148.790143 C134.249127,144.57776 135.18654,140.715178 137.012028,137.025032 C138.109909,134.678391 139.568143,132.51741 141.333995,130.62024 C143.741666,128.156859 146.603242,126.141812 149.316805,123.988817 C151.05842,122.604397 152.864173,121.298804 154.694595,120.047406 C155.18335,119.683578 155.777263,119.488193 156.386872,119.490682 C158.306101,119.672972 160.220397,119.983359 162.124825,120.303598 C163.234919,120.490815 164.759449,119.589217 165.99782,118.392014 C166.810539,117.622251 167.768067,117.021085 168.814992,116.623306 L170.729288,115.869511 C174.164287,114.520934 178.058361,115.098963 180.952022,117.386954 C181.835163,118.081628 182.708438,118.786155 183.576778,119.490682 C185.426935,120.968711 187.296827,122.254596 189.788371,122.121574 C190.505522,122.077172 191.225407,122.126864 191.92962,122.269377 C193.409745,122.663518 194.396495,121.74714 195.34871,120.988418 C196.562413,120.003066 197.815585,120.003066 199.192102,120.185356 C201.224808,120.446474 203.267381,120.678032 205.314888,120.766714 C205.896966,120.762356 206.455115,120.534827 206.873954,120.131161 C210.071025,116.80067 213.381572,113.549006 216.302353,109.986956 C217.624599,108.370978 219.509292,107.567915 220.74273,105.981498 C221.976168,104.39508 223.051726,102.754468 225.183107,102.286425 C225.276848,102.286425 225.365655,102.15833 225.429794,102.069648 C227.284885,99.6062662 228.320973,96.8324986 228.108821,93.7976125 C227.827598,89.772447 227.122071,85.7768421 226.811245,81.7516766 C226.623762,79.4410247 226.880317,77.1500799 228.903155,75.4749804 C229.624245,74.793169 230.29532,74.0604776 230.911192,73.2825708 L231,65.646088 C230.777981,65.562333 230.432619,65.5918936 230.432619,65.5376992 Z M25.272418,47.9787154 C26.5305247,47.2298474 27.5320763,46.614002 28.5582967,46.052351 C28.730978,45.9587425 29.0516719,46.0819116 29.2687569,46.1065454 C29.2194194,46.3725906 29.2687569,46.7765852 29.1059431,46.884974 C28.2195113,47.529671 27.2842123,48.1045511 26.3085059,48.6044143 C26.1111558,48.7226566 25.6177806,48.2201268 25.272418,47.9787154 Z M27.0041649,49.4863049 L29.0418044,47.6289152 C29.5302458,49.4912317 29.5302458,49.4912317 26.9992311,49.5060119 L27.0041649,49.4863049 Z M29.9644159,44.2934966 L28.5730979,44.1506204 L29.1355456,42.0665996 L30.3640498,42.0222588 L29.9644159,44.2934966 Z M36.0427981,34.1837786 L34.7797577,34.0606095 C35.1448553,32.158879 35.1645903,32.1440987 37.0936873,31.3656701 L36.0427981,34.1837786 Z M24.2017939,79.2143936 C24.0065125,79.6624861 23.6020545,79.9852253 23.1213022,80.0765772 C22.0945347,80.1436537 21.0644749,80.1436537 20.0377073,80.0765772 C20.5310825,79.4607318 21.058994,79.1207851 21.118199,78.7118638 C21.4142241,76.7017444 22.5983245,77.3570039 23.5850749,77.9088014 C23.9945346,78.2151145 24.2254918,78.7040503 24.2017939,79.2143936 Z M27.5616788,82.5498123 L24.8826516,84.0278412 C24.616229,81.6285076 24.8826516,81.4659244 28.0599877,81.5644596 L27.5616788,82.5498123 Z M33.0332095,117.756462 L32.5052981,120.067114 L31.7010966,120.003066 C31.7455003,119.623705 31.7849703,119.239417 31.8392416,118.860057 C31.9428504,118.140749 32.0563267,117.426368 32.1599355,116.726768 L33.8670136,117.022374 L33.1170833,114.785623 L33.9212849,114.603333 L34.3702563,118.52011 L33.0332095,117.756462 Z M162.297506,24.837709 L163.353329,25.7343798 C163.007967,25.8526222 162.568863,26.1137406 162.455386,26.0152053 C161.932409,25.5520896 161.167677,25.522529 160.649633,25.0298527 L162.297506,24.837709 Z M162.016283,30.1635399 C161.98668,31.8583464 160.669368,32.7697976 160.565759,34.2527533 L159.697419,33.6467614 L162.016283,30.1635399 Z M159.929306,83.3725817 L158.814278,81.8009443 C160.052649,81.4363638 160.629898,82.0423557 161.123273,82.825711 L159.929306,83.3725817 Z M159.43593,74.8985491 L160.629898,76.3765781 L160.254933,76.7707191 L158.197559,76.0612652 L159.43593,74.8985491 Z M156.041509,32.5283862 C155.873762,31.7795182 155.706014,31.0503573 155.548134,30.2817822 L156.09578,30.0748582 C156.589156,31.2080137 155.9379,33.2033527 158.217294,33.030916 C156.717433,34.1837786 156.391805,34.0704631 156.036575,32.5136059 L156.041509,32.5283862 Z M158.01501,29.4442325 L156.919717,30.1339793 L156.273395,27.9317162 L156.766771,27.7740598 L158.01501,29.4442325 Z M152.859239,19.2507596 C154.403504,20.906152 154.24069,17.8515588 155.409989,18.0338491 L156.544752,19.5660724 L154.16175,21.2017578 C152.760564,20.0883093 151.245902,20.5070842 150.752527,22.132916 L149.41548,21.113076 L152.859239,19.2507596 Z M149.114522,24.5273229 L151.581397,23.1675363 C152.074773,24.5076158 148.221513,24.6455652 150.713057,26.3452985 L148.907304,26.6014902 L149.114522,24.5273229 Z M149.015847,30.9025544 C149.37601,30.9961629 149.543758,31.7795182 150.323291,31.3410363 C150.520641,31.2277207 151.379114,31.720397 151.443252,32.0357099 C151.502749,32.7546349 151.469586,33.4782126 151.344577,34.1887054 L150.851202,34.1887054 L150.357827,32.7106764 L151.028817,32.9176005 L151.2163,32.7156032 C150.949877,32.4643383 150.555177,31.9519549 150.431833,32.0110761 C149.848188,32.2940295 149.313543,32.6682497 148.848099,33.1195978 C148.739556,33.2230598 149.001045,33.7058826 149.173727,34.2773871 L148.038964,33.7403699 L148.063632,31.4691321 L147.63933,31.4395715 L147.145955,33.5580797 L144.333716,34.1148039 L146.573639,31.9568817 L146.011192,30.5675345 C147.150888,29.0303844 148.088301,30.6414359 149.025714,30.8927008 L149.015847,30.9025544 Z M145.068845,112.499605 C144.684012,111.18416 146.016125,109.4795 147.654131,109.277502 L147.501185,108.129566 L147.99456,107.98669 L148.690219,110.129832 C147.027545,109.504133 146.267747,110.494413 145.665829,111.844346 C145.506435,112.089826 145.308144,112.307803 145.078713,112.489752 L145.068845,112.499605 Z M147.900819,103.138755 C148.293465,103.502334 148.735225,103.809138 149.213197,104.050207 C149.341474,104.099474 149.736174,103.429434 150.328225,102.680566 C149.810181,104.533029 149.686837,106.070179 151.96623,106.41998 L151.57153,107.011191 L149.918723,106.518515 L149.726307,107.883228 C147.930421,104.872976 146.958472,104.808928 147.925487,103.114122 L147.900819,103.138755 Z M151.49259,88.8954832 L149.691771,87.6046712 L149.820048,87.0528738 L147.269298,89.3241116 L147.910686,86.9247779 L143.929148,87.9101306 L146.213476,88.6984127 L146.154271,89.1368946 C145.139275,89.0842279 144.127964,88.9756741 143.124947,88.8117282 C143.006537,88.8117282 143.065742,87.900277 143.041073,87.4125275 L143.534448,87.3681866 L142.700644,86.0330338 C143.263092,85.633966 143.90448,84.8407571 144.348517,84.9343656 C145.698926,85.3189876 147.01834,85.8048323 148.295519,86.3877607 C149.37601,86.7375609 150.481171,87.02824 151.522192,87.4716486 C151.76888,87.5751107 151.80835,88.1761758 151.946495,88.545683 L151.49259,88.8954832 Z M143.712063,38.2138709 C143.492069,38.3222285 143.243425,38.3584378 143.001603,38.3173329 C142.897994,38.2926991 142.764783,37.8246566 142.828922,37.7901692 C142.976934,37.6522199 143.322297,37.6965607 143.435773,37.5487578 C144.289312,36.381115 145.902649,36.3663347 146.785791,35.3070806 C146.894333,35.1789848 146.696983,34.7848437 146.627911,34.4448971 L149.361209,35.2479594 C148.339923,35.8293175 147.466648,36.3515544 146.568706,36.8195969 C145.670763,37.2876394 144.674145,37.7704622 143.712063,38.2138709 Z M144.639609,26.6704648 C144.933483,26.2052786 145.26341,25.7638032 145.626359,25.3500923 L147.392642,28.040105 C146.613109,28.6313166 146.001324,29.1387732 145.315533,28.040105 C145.211924,27.8775218 144.753085,27.9415697 144.284379,27.8775218 C144.365448,27.4651375 144.48436,27.0610805 144.639609,26.6704648 Z M143.050941,27.6164034 C143.39137,27.6755245 143.652858,28.2076149 144.037691,28.6411701 C142.37995,28.8431674 140.875156,29.3259902 140.440986,27.5425019 C141.31156,27.4982252 142.184278,27.5229364 143.050941,27.6164034 Z M140.939295,87.525843 L140.914626,89.7872273 L140.342311,89.856202 L139.261819,88.1269081 L140.939295,87.525843 Z M134.757304,104.597077 L136.035146,104.429567 C135.744054,105.725306 137.470867,108.168981 138.798047,108.484293 C138.694438,109.780032 138.09252,110.592948 136.71107,110.661923 L136.71107,110.637289 L135.724319,109.316916 L136.331171,108.055665 L133.405456,106.902802 C133.701481,106.217982 136.360773,106.607197 134.757304,104.592151 L134.757304,104.597077 Z M132.206554,38.085775 L131.382618,39.2238573 L132.719664,39.6721927 L132.719664,41.1502217 C130.321861,39.6771195 130.277457,39.3716602 132.20162,38.0759215 L132.206554,38.085775 Z M133.311715,104.404934 L133.045292,105.23263 L130.913911,104.789221 C131.165533,104.464055 131.407286,103.853136 131.658908,103.86299 C132.231029,103.960035 132.786074,104.139256 133.306781,104.39508 L133.311715,104.404934 Z M131.831589,74.4255799 L129.103224,75.4454198 L130.341596,72.9524777 L131.831589,74.4255799 Z M129.586732,36.7949631 L127.183995,36.7654025 L128.170745,38.7361077 L124.13987,38.6868401 C124.356955,38.2237244 124.460564,37.4896367 124.800993,37.3516873 C126.16631,36.8354256 127.561858,36.402711 128.979881,36.0559486 C129.167363,36.0017542 129.443653,36.3367741 129.581798,36.7851095 L129.586732,36.7949631 Z M127.568828,47.466332 L126.858367,49.6883022 L126.41433,49.7572769 L125.758141,46.801219 L127.568828,47.466332 Z M123.473814,68.3163936 L124.1004,68.1636639 C124.238545,69.2524786 124.386558,70.3412932 124.470431,71.4301079 C124.470431,71.4301079 123.597157,71.6961531 123.439277,71.5335699 C123.152274,71.1339139 122.933852,70.6893637 122.792956,70.2181242 C124.194141,69.991493 123.370205,68.9913601 123.46888,68.3065401 L123.473814,68.3163936 Z M127.628033,26.6803184 C127.67737,26.6803184 127.736575,26.9463636 127.840184,27.0448988 C128.062203,27.2715299 128.333559,27.4686005 128.565445,27.685378 L127.489888,28.4785869 L126.641282,26.8527551 C126.961976,26.7936339 127.317206,26.7246592 127.623099,26.6704648 L127.628033,26.6803184 Z M125.654532,27.0498256 L126.641282,26.8576818 C126.670885,28.5229278 126.325522,29.1436999 125.027945,28.5869757 C124.81086,28.4933672 124.189208,28.9564829 123.986924,29.2964296 C123.735302,29.7201312 123.720501,30.2817822 123.251795,30.8089459 L123.07418,27.5868428 L125.654532,27.0498256 Z M121.949284,29.2028211 L121.455909,30.3655372 L120.000452,29.7102777 C120.331014,29.3752578 120.868793,29.3161366 121.944351,29.1929676 L121.949284,29.2028211 Z M119.916579,29.7496918 L120.498761,31.4789857 L119.285058,32.1638057 C119.196251,31.971662 119.043304,31.7992253 119.082774,31.6711294 C119.423203,30.6315824 119.605752,30.0748582 119.916579,29.7496918 Z M116.487621,41.3571457 C117.109274,41.2093428 117.745728,41.1305146 118.377248,41.0221258 L118.337778,40.5787172 L120.148465,41.8054812 L120.074459,40.603351 L120.360616,40.4949622 L121.164818,42.2636701 L121.658193,40.5245228 L121.268427,40.0318464 L122.654811,40.1156014 C122.61195,40.764213 122.501158,41.406556 122.324249,42.0321123 C121.953877,42.7938356 121.526728,43.5267006 121.046408,44.2245219 L120.740515,42.4262533 C119.704427,42.2291828 119.408402,42.9189296 119.166648,43.6825779 L113.808594,42.1109405 C114.884152,41.8005544 115.683419,41.5739233 116.497489,41.3620725 L116.487621,41.3571457 Z M120.646774,52.3684613 L120.622105,54.6052118 L122.378521,54.5263836 L119.911645,55.7580744 C120.79972,54.8761838 118.520327,53.0385011 120.656641,52.3684613 L120.646774,52.3684613 Z M116.443217,79.9583349 C116.03865,80.2145265 115.456467,80.4017435 115.318322,80.7564705 C114.824947,82.2344994 113.996076,81.805871 113.122802,81.3230483 L113.80366,79.4705853 C114.03219,79.4445426 114.255249,79.383039 114.464783,79.2882951 C114.903887,79.0665907 115.313388,78.5246468 115.708088,78.5492806 C116.527091,78.5837679 116.818182,79.1601992 116.462952,79.9435546 L116.443217,79.9583349 Z M115.683419,97.5616595 C116.546826,98.3253078 116.329741,99.8575311 115.219647,100.025041 C113.36949,100.335427 113.443496,101.764188 113.009326,103.36046 L112.762638,101.498143 L111.430525,102.128769 L112.372872,100.517717 L109.935599,100.345281 C110.172419,99.2416858 110.216823,98.1183838 111.874563,98.2070655 C112.234727,98.2070655 112.629427,97.6060004 113.01426,97.2906876 C113.315219,97.0443494 113.621111,96.7980112 114.213161,96.3398223 L113.191875,93.6350293 C114.933489,91.7382255 115.708088,94.7041369 117.138876,94.3838973 L117.405299,95.0243765 L115.042032,97.1133241 C115.269548,97.2390275 115.485789,97.3840829 115.688353,97.5468792 L115.683419,97.5616595 Z M109.175801,97.4237102 C108.981383,97.8319746 108.894764,98.28311 108.92418,98.7342292 C108.935617,99.1379007 108.98017,99.5399568 109.057391,99.9363594 C106.980281,97.719316 109.195536,96.22158 109.67411,94.0242436 C110.137882,96.0787038 110.103346,96.0589968 109.185668,97.4089299 L109.175801,97.4237102 Z M109.175801,104.0305 L108.628154,104.0305 L108.075574,100.773909 C108.460407,100.847811 109.156066,100.897078 109.165933,100.990687 C109.254741,101.995746 109.210337,103.005733 109.195536,104.015719 L109.175801,104.0305 Z M112.022576,89.4571342 C111.899232,87.4864289 113.76419,87.3484796 114.800278,86.5010763 C114.681868,87.6834995 113.270815,89.2009425 112.022576,89.4571342 Z M111.109832,52.6887009 L111.277579,51.5801792 C111.321859,51.0866168 111.457358,50.6055235 111.677213,50.1612714 C112.585023,53.2848393 112.575156,53.3045463 110.868078,53.6100056 L111.144368,52.6985545 L111.109832,52.6887009 Z M114.854549,57.4381006 C116.625766,56.5414297 117.977614,56.9848384 118.199633,57.9307769 C117.778736,58.1152015 117.326823,58.218827 116.86752,58.2362362 C116.170341,58.0368004 115.494462,57.769472 114.849615,57.4381006 L114.854549,57.4381006 Z M107.87329,26.6950987 C108.567541,27.029572 109.23695,27.4131957 109.876394,27.8430345 C110.489114,28.3605388 111.059917,28.9255914 111.583472,29.5329142 C112.076847,30.0551511 112.525818,30.6168021 113.13267,31.326256 L110.019472,31.6809829 L110.690463,29.3851113 L109.264608,30.4148048 L107.458855,28.5919025 L108.189051,28.2913699 L107.87329,26.6950987 Z M109.67411,50.4420969 L108.386401,50.9347733 C108.869908,50.2056123 109.062325,50.2696602 109.67411,50.4420969 Z M108.134779,51.3387678 C109.022855,52.0925626 110.680595,51.1909649 111.09503,52.6788474 C110.848856,52.5693656 110.592786,52.4835799 110.330299,52.4226557 C109.739921,52.3965115 109.166688,52.216462 108.667624,51.9004188 L107.16283,53.1468899 C107.582199,52.3438275 107.883158,51.7624695 108.134779,51.3387678 Z M102.776725,75.691758 L104.750226,78.9926893 L104.750226,77.6329027 C105.275491,77.8372966 105.772801,78.1071191 106.230351,78.4359651 C106.599846,78.8694329 106.9208,79.3419219 107.187499,79.8450193 C106.560912,80.1898927 105.648168,80.9880284 105.352143,80.8008114 C103.378643,79.5740473 103.990428,81.4807047 103.571059,82.2788403 C103.196094,81.8649922 102.584308,81.2934877 102.623779,81.224513 C103.847349,79.5346332 101.291666,77.8890943 102.776725,75.691758 Z M104.794629,74.2876305 L104.913039,73.6471513 C105.766578,73.6077372 106.620117,73.548616 107.47859,73.548616 C107.685808,73.548616 108.041038,73.7013457 108.075574,73.8392951 C108.11011,73.9772444 107.927562,74.5093348 107.853555,74.5093348 C106.822401,74.4699207 105.810982,74.3713855 104.789696,74.2876305 L104.794629,74.2876305 Z M103.6648,26.2172026 L106.0182,27.3897723 L106.0182,27.9120091 L103.46745,27.8824486 L103.6648,26.2172026 Z M100.531868,56.2162633 C100.625609,55.807342 101.306467,55.5314433 101.96759,54.9993528 C102.021861,56.0536802 102.643514,56.7877679 101.548221,57.2902977 C101.429811,57.3444921 101.513684,57.8470219 101.503817,58.137701 L102.490567,58.137701 L102.396826,59.4777805 L100.423325,59.0984198 C100.452928,57.970191 100.334518,57.0538131 100.526934,56.2162633 L100.531868,56.2162633 Z M100.492398,62.670323 L101.148587,62.9462218 C101.553154,62.5816413 100.748953,60.4828402 102.589242,62.0594044 C103.082617,62.463399 104.562743,61.6849704 105.687638,61.423852 L104.700888,63.2516811 L105.406415,63.9069406 C105.347209,63.9857688 105.268269,64.1335717 105.228799,64.1237182 C104.656484,63.9956223 104.084169,63.8428927 103.339173,63.6310418 L103.146756,65.6017471 L104.513405,65.8480853 L101.360738,70.1195889 C100.768688,67.62172 101.493949,66.0796431 102.347488,64.5671268 C102.081066,63.7000165 99.81154,64.72971 100.487464,62.6653963 L100.492398,62.670323 Z M103.561191,90.3833656 L102.732321,91.2455492 L100.023691,89.0186523 C101.92812,88.5998774 102.623779,89.7478132 103.556258,90.3833656 L103.561191,90.3833656 Z M99.5845874,93.8320998 C100.056392,93.2486482 100.768655,92.9115825 101.519627,92.9163773 C102.270598,92.9211721 102.978487,93.2673052 103.442781,93.8567337 C103.516788,93.600542 103.521721,93.2753756 103.689469,93.0980121 C103.978782,92.8417775 104.294691,92.6171552 104.631815,92.4279723 L103.852283,91.4771071 L107.226969,90.5311685 L105.115323,89.6098638 C106.713859,89.4522074 108.075574,88.0135926 109.718514,88.9940184 L111.992973,89.5162553 L112.742903,90.9203828 L111.169037,90.4277065 C111.943636,91.373645 111.01609,91.4130591 110.532583,91.437693 C109.545832,91.5165212 108.795902,91.5510085 109.052457,92.9502092 C109.101795,93.2359615 107.63647,94.2065338 107.345379,94.0390239 C105.529758,92.9896233 104.607147,94.1720465 103.240497,95.2263738 L103.403311,93.9799027 L102.100801,94.472579 C102.594176,95.2657879 102.594176,96.5565999 104.143374,95.6993431 L104.118705,97.842485 L103.023412,97.3892228 L102.99381,99.6850944 L102.500435,99.6850944 L102.155072,98.2316993 L101.824511,98.1725782 L100.882164,100.478303 L100.739085,100.448743 L100.87723,99.5372915 L99.1109472,98.197212 C100.556537,96.5664534 100.813092,94.5415537 99.5796537,93.8370266 L99.5845874,93.8320998 Z M96.4072513,77.3471504 C95.7263935,77.958069 95.0504695,78.5788412 94.3548105,79.1700528 C94.2561355,79.2538077 93.9453091,79.2587345 93.9058391,79.1946866 C93.7923628,79.0074696 93.6542178,78.6133285 93.7232903,78.5689877 C94.5274918,77.9777761 95.3662296,77.4309054 96.1901662,76.8741811 L96.4072513,77.3471504 Z M91.1133356,4.57393219 L93.3729939,2.03172242 L94.2610692,3.11561031 L91.1133356,4.57393219 Z M90.4768816,30.3704639 C90.7235692,30.6118753 90.4768816,31.3804504 90.4226103,31.907614 L89.7762889,31.7745914 L90.0131089,30.9370417 L88.3553683,31.429718 L88.2270908,30.9715291 C88.898081,30.4985598 89.39639,29.3112099 90.4768816,30.3704639 Z M89.7614876,76.524381 C89.1447686,77.7215844 90.4374116,79.9287743 87.9113307,80.0273095 C89.0806298,79.1355654 87.8718607,76.9628629 89.7565538,76.5293077 L89.7614876,76.524381 Z M86.8999116,13.8313201 C87.1219304,14.5358472 87.368618,15.2305208 87.5314318,15.9449015 C87.5552945,16.2759861 87.5253038,16.6087447 87.4426243,16.9302541 C87.0923279,16.703623 86.4558739,16.4671384 86.4558739,16.2602143 C86.5380913,15.4403176 86.6849142,14.6281698 86.8949778,13.8313201 L86.8999116,13.8313201 Z M87.1663342,30.4640724 L86.771634,31.4494251 L87.5314318,31.2769884 L87.3439492,34.4793844 L86.154915,34.5483591 C85.9921012,35.1642045 86.0069025,35.9968274 85.6220698,36.2776529 C85.2372372,36.5584784 84.4725057,36.2185318 83.8311179,35.7849766 L84.7931995,35.2085453 L83.1601277,31.8090788 L87.1663342,30.4640724 Z M86.075975,28.3061502 C85.6664736,28.6756574 85.2717735,29.059945 84.8474708,29.4146719 C84.5021082,29.7004242 84.1320768,29.9566158 83.7669792,30.2177343 C83.4018815,30.4788527 82.9085064,30.8138726 82.47927,31.1144052 L82.1980461,30.7892388 L84.7685308,26.9118762 L86.075975,28.3061502 Z M83.7620454,15.4620787 L84.6599882,16.6789892 L81.206362,17.3243952 L80.9202044,17.0829838 L83.7620454,15.4620787 Z M79.5042176,41.7956276 L81.8378822,43.2342425 L81.9562923,43.6530173 L79.4894164,43.9584767 L79.5042176,41.7956276 Z M80.3232204,68.0700554 L82.0895036,70.7108005 C81.4135796,70.6418258 81.0238132,70.5827046 80.609378,70.5629976 C80.1949429,70.5432905 79.7311702,70.5629976 79.3562051,70.5629976 L80.3232204,68.0700554 Z M79.3710063,81.3378285 L78.8134924,83.200145 C76.973203,81.1062707 77.091613,79.3277092 79.198325,77.6033421 L80.3725579,78.7463511 L80.8165956,78.0910916 C81.1095827,78.4631131 81.348743,78.8744167 81.5270559,79.3129289 C81.6010621,79.6183882 81.4629171,80.2145265 81.2556995,80.2982815 C80.5009244,80.5815768 79.7278567,80.8136624 78.9417699,80.9929551 L79.3710063,81.3378285 Z M76.0061876,76.7756459 L76.1344652,74.6472842 L78.2905147,75.8149271 L77.2494931,77.3865645 C77.3185656,76.5539415 77.1212155,76.0908258 76.0061876,76.7756459 Z M77.2001555,77.5146604 L76.6821116,81.5644596 L76.2380739,81.6580681 C75.9751134,80.5847089 75.8099813,79.4897853 75.7446988,78.3866974 C75.779235,78.0861649 76.6870454,77.8004126 77.2149568,77.5097336 L77.2001555,77.5146604 Z M77.3777706,73.2677905 C77.837443,73.2728729 78.2956343,73.2148512 78.7394861,73.0953538 C79.1933913,73.0362327 79.6522302,72.9918918 80.1061353,72.9426242 L80.1357379,73.8245148 C79.0503125,73.8245148 77.9599533,73.7259795 76.8843954,73.8245148 C76.6179728,73.8245148 76.3910203,74.2876305 76.1295314,74.5783095 C75.8581751,73.4747146 76.2528752,73.0756468 77.3975056,73.2677905 L77.3777706,73.2677905 Z M72.937394,34.2773871 L73.3172929,34.3611421 C73.4110342,34.7749902 73.534378,35.1839115 73.5886492,35.5977596 C73.6429205,36.0116077 73.633053,36.4500897 73.6478543,36.878718 C73.3962329,36.878718 72.976864,36.9476927 72.917659,36.8343772 C72.6493184,36.3825691 72.4810807,35.878571 72.4242838,35.3563482 C72.3946813,34.9966945 72.7548452,34.6321141 72.9472615,34.2773871 L72.937394,34.2773871 Z M71.4128647,53.5213239 L71.7878298,53.4720563 L72.3650788,55.9748519 L68.6450299,55.1520825 L68.6154274,54.5263836 L71.1513759,54.1519496 L71.4128647,53.5213239 Z M69.4887015,72.3415591 C70.4507831,71.8488827 70.8997545,71.9819054 70.9441583,73.1396947 C71.0326882,73.5503953 71.1894455,73.9433988 71.4079309,74.3024108 L68.80291,74.2728502 C68.2651311,73.3367652 68.6302287,72.7948213 69.5035028,72.3415591 L69.4887015,72.3415591 Z M68.7881087,65.4440907 L69.4837678,64.7641974 C70.0412817,65.375116 70.5987957,65.9811079 71.1217733,66.6166603 C70.933635,66.8155313 70.7307786,66.9999845 70.5149219,67.1684578 C69.9278054,66.6265138 69.3653577,66.040229 68.7979763,65.4539442 L68.7881087,65.4440907 Z M69.8241966,31.5578139 L70.5741269,33.9029531 L69.6367141,33.4102768 L68.5118186,35.1001566 C67.7174846,33.1491584 68.7979763,32.4791186 69.8389979,31.5676674 L69.8241966,31.5578139 Z M67.3079832,30.2768554 C67.5448033,30.119199 68.2108598,30.6069486 68.6795662,30.7990923 C68.4378124,31.158746 68.2799323,31.6760562 67.9395034,31.8534197 C67.2209306,32.1796741 66.4787683,32.4514149 65.7193151,32.6663356 L65.3591513,32.1293184 C65.9510806,31.4517977 66.6088445,30.8345735 67.3227845,30.286709 L67.3079832,30.2768554 Z M66.4051066,72.0410265 C66.0876318,71.2640028 65.8720504,70.4492659 65.7637189,69.6170591 C65.7637189,69.2574053 66.5136492,68.8829713 66.9280843,68.5134641 C67.2418689,68.9364333 67.5254386,69.3809412 67.7766896,69.8436902 C67.0810306,70.4447553 68.4476799,72.4006802 66.4149741,72.05088 L66.4051066,72.0410265 Z M59.5965292,38.7164007 L60.2477844,41.5049486 L59.4929204,41.6872389 L58.6985863,38.9430318 L59.5965292,38.7164007 Z M60.0109643,63.0890979 C59.2898507,61.99208 59.4648441,60.5358672 60.4253995,59.6403637 L62.1522126,62.1628664 C60.6276833,62.837833 59.9714943,64.8282453 58.0621324,64.7444903 L57.751306,64.0892308 L60.0109643,63.0890979 Z M55.9159503,39.6327786 C55.782739,38.0562144 57.0063095,37.8246566 58.0078611,37.233445 C58.9946115,38.750888 57.6279622,39.3026855 56.8040257,40.1895029 C57.7463723,41.3817795 57.2974008,42.1109405 55.6939315,42.4607407 C55.8495607,41.5262554 55.9238445,40.5800656 55.9159503,39.6327786 Z M40.3894335,37.5093437 L40.8482724,36.193898 C39.4470869,35.4006891 39.3681468,34.9375734 40.576916,34.3168012 C41.0406887,34.0753898 41.5241964,33.863539 42.2987954,33.4940318 L44.0897473,37.6522199 L43.4828958,38.00202 L42.6392243,37.0560815 L40.3894335,37.5093437 Z M36.0427981,57.5021485 L39.2398693,57.5415626 L39.3040081,57.1868357 L37.8732201,56.0684604 L38.9981155,56.0684604 L38.8402354,55.0831078 C39.9897996,54.9648655 41.0850925,54.7924288 42.1853191,54.767795 C42.8136683,54.8147352 43.4353979,54.9270164 44.0404098,55.1028149 L41.3021775,58.2066756 L36.481902,59.8571413 C36.304287,59.196955 36.1020032,58.5466223 35.9885269,57.886436 C35.9046531,57.679512 36.0427981,57.4233203 36.0427981,57.5021485 Z M39.861522,66.7792435 C40.3154272,65.9712543 41.3416476,65.4884315 42.1063791,64.8676594 C43.6703784,66.020522 43.3546183,66.8383646 40.1328784,69.9028113 L38.8846392,69.2278448 C40.1970171,68.8238502 39.4273519,67.518258 39.841787,66.7792435 L39.861522,66.7792435 Z M36.7680597,68.9667263 C35.5099529,67.163531 35.3422054,66.0500825 37.0147472,65.0745834 C37.5081224,64.7740509 37.7597438,63.9020138 38.0014976,63.2467543 C38.6971566,61.2317082 38.8994404,61.1036124 40.8729411,61.6849704 C41.387362,61.7930547 41.9080768,61.8687476 42.4320067,61.9116015 L36.7680597,68.9667263 Z M40.9765499,60.7882995 L41.3219126,58.2855038 L42.663893,58.1327742 L43.2312745,60.0542118 L40.9765499,60.7882995 Z M31.9280491,59.0442254 C34.1334362,60.8474207 34.1235687,60.8326404 31.7504341,62.1333059 C31.4198727,62.3155961 31.2570589,62.7639315 30.9610338,63.1186585 L31.9280491,59.0442254 Z M28.5632304,63.0299767 C29.4019682,63.2221205 30.2555073,63.3699234 31.0695763,63.6408954 C31.569028,63.7610976 32.0085521,64.0566129 32.307948,64.4735183 C32.4312918,64.7346368 32.0365917,65.5032118 31.7010966,65.6510147 C31.2422577,65.853012 30.3541823,65.9072064 30.1173622,65.6510147 C29.5089825,64.824126 28.9803575,63.941583 28.5385617,63.0151965 L28.5632304,63.0299767 Z M30.4133874,80.2095998 C29.4759745,78.3275763 29.9841509,77.5442209 32.3375505,76.9431558 C33.4723135,79.3277092 29.6831921,78.1797734 30.3887186,80.1948195 L30.4133874,80.2095998 Z M33.7782061,68.9076052 C32.0119229,68.5627317 31.6813616,70.2673918 30.9018288,71.3709867 C30.7094125,71.6370319 30.9758351,72.2282435 31.0498413,72.8490157 L28.5829654,72.5681902 C29.1256781,72.0755139 29.5697158,71.8341025 29.7275959,71.4793755 C30.0581572,70.617192 30.220971,69.6909605 30.4775261,68.7992164 C30.7883525,67.7498158 32.4510268,66.5526124 33.3835059,66.8285111 C33.6647298,66.9171929 33.8028748,67.6069397 33.9163511,68.0404948 C33.9106242,68.3317428 33.8555755,68.6199224 33.7535373,68.8928249 L33.7782061,68.9076052 Z M32.8210582,63.980842 C33.679531,63.0595373 34.2666475,62.3500834 34.9475052,61.7490183 C35.1448553,61.5765816 35.6135617,61.714531 35.9589244,61.714531 C35.9589244,62.0495509 36.0625331,62.5175934 35.8849181,62.6998836 C35.3026044,63.3204002 34.6483912,63.8694917 33.9360861,64.335569 C33.719001,64.4488845 33.2354934,64.1187914 32.7963895,63.9709885 L32.8210582,63.980842 Z M36.7680597,74.0462191 C36.2500157,75.0315717 35.3520729,75.6178565 34.0840987,74.6571377 L36.9950122,72.2627309 C38.2481852,72.8293086 36.9703435,73.5978837 36.7384571,74.0314388 L36.7680597,74.0462191 Z M37.6660025,77.1254461 L39.4273519,75.0759126 L39.5704307,76.9727164 L40.5867835,76.6130627 L39.225068,78.6133285 L37.6660025,77.1254461 Z M41.3860513,80.5741803 C40.6609457,80.3638019 39.9546272,80.0935398 39.2744056,79.7661911 C39.1214593,79.6775094 39.2744056,79.0567372 39.2744056,78.6773764 C39.9897996,78.8251793 40.1624809,80.6480817 41.5291301,78.9434217 L41.3860513,80.5741803 Z M41.6919439,73.5781766 C41.312045,74.0708529 41.312045,74.0708529 41.8991615,74.5044081 L40.6213198,76.627843 C40.2087891,75.984612 39.8490944,75.3090803 39.5457619,74.6078701 C39.4668219,74.381239 39.8319195,73.7900274 40.1082096,73.6914922 C40.6261145,73.5769447 41.1577889,73.5371257 41.6870102,73.5732498 C42.0175716,73.0115988 42.3382654,72.4450211 42.6737605,71.8833701 L43.1079307,71.7799081 C43.300347,72.6371649 43.4631608,73.4993484 43.7049147,74.3467517 C43.9221526,74.9071731 44.1776638,75.4520404 44.4696462,75.9775103 L42.0027703,76.5687218 L42.4566755,74.8443547 L43.260877,74.4206531 L41.6919439,73.5781766 Z M43.7493184,83.3578014 C43.1079307,82.7764434 41.6130039,82.8651251 42.1261141,81.4363638 C42.4369405,80.5840338 43.3348833,79.9583349 44.2920311,79.3671233 L43.5174321,81.0668566 C44.0108073,81.1111974 44.5633875,81.1555383 45.0962327,81.1949524 L43.7493184,83.3578014 Z M48.0811525,78.0960184 L45.308384,77.4358321 L47.0796009,76.6032092 L47.1092034,74.2235826 C48.7028052,75.1695211 48.9593603,76.337164 48.05155,78.1009452 L48.0811525,78.0960184 Z M56.1231679,70.0210536 L56.3254517,72.0360997 L54.0707272,71.3069388 L55.0574775,69.1736504 C54.1496672,67.912399 53.1579831,68.7844361 52.3143115,69.1736504 C50.7996497,69.8929578 49.6599531,69.6663267 48.7176065,68.2326386 C47.7752599,66.7989505 46.7687745,65.3504822 45.7573554,63.9365012 C45.4859991,63.5620672 44.9679551,63.3502163 44.7459363,62.9511485 C44.4696462,62.4584722 44.1094823,61.7736521 44.2525611,61.340097 C44.7596409,60.1350006 45.3430023,58.963348 45.9991092,57.8322416 L46.5566232,59.4925608 L47.4644335,58.1623348 C47.9134049,58.5811096 49.0580354,58.5564758 48.1650263,59.6403637 C48.865619,59.8620681 48.5350577,62.0249171 50.138527,60.6700572 C50.3013408,60.5321078 50.8045835,60.7882995 50.9229935,60.8080066 C51.3719649,60.2857697 51.6433213,59.758606 52.0676239,59.551682 C52.2995103,59.4383664 52.7928855,59.8768483 53.1727843,60.0443583 C53.3362189,60.1275949 53.5106306,60.1873085 53.6908283,60.2217218 C54.0559259,60.2759162 54.4259573,60.30055 55.1709538,60.3695247 L56.1577042,59.7881666 C56.2386276,60.2873388 56.2913377,60.7906654 56.3155842,61.2957561 C56.3155842,63.4044107 56.2761142,65.5130654 56.2465117,67.7744496 C56.874716,68.1046043 57.5362602,68.3671957 58.2200124,68.557805 C58.4913688,68.6169261 58.9058039,68.0355681 59.2363653,67.7645961 C58.6739176,70.2821721 58.4124287,70.4546088 56.0935654,70.0259804 L56.1231679,70.0210536 Z M68.3046011,77.480173 C67.1550369,76.2780428 66.1682866,74.94289 64.1405146,75.0808394 C62.6047694,75.1197858 61.0690412,75.002582 59.5570592,74.7310392 C58.9946115,74.652211 58.4765675,74.2383629 57.9387886,73.9673909 L58.0719999,73.4747146 C58.7972614,73.5338357 59.5521254,73.7555401 60.2329832,73.612664 C60.9138409,73.4697878 61.9153925,73.0313059 61.9893988,72.5878972 C62.3051589,70.740361 63.834622,70.5285102 64.707896,69.9668592 L66.4149741,72.0360997 C67.5744058,73.4747146 68.8275788,74.7950871 68.6993012,76.9135952 C68.6598312,77.5442209 69.2814839,78.2142607 69.7156541,78.8843005 C69.2025439,78.4261115 68.7338375,77.9629958 68.2749986,77.4900265 L68.3046011,77.480173 Z M69.9376729,79.1060048 L71.0675021,78.2733819 C68.7289037,78.125579 69.5035028,76.7953529 69.7008528,75.6769777 L72.3453438,75.1843014 L71.9309086,77.0269108 L71.5115397,76.9431558 L72.4982901,80.9289072 L69.9376729,79.1060048 Z M73.0212678,55.3934939 L72.5574951,55.0683275 L73.1544791,50.7623365 C74.328712,51.2550129 74.9997022,52.2748528 74.8072859,53.3291801 C74.6346046,54.1076087 73.6182517,54.7185273 72.9916653,55.4033474 L73.0212678,55.3934939 Z M73.4603717,68.9420925 L75.4733424,68.5430247 L76.3614177,70.9522119 L73.4603717,68.9420925 Z M40.6755911,121.165782 L39.9256608,118.67284 L40.6805248,117.756462 L41.7363477,118.771375 L40.6755911,121.165782 Z M46.2211281,118.993079 C45.6454925,119.602994 45.0164016,120.160294 44.3413686,120.658325 L43.9219997,120.308525 L43.6950472,122.008258 L42.3678679,122.008258 L43.1671357,119.929164 L43.5717034,120.003066 L42.8711106,117.938752 L43.2954133,117.741681 L44.1538861,119.475902 L45.6340116,117.396808 C45.9399042,118.19987 46.3395381,118.835423 46.1915256,119.012786 L46.2211281,118.993079 Z M44.59299,114.524505 C44.124855,114.92728 43.5330763,115.158442 42.9155144,115.179764 C42.5800193,115.179764 42.0767766,114.731429 41.928764,114.366849 C41.8448902,114.169778 42.3135967,113.711589 42.5800193,113.381496 C42.9451169,112.962721 43.3496845,112.578434 43.7394509,112.179366 L41.6327389,111.89854 L42.8908456,109.784959 L43.3052808,109.986956 L43.0733944,110.760458 C43.7986559,111.297475 45.7721567,109.977103 45.2738477,112.238487 L46.3839419,112.006929 C45.8477997,112.902667 45.2389021,113.752927 44.5633875,114.549139 L44.59299,114.524505 Z M49.6994231,116.751402 C49.5028431,116.132899 49.3381683,115.504732 49.2060479,114.869378 C49.2076705,114.53516 49.2592201,114.203053 49.3589942,113.884026 C49.6944893,114.09095 50.1631958,114.219046 50.3457446,114.514651 C50.6023028,115.122686 50.7973339,115.754813 50.9279273,116.401602 L49.6994231,116.751402 Z M50.8440535,118.924104 C50.6022997,117.229298 51.8308039,117.125836 52.9754343,116.953399 L53.2467906,117.406661 L50.8440535,118.924104 Z M56.7990919,118.786155 L53.1086456,115.47537 L56.359988,114.332361 C56.1034329,113.179499 52.5708666,114.115584 54.8798625,111.460058 L55.7087328,113.273107 L56.0639629,113.327302 L56.241578,111.356596 C56.8582969,111.671909 56.7004169,113.608127 58.1854762,111.913321 L58.7725926,116.583892 L56.7990919,118.786155 Z M76.3022127,114.652601 C74.9110594,114.514947 73.5065941,114.68311 72.1874637,115.145277 C69.3258877,116.376968 66.4791129,116.849937 63.5287293,115.958193 L64.2145208,115.381762 C62.5913165,115.766049 62.3840989,114.889085 62.6110515,113.691882 C60.4402007,113.332228 60.4007307,113.105597 60.4253995,111.090551 C60.4253995,110.34661 59.6261317,109.612522 59.0883527,108.67151 L61.9104588,106.95207 L62.3150264,108.237955 L60.2625857,108.883361 L63.3313793,111.622642 L64.9496499,111.824639 C64.9891199,111.479765 65.2210062,110.913188 65.0285899,110.642216 C64.8361736,110.371244 64.2243883,110.386024 63.7754169,110.267782 L63.874092,109.223308 L63.1488305,109.513987 L63.198168,105.478968 C65.0088549,105.680965 66.158419,104.533029 67.1797057,103.217584 C67.285574,103.099094 67.417219,103.006399 67.5645383,102.946612 C69.0446638,102.271645 70.5839944,101.67058 72.0049149,100.882298 C72.34041,100.695081 72.4686876,99.8969453 72.4982901,99.4042689 C72.5278926,97.92624 72.4045488,96.4482111 72.4390851,94.9701821 C72.4390851,94.5809678 72.799249,94.2016071 73.0854066,93.6350293 C72.4292176,92.5560682 72.7449777,91.9796369 74.4816583,91.2751098 C75.2781267,91.5870459 76.0899532,91.8583677 76.9139979,92.0880257 C78.2905147,92.3885582 79.1687225,94.0587309 78.4286597,95.1229118 L79.9087853,95.5269064 L80.1357379,96.0934841 L75.2365223,99.2466125 L79.2427288,99.2958802 L82.696355,96.4482111 C83.8113829,97.3202481 86.3177288,96.7241098 86.3029276,99.4042689 C87.6498418,98.3154543 88.6957972,99.1431505 89.8206926,99.694948 C90.4632231,99.9308859 91.1230113,100.117012 91.7941933,100.251672 C92.0112784,100.320647 92.3517073,100.473377 92.3665085,100.621179 C92.3680099,100.864957 92.3193089,101.10644 92.2234297,101.330633 L93.4568677,102.862857 C92.1691585,102.808662 90.4966166,104.252204 90.3880741,102.17311 L86.7420315,103.37524 C87.5857031,104.133962 88.3997721,104.804001 89.1250336,105.562723 C89.3101925,105.85629 89.3604859,106.215019 89.2631787,106.548075 C88.2270908,107.075239 88.005072,108.558195 86.5594827,108.67151 C85.9822337,108.715851 85.5036598,109.518914 84.8968083,109.770179 C82.7012888,110.671776 82.6864875,110.637289 80.8067281,108.986823 C81.1224882,107.400406 81.3543746,105.818915 81.7934785,104.296545 C82.0965159,103.853915 82.6092105,103.601668 83.1453264,103.631432 C84.1346322,104.008176 85.0916408,104.464582 86.0069025,104.996145 C84.8030671,102.902271 83.4314841,102.311059 80.0864003,102.419448 C79.913719,103.843283 79.736104,105.26219 79.5930252,106.686025 C79.5930252,106.897876 79.6571639,107.124507 79.6571639,107.341284 C79.6571639,107.996544 79.6324952,108.65673 79.6176939,109.31199 L77.6441932,109.026237 C76.6081053,111.051137 74.4816583,110.33183 72.4193501,110.504266 L73.4061004,111.721177 C74.1362957,111.657129 75.3253299,109.972176 75.3796011,112.277901 C76.4107553,111.179233 77.2790956,109.750472 79.0453787,110.509193 L79.6078264,112.041416 L80.0765328,110.174173 C81.5171884,110.253001 81.3938446,111.524106 81.2162295,112.460191 C81.0386144,113.396276 80.3725579,113.366716 79.8841165,112.509459 C79.3315363,114.376702 78.0734296,114.746209 76.3219477,114.662454 L76.3022127,114.652601 Z M114.824947,124.146473 C114.71147,124.703198 114.578259,125.259922 114.449982,125.816646 C112.634361,125.062851 110.606589,124.082425 108.485076,123.402532 C107.435022,123.144718 106.338058,123.144718 105.288004,123.402532 C103.895387,123.741418 102.523227,124.159227 101.178189,124.65393 C97.6554905,125.772305 94.7643119,124.737685 91.8040608,122.609323 C88.9523523,120.54501 86.17465,118.150603 82.4842037,117.519977 C81.997341,117.421216 81.5237558,117.265782 81.0731507,117.056861 C79.09965,116.214385 78.8529624,114.97284 80.6143118,113.686955 C82.3756612,112.40107 84.2652881,111.499472 86.1253125,110.464852 C88.0988132,109.361257 90.1019165,108.257662 92.139556,107.252603 C92.8031001,107.001202 93.5069669,106.872649 94.2166655,106.873242 C94.9172582,106.819047 95.6227847,106.873242 96.5207275,106.873242 L96.1210936,105.163655 L96.5651313,104.907463 C96.9042748,105.557444 97.2883946,106.183018 97.7146955,106.779633 C98.2327394,107.420113 98.7803859,108.257662 99.4908461,108.48922 C103.048081,109.750472 105.707373,112.144878 108.198918,114.839818 C109.185668,115.933559 110.631258,116.667647 111.544002,117.795876 C112.791015,119.485074 113.928118,121.252492 114.94829,123.087219 C115.120972,123.358191 114.913754,123.81638 114.844682,124.156327 L114.824947,124.146473 Z M114.667067,110.548607 C114.446165,110.161086 114.270683,109.749454 114.144089,109.321843 L115.387394,109.085358 L116.615899,110.041151 L115.629148,111.361523 C115.276161,111.131139 114.953021,110.8581 114.667067,110.548607 Z M117.661854,109.563255 C117.612516,109.765252 117.114208,109.85886 116.74911,109.986956 C116.892189,109.804666 117.050069,109.612522 117.267154,109.351404 L115.214713,108.13942 L114.903887,108.523707 L114.810145,107.592549 L117.045135,106.828901 L116.625766,104.464055 L116.206397,106.789487 L115.604479,106.740219 L115.861035,103.523043 C117.943078,103.660992 117.691456,105.454334 118.022018,106.597343 C118.283507,107.46938 117.898674,108.577902 117.65692,109.563255 L117.661854,109.563255 Z M118.579532,81.5743132 L115.969577,82.3281079 L116.462952,79.9878954 L118.643671,80.850079 L118.579532,81.5743132 Z M119.161714,43.7318456 L120.099127,43.0223917 L119.758698,44.2491557 L121.110546,45.7271846 L121.110546,46.2494215 C119.679758,45.2640689 119.630421,46.1607398 119.630421,47.279115 C118.900226,45.9094749 118.09109,44.8945617 119.161714,43.7170653 L119.161714,43.7318456 Z M119.857373,64.1286449 L122.501864,60.9016151 C122.852161,61.3548773 123.602091,61.9953565 123.888249,62.7984189 C124.065864,63.2910952 123.557687,64.0448899 123.345536,64.7050762 C122.556136,64.6065409 121.954218,64.5474198 121.372035,64.4488845 C120.858925,64.355276 120.36555,64.2370337 119.85244,64.1138646 L119.857373,64.1286449 Z M123.044577,154.889475 L122.871896,152.91877 L122.704148,152.91877 L122.491997,153.790807 L122.195972,153.721832 L122.753486,151.03182 L123.513284,150.957918 L124.61351,153.298131 L125.634797,153.174962 C125.669333,154.889475 124.421094,154.845134 123.044577,154.889475 Z M125.442381,53.8120029 L125.353573,53.1518167 C126.001111,52.6766322 126.676603,52.2406522 127.376411,51.8462244 C127.460285,51.8018836 127.869786,52.4423628 128.38783,53.0335744 L126.907705,52.6640671 L127.815515,54.3342398 L125.442381,53.8120029 Z M144.585337,118.594011 C143.527926,119.391303 142.571931,120.314509 141.738563,121.343145 C140.151887,123.317695 138.685561,125.385741 137.347524,127.536086 C135.956206,129.846738 133.400522,129.75313 131.64904,130.984821 C131.461558,129.181625 131.407286,127.536086 131.091526,125.974303 C130.849772,124.782026 130.311994,123.673504 131.091526,122.476301 C131.190201,122.318644 131.022454,121.860455 130.839905,121.673238 C129.734745,120.54501 128.639452,119.397074 127.435616,118.372307 C126.557408,117.623439 126.271251,116.987887 126.878102,115.869511 C127.746443,114.278167 128.575313,113.204132 130.74123,113.711589 C131.579968,113.90866 132.714731,112.928234 133.701481,112.499605 C134.22223,112.231371 134.816792,112.141361 135.393758,112.243414 L136.75054,110.671776 C137.293252,111.56352 137.549807,112.410924 135.916736,113.095744 C138.384957,113.939465 141.023353,114.162827 143.598587,113.746076 C144.156101,113.647541 144.585337,112.972575 145.078713,112.5538 L147.367973,114.627967 L148.325121,113.199206 L148.956642,115.509858 C147.604794,116.460723 146.030927,117.446076 144.585337,118.594011 Z M148.917172,112.440484 L148.798761,110.19388 C150.244351,110.454999 151.265637,110.326903 151.458054,108.400538 C151.556729,107.518648 152.627353,106.740219 153.318078,105.828768 C153.865725,107.267383 150.678521,111.809859 148.907304,112.440484 L148.917172,112.440484 Z M154.132147,105.129168 C153.860791,104.523176 153.860791,104.523176 155.42479,102.335693 L156.579288,102.892417 L154.132147,105.129168 Z M159.386593,113.726369 L159.179375,113.233693 C160.166126,111.73103 160.940725,111.509326 162.114958,112.785358 L159.386593,113.726369 Z M162.968497,86.8114624 C162.495555,86.9246935 162.029396,87.0645078 161.572245,87.2302372 C161.269264,87.4020982 160.98631,87.6069907 160.728573,87.8411559 L159.455665,85.4713828 C159.090568,86.1414226 158.814278,86.5799045 158.602126,87.047947 C157.941004,88.5259759 157.472297,86.9297047 157.166405,86.964192 C157.432827,86.5946848 158.039679,86.1266423 158.039679,85.6585998 C158.045993,84.982202 157.760133,84.3358871 157.255212,83.8849651 C156.702632,83.5351649 156.090847,83.9440862 155.380386,84.3776414 C153.900261,85.3186531 154.887011,86.6833665 154.255491,87.6342318 C154.116769,87.9145293 154.018753,88.2131366 153.9644,88.5210492 L153.471024,88.4274407 C153.535163,87.900277 153.589434,87.3681866 153.658507,86.841023 C153.826255,85.5600645 153.421687,84.6190528 151.985965,84.9540727 C149.716439,85.4910899 148.038964,83.8849651 146.025993,83.5203846 C145.828643,83.4858973 145.532618,82.9242463 145.60169,82.6532743 C145.734902,81.8009443 146.006258,80.9732481 146.228277,80.120918 L147.427178,80.7367634 L146.307217,78.8153258 L148.473134,79.9928222 L149.065184,77.6526097 C149.514155,79.4804388 153.584501,77.9186549 152.025435,81.2688539 L152.444804,81.4560709 L155.104096,79.7858982 C155.083308,80.6880901 155.159393,81.5899092 155.331049,82.4759108 C155.444525,82.8700519 156.17472,83.2395591 156.668096,83.3085338 C156.919717,83.3430211 157.284815,82.6976152 157.566038,82.3231812 C157.712273,82.1182995 157.842576,81.902533 157.955805,81.6777752 L159.929306,83.3380944 C160.467084,84.5451513 161.503172,85.2004108 162.633001,85.7522083 L161.152876,83.8701848 L161.202213,83.7223819 C161.78933,83.9539398 162.549128,84.0376947 162.924093,84.4564696 C163.373064,84.9491459 163.506276,85.737428 163.718427,86.4271749 C163.476619,86.5767098 163.222423,86.705276 162.958629,86.8114624 L162.968497,86.8114624 Z M164.650906,33.7551502 L164.246338,34.0261222 C163.190515,33.3265218 162.440585,32.4840453 163.313859,31.2375743 C163.526011,30.9321149 164.113127,30.8877741 164.65584,30.9912361 L163.481607,32.0849775 L164.650906,33.7551502 Z M170.571408,82.6828349 L173.66487,82.993221 L173.580997,83.5548719 L172.48077,83.1952182 C172.428668,83.4910243 172.354454,83.7825185 172.258751,84.0672553 C172.115913,84.3366615 171.950886,84.5937391 171.765376,84.8358304 L170.571408,82.6828349 Z M174.222384,106.134227 C173.674738,106.134227 173.132025,105.483895 172.59918,106.326371 C172.52024,106.44954 171.947925,106.257396 171.61243,106.213056 L171.873919,104.735027 C173.487255,104.971511 174.83417,106.060326 176.003469,104.326105 L176.467241,105.09468 C175.727179,105.469114 174.99205,106.11452 174.237186,106.11452 L174.222384,106.134227 Z M176.990219,96.0984109 C176.525349,95.2854793 176.192308,94.4041731 176.003469,93.4872264 C175.949198,93.2556686 176.388301,92.9058684 176.704062,92.4673865 C177.246774,93.3739109 177.690812,94.0587309 178.075645,94.7731116 C178.267903,95.1973215 178.4327,95.6334151 178.56902,96.0787038 C178.05591,96.0934841 177.148099,96.3299687 177.00502,96.0934841 L176.990219,96.0984109 Z M179.388023,102.552471 L178.628225,98.571646 L181.410861,100.690154 L179.388023,102.552471 Z M187.395502,106.853535 C186.030569,106.113877 184.71242,105.291201 183.4485,104.390153 C183.034065,104.064987 183.108071,103.123975 182.955125,102.468716 L184.800348,102.212524 L185.032235,104.262057 L187.656991,106.400273 L187.395502,106.853535 Z M193.809379,109.809593 L193.838982,107.178701 L195.669403,107.425039 C195.773012,109.563255 195.472053,109.982029 193.814313,109.809593 L193.809379,109.809593 Z M207.520275,41.6330445 C207.0269,41.371926 206.11909,40.997492 206.153626,40.8693962 C206.265042,40.4707914 206.43107,40.0894682 206.647001,39.7362407 L207.747228,41.1502217 L207.520275,41.6330445 Z M208.230736,39.9480915 L206.666736,39.7214604 C206.810056,39.4802585 206.975205,39.2526761 207.160111,39.0415671 C207.278521,38.9036177 207.969247,39.2632714 208.398483,39.396294 L208.230736,39.9480915 Z M225.469264,86.7523412 L225.439662,89.0974805 C224.906817,88.6442183 224.901883,87.6539389 225.173239,85.6044054 L226.628696,86.4961495 L225.469264,86.7523412 Z" id="Shape"></path>
        </g>
    </g>
</svg>