<?xml version="1.0" encoding="UTF-8"?>
<svg width="63px" height="41px" viewBox="0 0 63 41" version="1.1" xmlns="http://www.w3.org/2000/svg" xmlns:xlink="http://www.w3.org/1999/xlink">
    <!-- Generator: Sketch 50.2 (55047) - http://www.bohemiancoding.com/sketch -->
    <title>wikipedia-w</title>
    <desc>Created with Sketch.</desc>
    <defs></defs>
    <g id="Search-results-2018" stroke="none" stroke-width="1" fill="none" fill-rule="evenodd">
        <g id="Icons" transform="translate(-104.000000, -1081.000000)" fill="#4A4A4A" fill-rule="nonzero">
            <g id="wikipedia-w" transform="translate(104.000000, 1081.000000)">
                <path d="M40.852,40.9883007 L32.78625,21.8190015 C29.58725,28.1352141 26.05925,34.7285774 23.02475,40.9883007 C22.99675,41.0165453 21.54775,40.9883007 21.54775,40.960056 C16.926,30.0646776 12.08725,19.2522678 7.4655,8.33041005 C6.34375,5.68247297 2.59875,1.37869257 0.028,1.40693723 C0.028,1.10330712 0,0.414843476 0,0 L15.94075,0 L15.94075,1.37869257 C14.05425,1.48990593 10.745,2.70266111 11.67425,4.77158261 C13.83375,9.70910262 21.87325,28.631261 24.0345,33.429323 C25.5115,30.4777558 29.722,22.5886686 31.444,19.2522678 C30.07725,16.4383934 25.67425,5.95785843 24.2795,3.36464538 C23.32225,1.599354 20.72525,1.4334166 18.78275,1.40693723 L18.78275,0.0282446622 L32.81075,0.0564893243 L32.81075,1.3522132 C30.89625,1.40693723 29.064,2.12541083 29.91275,3.94542625 C31.77125,7.91733186 32.921,10.7029617 34.643,14.3447578 C35.19075,13.2696953 38.06075,7.44952965 39.37325,4.33202506 C40.24825,2.29134822 38.99,1.49167122 35.57225,1.40870253 C35.60025,1.05034837 35.57225,0.388364105 35.60025,0.0564893243 C39.97525,0.0282446622 46.53775,0.0282446622 47.71375,0.00176529139 L47.71375,1.35397849 C45.49825,1.43694719 43.20225,2.623223 41.99825,4.49796245 L36.17425,16.6890648 C36.8025,18.2884188 42.4095,30.8661199 42.9835,32.2465777 L55.04275,4.19433233 C54.19575,1.9047494 51.4605,1.40870253 50.39475,1.38045786 L50.39475,0.00176529139 L62.972,0.112978649 L63,0.167702682 L62.972,1.38222315 C60.2105,1.46519185 58.54275,2.95509778 57.47525,5.38237343 C55.01475,11.1195704 47.30425,29.2138071 42.19075,40.9918313 L40.85025,40.9918313 L40.852,40.9883007 Z" id="Shape"></path>
            </g>
        </g>
    </g>
</svg>