<?xml version="1.0" encoding="UTF-8"?>
<svg width="76px" height="60px" viewBox="0 0 76 60" version="1.1" xmlns="http://www.w3.org/2000/svg" xmlns:xlink="http://www.w3.org/1999/xlink">
    <!-- Generator: Sketch 50.2 (55047) - http://www.bohemiancoding.com/sketch -->
    <title>film</title>
    <desc>Created with Sketch.</desc>
    <defs></defs>
    <g id="Search-results-2018" stroke="none" stroke-width="1" fill="none" fill-rule="evenodd">
        <g id="Icons" transform="translate(-104.000000, -690.000000)" fill="#4A4A4A" fill-rule="nonzero">
            <g id="film" transform="translate(104.000000, 690.000000)">
                <path d="M0,7.5 C0,3.375 3.39677419,0 7.5483871,0 L67.9354839,0 C72.1059677,0 75.483871,3.35625 75.483871,7.5 L75.483871,52.5 C75.483871,56.64375 72.1059677,60 67.9354839,60 L7.5483871,60 C3.37790323,60 0,56.64375 0,52.5 L0,7.5 Z M22.6451613,7.5 L22.6451613,52.5 L52.8387097,52.5 L52.8387097,7.5 L22.6451613,7.5 Z M7.5483871,11.25 L7.5483871,18.75 L15.0967742,18.75 L15.0967742,11.25 L7.5483871,11.25 Z M7.5483871,26.25 L7.5483871,33.75 L15.0967742,33.75 L15.0967742,26.25 L7.5483871,26.25 Z M7.5483871,41.25 L7.5483871,48.75 L15.0967742,48.75 L15.0967742,41.25 L7.5483871,41.25 Z M60.3870968,11.25 L60.3870968,18.75 L67.9354839,18.75 L67.9354839,11.25 L60.3870968,11.25 Z M60.3870968,26.25 L60.3870968,33.75 L67.9354839,33.75 L67.9354839,26.25 L60.3870968,26.25 Z M60.3870968,41.25 L60.3870968,48.75 L67.9354839,48.75 L67.9354839,41.25 L60.3870968,41.25 Z M30.1935484,18.75 L49.0645161,30 L30.1935484,41.25 L30.1935484,18.75 Z" id="Shape"></path>
            </g>
        </g>
    </g>
</svg>